<mxfile host="app.diagrams.net" modified="2023-05-15T14:20:03.112Z" agent="Mozilla/5.0 (Windows NT 10.0; Win64; x64; rv:109.0) Gecko/20100101 Firefox/113.0" etag="VokdBcjP7Q7AbSv7UJVR" version="21.2.9" type="github">
  <diagram id="C5RBs43oDa-KdzZeNtuy" name="Page-1">
    <mxGraphModel dx="807" dy="768" grid="1" gridSize="10" guides="1" tooltips="1" connect="1" arrows="1" fold="1" page="1" pageScale="1" pageWidth="827" pageHeight="1169" math="0" shadow="0">
      <root>
        <mxCell id="WIyWlLk6GJQsqaUBKTNV-0" />
        <mxCell id="WIyWlLk6GJQsqaUBKTNV-1" parent="WIyWlLk6GJQsqaUBKTNV-0" />
        <mxCell id="yrl_nnDMig1rZQWOPwWd-7" style="edgeStyle=orthogonalEdgeStyle;rounded=0;orthogonalLoop=1;jettySize=auto;html=1;exitX=0;exitY=0.5;exitDx=0;exitDy=0;entryX=0;entryY=0.5;entryDx=0;entryDy=0;" parent="WIyWlLk6GJQsqaUBKTNV-1" source="yrl_nnDMig1rZQWOPwWd-2" target="yrl_nnDMig1rZQWOPwWd-3" edge="1">
          <mxGeometry relative="1" as="geometry" />
        </mxCell>
        <mxCell id="yrl_nnDMig1rZQWOPwWd-8" style="edgeStyle=orthogonalEdgeStyle;rounded=0;orthogonalLoop=1;jettySize=auto;html=1;exitX=0;exitY=0.5;exitDx=0;exitDy=0;entryX=0;entryY=0.5;entryDx=0;entryDy=0;" parent="WIyWlLk6GJQsqaUBKTNV-1" source="yrl_nnDMig1rZQWOPwWd-2" target="yrl_nnDMig1rZQWOPwWd-5" edge="1">
          <mxGeometry relative="1" as="geometry" />
        </mxCell>
        <mxCell id="yrl_nnDMig1rZQWOPwWd-23" style="edgeStyle=orthogonalEdgeStyle;rounded=0;orthogonalLoop=1;jettySize=auto;html=1;exitX=0;exitY=0.5;exitDx=0;exitDy=0;entryX=-0.014;entryY=0.456;entryDx=0;entryDy=0;entryPerimeter=0;" parent="WIyWlLk6GJQsqaUBKTNV-1" source="yrl_nnDMig1rZQWOPwWd-2" target="yrl_nnDMig1rZQWOPwWd-22" edge="1">
          <mxGeometry relative="1" as="geometry">
            <Array as="points">
              <mxPoint x="90" y="90" />
              <mxPoint x="90" y="234" />
            </Array>
          </mxGeometry>
        </mxCell>
        <mxCell id="yrl_nnDMig1rZQWOPwWd-2" value="A user can &lt;strong&gt;view a list of contacts&lt;/strong&gt; at &quot;/&quot; when the app loads." style="rounded=0;whiteSpace=wrap;html=1;" parent="WIyWlLk6GJQsqaUBKTNV-1" vertex="1">
          <mxGeometry x="110" y="70" width="340" height="40" as="geometry" />
        </mxCell>
        <mxCell id="yrl_nnDMig1rZQWOPwWd-3" value="&lt;br&gt;&lt;div&gt;&lt;div&gt;Each contact should show first name and last name&lt;br&gt;&lt;/div&gt;&lt;br&gt;&lt;/div&gt;" style="rounded=0;whiteSpace=wrap;html=1;fillColor=#D5E8D4;strokeColor=#666666;glass=0;shadow=0;fontColor=#333333;align=left;verticalAlign=middle;labelPosition=center;verticalLabelPosition=middle;" parent="WIyWlLk6GJQsqaUBKTNV-1" vertex="1">
          <mxGeometry x="160" y="130" width="280" height="30" as="geometry" />
        </mxCell>
        <mxCell id="yrl_nnDMig1rZQWOPwWd-5" value="&lt;br&gt;&lt;div&gt;&lt;div&gt;The list of contacts should be fetched from json-server&lt;/div&gt;&lt;br&gt;&lt;/div&gt;" style="rounded=0;whiteSpace=wrap;html=1;fillColor=#D5E8D4;strokeColor=#666666;glass=0;shadow=0;fontColor=#333333;align=left;verticalAlign=middle;labelPosition=center;verticalLabelPosition=middle;" parent="WIyWlLk6GJQsqaUBKTNV-1" vertex="1">
          <mxGeometry x="160" y="180" width="280" height="30" as="geometry" />
        </mxCell>
        <mxCell id="yrl_nnDMig1rZQWOPwWd-11" value="" style="shape=image;verticalLabelPosition=bottom;labelBackgroundColor=default;verticalAlign=top;aspect=fixed;imageAspect=0;image=data:image/png,iVBORw0KGgoAAAANSUhEUgAAA3AAAADYCAYAAACqTQHJAAAgAElEQVR4XuydZXgUZxeG7407EDRAcHd3dyjBS9HiLoVSLxRaaJEibXEpHoq7F3d392ABAoF4ssnufmeDQ2hpC19Jc97ryo9sdmfe957ZmTxzznmOwWw2W9ChBJSAElACSkAJKAEloASUgBJQAu88AYMKuHf+GOkElYASUAJKQAkoASWgBJSAElACsQRUwOmJoASUgBJQAkpACSgBJaAElIASiCcEVMDFkwOl01QCSkAJKAEloASUgBJQAkpACaiA03NACSgBJaAElIASUAJKQAkoASUQTwiogIsnB0qnqQSUgBJQAkpACSgBJaAElIASUAGn54ASUAJKQAkoASWgBJSAElACSiCeEFABF08OlE5TCSgBJaAElIASUAJKQAkoASWgAk7PASWgBJSAElACSkAJKAEloASUQDwhoAIunhwonaYSUAJKQAkoASWgBJSAElACSkAFnJ4DSkAJKAEloASUgBJQAkpACSiBeEJABVw8OVA6TSWgBJSAElACSkAJKAEloASUgAo4PQeUgBJQAkpACSgBJaAElIASUALxhIAKuHhyoHSaSkAJKAEloASUgBJQAkpACSgBFXB6DigBJaAElIASUAJKQAkoASWgBOIJgScCzhIdQUToffwDI56fup0TDq6J8Urmiq38xfDSwkxE3r9JYIiRiOgX/uiRnBQerrg7Wj+pQwkoASWgBN40AYvFhNkYSXhYOOFRUURGRRNjMmMw2GBj74CDoyPOzq7y44iDnbz2pifwVrdnwhgeQbTcfWwdnXF6R28llhjhbjQTbbHDw9X+rRLRjSsBJaAElIASeCLgIi5tYsu8YTQatP15Kl7FyeXzMQuH+5Da1sLztyaTCLpAdg6rwXe+Z9h+4QWgbccxrkMtWuVLrqSVgBJQAkrgLRCICb/L3fM72bR0E+sO7WPXscvcvBOCnZM7idPlJnuhglStVJvyZfOTM10S3N/CHN7WJq33l1NrNnLZNhWJipSltOfb2tM/226E/2F2n7rP5agMtKuV6Z9tTD+tBJSAElACSuBPCDwVcBd/Z5PvD/gM2Pr8R+zTk7FwE4bOH0L1VBbc7Z75syUCQ/RRJlf7kDH7LnAs8oW9dZzMlM4+tC2QQg+EElACSkAJvEkClvtcOSiibe4C5q07xNXAIB6EhRESEUV0tDxcs5GolYMzzq6ueHgkxsM7P8VrNqRls/pU9H72Qv4mJ/VmtmWKeEDQqVVMnTyDtXudyVTnQ1r2bEjZpG9m+29kK+YYYkJvcmDlLBYu3sBmQ24yN+jO/KY53sjmdSNKQAkoASWgBF5F4M8FHM4kz1KKFhMW8XkJN1K4PJOAY7yPwW8Rret8x+qz1wl4cS8q4PTMUwJKQAm8BQLXObZmEYvnL2fZlqOc9QskSvZi+aM9OXmSImsZKtVrRZ+PGpAnsQXHdzGf0niPe2e3M+3zwcw9coKz9/JStctH9O7X9J0ScDHhAfit780PE/ezcd8N/LPXpmzX/mxokfMtHG/dpBJQAkpACSiBpwT+UMA5ODhIHYUBm2SZyPnxPGa3zkrWJI6xtXDWERMstW8b+uLTZxlHboXLfw8WbIzG2H8kYocKOD3XlIASUAJvnEDgqalMGPUrs5cf4kxAjETaPPDKVYj8OTPhndQNFwcDFmuEKPwe/hcOc+DQFW4+CMdon4xkuSpTr+/39KuRjtSudk+u5298kn93gxF+XNs9n95VPmeDbCOYYtTr+e4JuKggP45NzEe7sSGcuCYTLdGYSirg/u5R188pASWgBJTAXyDwhwIuTZq02Nnb43dfat8qDmLVzz6UTOuOa6yTSTRht0+wa3gTOs/w45aLF0lEvNnc8uf6nwm46GAC79zhzu073AsOITTKIPUabrgnSkqyFClI5umBx0vV6pGE+t/g2rELXI3dflLS5cpM6qT2GEIDuOV/m4D7QYQb7bF3TUSSFKlIlSI5KRM5PI8jKojA29fYf/rGo9fTkD6HN+nSJ8Ll2XeG3eLcpatcvnlfXnUU95Z05CvtTTIpUNcS9b9whulblYASeHMELDEQcZv1wzvyg+8Otp2XWjdXMYvKUYkPWjWjbuWS5MvgSWJnGyymKKIeXOXMruXMmTKX9Sdvc8/Gg+QZ85PSpyc/f1iAjB6OL1/PjA+4d+cuAQGBj67PJrB3IZGHXFeTpyZF0sQkcY3DTUSurffk2nrg8bU1SSayZkolIjGGsIDb+N8OIPBBBJE2Yqri4UnylHKNTpmUxE/CgDGE+F/g+rl9HNyzjYlfTuWwkAsnOyXr1qNBswrkT+ZM0uxFyZ7cCRd7643IhMkYRujd29y8FcC9+2FExJgxW01P7CV1NJknyZJ7kTypq4haeS3OIyFGKWEPCLx1E/+A+9wLicRklnuekyuuiZPjmSw5qVMkwdlOHmZadxn1gAD/a+w9dJhLq7vw04oIrljTT3KUo4BPcwZXyii/pCdn0bSk9HSWu4eYzESLycz9e1KbeJf7Dx4QFhlNtEnmY+eCe5LEeCZPRYrkHrg5vYOC+s2dvbolJaAElIASeEME/lDAla9YFQ83N9av2IHJoQnjdkm0La+IIquCsUjh/IW1TPigNWPPmPGoUJMMwcGE7trJ7lcJOInQmY2hPPDbw9aVa1i99nd2nDjJuTu2uHtlJ3fBspStWoNK5YtSLEtyErs8lUoGrnFy7nQmNuvP6NjtV6bLiD7UL+OG+fhali9bK2ksR7hyLxGJsxSkWJVa1PGpQd2SWUkqoksCiQ/HrQNsXTKRit1+ffRCGz4a1ZkevYqRSeb3eBjOzufLH8YxZNY2eclLbrQ9mH28I1Wze/KO1tG/oVNCN6MElMA7S0DElenib3R5fwgrTl3jtsivpLnKU/XTX5jcNCuuIlLiGgGbRuF74BbX7PNSuWRp8hXNRCoxpXqupFkidtFh9wm8Ktfn1VvZsGknO4+f5sxtKW72TEeBPAUoXqkRNSuVpIzcBxK5OT0viG5JKuHCCVTtOe3hFMp9zjc9alAvQxBn169gyarN7D54ldtOKUibpxQVa/hQp051KmRPgdW40dYQxLF53zL5558YsyfuI+CWMgOVh21h+HteZPa0JSZS7kOXD3Now2oWLt/Izv2XuR4sjsq44ZY0E3nKl6BsxbpUr16E/OmSktThhZxRs7hHht7h8rFdbFu2kGWb9rHj9C1CRWAlTi0ZJ4UrUbJSVRpUK0vu9ElEGIvA8t/N6nkTqN1n1itOEzd5vQdjNnWiQYW0JI8K5P6N0xzbuo3Fa7ew/8ghLty4z/1wEZXu6clVrAglqtSmes3iFM4qQs7ZPp45hb6z3xadmBJQAkrgP0vgDwVc9SYfkCNRYg5PnMZOe296/baeDhUzki2J8Ai7wrVdc+hWux9bYyxU6NiFVHcDOLFo4SsFnDlKxNveSQz48ldWHRWntGir3bU8QTVLgMtacG9rJxE/T7yLvkfdTh8zrMnTYvCXBVwJavqkxCbsKkf3niHAaN1WDGazAYNsx1Yih8lylpaahFH82iI7ro9bGaiA+8+ezLowJfBfJ2BNW/df1oW632zlmF+wRJryUrhKG4Ys6El5DxskSBTnsEgEKEoutGaRbPZ2cn2Mo51ARMBlTv72KZ/9spPjt4IIjZYUzNjrszzYMlijRbbY2TmQLH8NanzYlQEdK5LaxvK0tcyLAq5IQyqlDcLp9im2HbmH0Xq9t0bHrO0N5Bptb+9Futy16DphLK1yQxLHvybgsiQJ4tyG6fiOGc2ojQFPty8P4qyzsrZRsLWXe4rMOUebEXzVti6NCj7viGy4u4cVk8YwYdpytt4wyjZkzWaztRrg6T3JJSn2Gevz7agvaFAkDemCXl/ANSzvRtTOBSwcPZJvV1+P3b5J7lNWphbLoznK8bBmuiQr/xGdurSgY60cJBeuOpSAElACSkAJvIrAHwu4Tp0oldGTqxOGMO26C6X6LmJwy5KUzuiO0f8AR5YOpVb3xQRZKtJ1aH3S3zzI1p+ns+Lx3p6tgTMGEnJhK6M69GXOsUtcDhOntDhnZYuDmxdZitWi06ARfFjAmURONnI7fjEC506SJHZYYiS1MiQCSSx6adg6ZyFdvq5MWdCJoqmccbM+blYBp98GJaAE4iWBaCLunmD/yJp0nHaPc7cltTFdVco3+YgZP9QirQSX/q4nidH/CCfWTuCTgQs4fCOYEHGxlOdqcQ471ySkyFORis36MLRTMVJI1C82kveigHNLiod9NAZJcQwKk7m+NOxxSJ2X9F3GMb9LPnJ5RnHmL0Tg0t5bz9wpExk2eS3nja6k9/mMHo0KkjulG8br+9i3bg6/zDhEkOzXMWV92n/Zk05typMrto+C9MnjIltGfcfkWWtZdfIeQXHfkETJyeock5Kh3jcM+KgO9dNeY/v88a8Vgaub+RJ7Z0wS8beYk6E2sXPs3LAoBb0T4ST3xMBz21n98wjmXZZnos5pKNK4B+06daRdocTx8gzVSSsBJaAElMD/h8AfCLjMNPikFz7F4e7MHny6yg7PqkP58dv3qV8sBZZTK/h9Qm+ajb2OOdNHfD+sPJkllXHpgEnMjUPAhfsf49jCr+ny9e+cDTVChmIULFmWaoUllSe2qC4Mv90rWbvtCEeuhOGcKjc5W/3M1I+LkSOZE46GFwWcdScpSF+gGCUqF6dIFk9JmgnDf+9KFm8+xgm/B/J3N5KkKkb/pUv4II87Ka1Fbirg/j9nlu5FCSiBN0wggjARSb9/XY1Plhu5dE82X7gR1Tp8wdKOhayVuk+jYX9lz2ZxU9y6kPnf/8C3m25I+iE4py9KkbKS0l4oC2mdrdEguT7vWsm6Lcc4fe0B0a5epC5YlwG/DMMnuyvJnOUa/qKAk0/ZJM1CjkKlqFKmEDmTS55kxA0Or/+NLQcvc+5u7I5wzNGXJUvfp7S3E8aLBzhzcCvb9xxgwU9LOC1viSQD+StWovJ7RcmZzJ20JepQMj3cXjWQceNnMWFjOA7JitF2wmg6V8pA5sRSdRZ0kiOrpjOwxQg2xW4jFfU//Z6uPdtQOY1Vv0UTdXYGX37xE/M3nuJmuNRgJ8tB2aaNqZDZFXfHKIKvHuPQzh2s2naBUCvPlOXpNqA/HWrlJPH9U6zYtJvr2wcxa0sksaXSGQuTvfx79CqeTn7JQxmfXLhdGcdvEmH8bvY1YqTOu+TnC/i+VSlKZHDHzhRO2PUjHJs5gA6jd3H+bjjO+ZtQt11vvu9elLR/5Rjqe5WAElACSiBBEfgDAVeKpl99yoe1bQhf1oeGw+QRYcpmfDWmD61rpsZ212xmf/ExAw7Kw8m6Ixn7RX68Ny1g5tcTmP2SgHPD/9BaFnzchr67QyU1x4uCjTvRon1zmpXKIMJKUkmkVN1vz2wmDxNntaUH8HNKLTf2Tsya051KWZKQ1O5lAeeRrQ71mrWgbfOKFM6cBFfZxq090xjxzRTmbjiO1aYkUUpvesw+RsdiiRD/FRVwCer01sUqgf8SgWCC/XYwv0kDBh03clWMfyndjBpd+7L6H/Qes9w/yEbfSfT/cjK7w0SIOeeg/IftaN6iLjXlAVsaJ2tCYhhX9qxmwZSxzF27l0M3LTiLOCvZfx7DG2clTwon7F4ScEnIVLkpDVu2pG3NAmRPJrXIkTc59NsABk9excK9t2UBaXBwelhfXCmzmHlYD9druVCGc2X7PLbuPMSBG2Ks5ZGXOj0aki+Zw8NMC4s/V7Ys4qfKPZkqv1oFWK2PRtKlRy/eyyQpktFBXJ7TnvYjtrDlxH2ckuUid6W2DOjfkfKZXHATARdybQ9bFs1j9NjN+CfLQNp0WanVrA3VyxWOLSN4HRdKv9+/YuL4MQxZGirpnE5kr92VRuWLUzR/ZjHO8sLL1Qb3u7sZO0fEoLiERnvkJHuxctSvm0fI6FACSkAJKAElEDeBPxVwXZp7Y79tDLW6zBA751w0HT6SzvVTY795BoPbD2eZbDfLJwv4qV16Ei0Wa+u4BFxeI+fWz+PH9z7FV94fST5qtmlO3XrFyOb+jHGI+EvumTCLpfM3shd3ubEXl7qB6TQtmpr0ri8LuNyth9OnUwtaF3/aKNwQc4iFbb9m/Ox1sU9eVcDpqa8ElMB/g8ADHlzcwrSyTRh518gNa974GxBwESflwduU0XT5eUdsrRvZezJsZEeaV8mO1wv9vq+s7MvIcdMYs9YfxP2SasNZPKQWVbImxe0lAVeYRl/0pUvXulR8JpwUc2wGn/8wgVHz9/4DAffsERVBJhG1SGliHi4/oaGSAhooEb4d6/jtk7GstmrC5wRcFKaoy6z7pDr9F1/joCzFq6gPdT/5hXHvS2jvyQjgxgkpC1iwn1tZS1KoSD7ypvMkqctDKK8j4AJ2jWPqhHEMnH1KHi8+HO6pCpCnuBh1Fc9LvowZyJRKDGHENTlFymQkcZfG6/Z/NxH2v3GW6yqUgBJQAkrgzwn8qYDr0SkPKY750qPuALZJUUSOnpOkP09ynA/PpkP/xQSKC1qLsVvoXTcRETNHPxRwjzXZ4xq4LPc5tnImXzUbHNvXRxIoX2vYOzrTw1eiZxUzkz3JywKuxufT6N6mCbWyWZOHHg4Dx1nR+gvGzVzDWvldBdxrodY3KQEl8K4TsIQRcmMfi7vVZMBWI+JhAqWaUqPL16xsnutv17/d3DKIaeOH02+BbNBGxEnbX1nYswYN8jxv+GHFE3NqHkN/mkC/KVvFNlLqtDx7MnlNR3wKSXuBlwRcPboN+Yiu3cqR82HvmYfX6DNz+XTQOIbPEcH4tyNw8lGLiZho6TsaGSLC7TaXT53l/OkTnDwurpR7jnL0uDhePnNMn0bgQqU/3n4mVWjJmOM3OSONS/NUbU7nobPpWuD1zUNeR8AZrm1m5dTJfDd8CUciosQg5cVm6w7Y2KShRL0m1Hu/FpVLSATOS1ravMJN9F0/RXV+SkAJKAEl8P8h8OcC7uOSZLi6krHV2zMhUJqq1viGtsWMpPFbzICpN6UUvByDVoymWfkYbv46igkDRMBZq8at4y0LuMbf/UbnVlKz4P3MPwcq4P4/Z47uRQkogf8zgSjphXmIVX0q8tU6I5etdVc5fajUqg/zPisXm374ChPKP5zn1U1fioAbxreLRLyIOyRdZ7GwcxUa5Ez68ucuLGPoqHF8Of53+ZsIOBsRcLtEwBWLS8C14eNfuoiAK0KmZyb2pgScIdyPU9vXsXD2IuZvOEJAjLRBsP6I2+XDn+eNWJ4TcGEi4AqIgLskAk6Wnb96M7oNm037vK9/SF9HwEmoj3vnd0gUbyzDRy/lsNxDo55zh7GCsZFsE2ecnFOQrUoLmrVtRa/q1l5yOpSAElACSkAJxE3gDwRcbdp+25Oen5Qn3e3dbOhbgV4r4aZ9JQrlCCWRCKXN+13BuzNTFnWjdm5bbi34kV+H/cjoI38m4EpRt30DfHzykV7q3141rDbQ3nlKkCaJs/QJejkC98HAubECrvwz6TlvLAJ32pcvB09gyOydMj3tA6dfICWgBP5tAmai7l/m7NTmNP3pBKdvSFKeixg41ezMjxNbUVrqsl7VRuCPZn59648i4EbSf77Eq6wRuPZTWSj92xrkTvbSx0ynF8RG4PpO3izvFQGXSATcehFwheMScO34eHRnunUvQsZne2y+gQicQfqQHps3Al/fxczbewv/u2GS2ZGIlDnykrNQHulZl5ykQX4cGjo9NhPj+RTKRxG4MiLgToqAE/fJPFWa0OmHmXQr8kLO6B+Aey0BJ583RQYRdOcyly5KhPDwYXYe3MO+PSc5f1mcL5/bvh3OnvkpVac1vfp2o1amvyfI/+2zVPevBJSAElACb5/AHwi4pnQe3JWPPi1D+nunODdbUjyGnONKgDuJEhmlb00w94xSZl3jRzYMq0mpdAYuLRnKtJGDGWHVPNbxOAKXM4wza3wZ3OAbFsjLkdK7qPGX/aQ2oj7l08TdePbFpb/cRgDejICrTYcfetP9o4rkdX6617tbBjNg5AzGrTynAu7tn4e6ByWgBF6DgDniLmH7R/Jhx2lsOXdbBEByvAvVptkPA/mmYqpX1k+FXNjCrpN3uGNORvYcWcmcIQ1JpD2LjTw/e3BoNtMn/cLHkw48rIEr9hW//NCKpuUykfSFy7P/Brm+j53KyGUXxexEBF7JQcwb04BqOZKR6KUUyrco4Pw3Mua775k0fwvH77vj7J6XGh2bUi6/9CnNlBrvNBaMJ7Ywz6cP44Xr8yYmkdIA/BzzW9Zm6ObrHJeomHcJ6RH3xVhG1En93FEIvXWWi/vXsDdC2hzkyEzGjClJ5i6uyPKu1xVwDzdordMLJ+TmNS5dvcwVifzduHGb27eln+qFfWzeco5boVEiQt3IXPZ9Wg78hX5lXaWX3WucFPoWJaAElIASSHAE/kDAfUi3oZ3p9ZmkUD7w48GWgbzXfSFHbwQhJQOxwz6FOJT1ns/qtjnFIjqak68ScPlEfu1cxPT2XRl2SQypTa7kqtGJJm3a8GG17KRLZP0vQVy/rp/m+ImLXJB9RNu5YpMkLxUrZxWnLgecXuoD9zcF3N1j7F0+lQ/a/xLrUmkiK1W79qZD9yb45EiMo0Wect8+ydoJAxg7byMbzloLTTQCl+C+GbpgJfAuEjBFYAg8zM9duzJ500lO3jfhnDIbOWp04es21SmYKz1eiZ1wklCcxSwNoyMfcOfKSXaIwdTCHX5cMyWXCFUxcpWuS7PKGUnhao/l6jaWz5wgxiJzuRQpisGtFA0/FpfgD6pQNnNKPB2sICIJOHeIddOHMH3xRjadi8YhSXqyfTyLSW3yUyi1Cw5vTcAVok73XvTq14IKj8ryDCem0fXLMUxbdZhIp/Qky9VartefUyWdE0mkWwExIpQ2zWd4jU+ZJb+Gyc/TFEpJrTTe49DPTek1eT+7LoTi6l2EIvV6MfzTBuRO5RjLLybYnzPSXmHu+J9ZHl6QvLmzU6hqLSoWl/V6ub4s4KyNyzv1Y0O7fI/OnAfcPH6I06dEsEkPOBs7N7KXrUHuNG4kcjQQHRHCg1vn8Tu9kSkDh7PqhJimyETTl6zLB/2nMrhqEhVw7+J3UOekBJSAEngHCLyWgMsccQfTmTl0qD+Y1X7yFPehfCOxdz7qj17DtxWS4O0R9moBV8CDoIub2TGuA50m3OJ2hBmTa04KVvKhaYsalPF2lNqNYK7vWczcub+zbt9VohJnwatyfyaP9qF4KrnhvSkBF36JM9KHaMAH/VghqTPW1Bqvkg2p2aARjUunx0P+6Qk+toApY5ay5dQ1rK2KVMC9A2eqTkEJKIEnBE4v6MjQ8atZvuc2DyKlhsolNblrNqdR7VIUzJCExCIQLFJ/FXX/Cie2zmfOvD0cv35fhIw0z06Rh4zvD8L3mwrkSuaMY4REoVb7Mum7IUw+EYTV3NItZzWq1q9HvYr5yeJqbSMQxKmVU5i9cAd7zwUQ6ZiE5Nkq8rFE41oWdH/Yy/OtCbhMlGrYlA/a1KZoClFnqbKQN2A+n3wzPlbAGRNnI0XpHviOa00xLxfcbYyE3TzE3iXT6f/RZPbLeqzGWTV6johtI+CTWeZqMhJ+4Be6fjWJpTsuEBydCM/URan72ce8n8+DxBKdjLxxiP2rFzF52mZp+S3mI3aJKdimPz3bN6NV0eQi4K5yfFIh2o65z4lrUkiXpSxFarfil8Z55N3StiariQsLfmLmhN+YfSwKgzTq9hk0hz7181HI2wVHW5mHOZLo0Ass6F2H4auvcOSuG7kqvE+n70fTvaiLCjj9zisBJaAElECcBF4t4AyPInCfliSzJVSeWB7hl0LNmXjmKmdji7BTkTprbbH5n0R9b0jqEMyppcOYOvIHRljNxazjcQplAbH5D/YjcPdUWrf6hR13gwkyW4jb70t6wtm44ZWzHC1H+PJJGTexbbaRfyDeUA2c+JJd27OUKY178LO/iDVT3GeGjZ0dNlK3YTGZJEqnETj9/igBJfDuEDBwkjU/D2firytZfTqQaNNruCdKTbGtnRcZ89el+4QxtBad4REbXYMgv13sWDCUHn1XczPajPGZmrUXV22QOjmXTCXI3/J7fD8rRWpHW5GFMt6YgLvK9b0L6FP1U9bLvSbo2aV5SsFz99nsL3uS9WOmMWXlQS6bPHBPWoI2Pw2nU/nUpHO4yWERpNPGTGL6kfsSiXy4gYqdh8YKuEY5rbM1xzoWL/uiD2N/28am6xKt/EOEskav2nQZ9BntGpYkr4eIwuAbnJtalZY/XeLo1We9la0JllX4et5g6nkd4uCc8Xz76wFume2w5GnD11+05YOyWcngYYspIpCgM8v4sdf3LD11l1vOJanQqAMDh7ageBLrfU+HElACSkAJKIGXCbxawCUSATdIUii7WwWcEUvMDTZ8VYVv5l1i7zXZkGMuMhTpxLRNPbDWfbsazFzZOJhZY/rR39oc7kUBJ5Gt6KCbnFj0HV8NW8HOCwGxdQkvDzdS5q1Czfa9Gd6+NInkSaj1QeWbE3AmseI+yn7fL+n6wzauBFvrDl4emevVJ9uNG4Ts38cOFXD63VECSuCdImAk4sFlDqyazoxJU5m6PeDPZ+eZkyI1mtClcysaFE2Hu4g3aw2cdZhjIrl/9Ri7Jn9G3ykHOHcv/Emq/Isb9shRhYpNu9K3a03yeTrGGqfEbuZNCThzMIHS7+63DvX44SD4W/MfH4/HAq5NSmLWjWD0lIXMORCMja0jbp5J8XC2xU4euUVFmIgWu0fHRDHcunkfk8lM7qbf0LFbT3qUim0XLkOicOfXs0AabU+cvZ49D9Mt4hhWQZaDDwYNodsHJSmW0QMHadVmEfEVtv0HGvWaw7YztyTJ9PF4KuCaV86A06nlLJsynO9nHiXQwR2PxG64OdljJ/At0grBbAwn6N4DwqPTUbxpT9r3akeTQm44aju4P2z7Z0AAACAASURBVD+n9R1KQAkogQRK4NUCrkBPPv9CitAb55UyeWskKpzzM5rS7eftbDwu3llpSpClQT/W/FQTq4u/9UHu9e2DmTP+a76Y+4jmsxE4eclikmarAec4cXA72zZsY9feoxy/cp0Lt6x36KR4585B3mKVqVCxKjUq5CFPWvcnh+XNCTjJnokKIejGcXYsX8SydVvYc+gCfgExWNxTk0kczAqXqEWtGskJ/20OyyctZKkKuAT69dBlK4F3mYCRkDvXuHLmCEeOHuLIziMcPCl90CTN/Z4YYtg6OOOWIgNps2ShUJ7C5CtSiAIFc5M7UzpJeXzZPMoUFU7w9eMcP7KbXVsPsOeA9FK7eAW/QHnE5ZGSbLnks/nLU7Z0GcpLv7IcGZLi/GyI6E0JOBFg0aH+3JIo3NQZK1m354g4bt4nys6TVLnLkatlX35qlIWUxrMc2ryW5UvXS9r9Cc7eDJbUfDF1yZKfwsXLUipvGnKEb2HgoEWcDArHJm8LGnXqRv9uJUj/OMJoDOTW5VMc2b2NrRs3se3ASY6IO2SEMQa3ZClJkzUfufOVplQpWXepfGRPkwgPeagYO6R5uFlcQdfMnc6qVb+z+dA5zgZGY+fpTc68PnTo24XaRTOROiaAW+cPsn/nZrZsO8ihk4c5e+MBgfIE017aByTNmJ0ceUpRvHg5ypYtTiGpY0wlBs86lIASUAJKQAm8isATARcjtRJ+p3ZLofvVh+9NW5xSxfJSLGvSWMctyUMh5Owa1uy5xOXbYl+dOC2eecvRtKQ31k4A1ltayPXdnDq8TWrHHu2uQE1qFshCvpQuz+3fEnmL6+cvcOH8Fa4G3OPWA6stijtJvSX9JUtusmVMR4bkj3J7nnwymLunj3Nk+Q7koWzsyFm2DgXz5sT7qc6TVwO4sGoLh07IPOU3Rxd3CtdpRwEvx9gnzo+HtcA/wv80x46f4sLlW9wNFpcw5ySkkH1nylaQXN4xBO3fy2Gxez6DuIHZFMGnXX4yeDrzjFmlnllKQAkogX+VgDk6nIjAa1w+68ela5J+eDeIkMgYMc0Q8ycPsdP3SkVG70ykT5+KpIml9uoPZysP6yJucvXcFS5c9MPv9h0CQqUqzjkxXmnT4p0hF1nTeZHWMzZp8vkR5o/fmcPM3XD80ev5KFa1IAULpbJ2jHs67p1m865D7Dt1XV5zk7TOh9fW9FbzlScXaNlnVABnDhzklIjIG4FhREtqfeLUWUiboxAlsiSRaJuZ0Nt+XDl9kqPnr3HzfgRmRw9Zb3oyZclO1rSJSBF2kuUrDnIjQhp+u2UlS4GClCudUR5KPjuiCQu8ybUz0prhogjiOyEYpeO2k7vUxcm20qbPSvZs8hkXSaOMIyoWdO04F06d4dRlf24KK1tXT9Kky0ZuEcsZUojgkwwVc3QEkYGXOXda7kvXrnBT1hMqITtbewfcU6QmtXc2smbNRNrkHrjZa+Lkv/qF0p0rASWgBOIBgScCLh7MVaeoBJSAElACSkAJKAEloASUgBJI0ARUwCXow6+LVwJKQAkoASWgBJSAElACSiA+EVABF5+Ols5VCSgBJaAElIASUAJKQAkogQRNQAVcgj78ungloASUgBJQAkpACSgBJaAE4hMBFXDx6WjpXJWAElACSkAJKAEloASUgBJI0ARUwCXow6+LVwJKQAkoASWgBJSAElACSiA+EVABF5+Ols5VCSgBJaAElIASUAJKQAkogQRNQAVcgj78ungloASUgBJQAkpACSgBJaAE4hMBFXDx6WjpXJWAElACSkAJKAEloASUgBJI0ARUwCXow6+LVwJKQAkoASWgBJSAElACSiA+EVABF5+Ols5VCSgBJaAElIASUAJKQAkogQRNQAVcgj78ungloASUgBJQAkpACSgBJaAE4hMBFXDx6WjpXJWAElACSkAJKAEloASUgBJI0ARUwCXow6+LVwJKQAkoASWgBJSAElACSiA+EVABF5+Ols5VCSgBJaAElIASUAJKQAkogQRNQAVcgj78ungloASUgBJQAkpACSgBJaAE4hMBFXDx6WjpXJWAElACSkAJKAEloASUgBJI0ARUwCXow6+LVwJKQAkoASWgBJSAElACSiA+EVABF5+Ols5VCSgBJaAElIASUAJKQAkogQRNQAVcgj78ungloASUgBJQAkpACSgBJaAE4hMBFXDx6WjpXJWAElACSkAJKAEloASUgBJI0ARUwCXow6+LVwJKQAkoASWgBJSAElACSiA+EVABF5+Ols5VCSgBJaAElIASUAJKQAkogQRNQAVcgj78ungloASUgBJQAkpACSgBJaAE4hMBFXDx6WjpXJWAElACSkAJKAEloASUgBJI0ARUwCXow6+LVwJKQAkoASWgBJSAElACSiA+EVABF5+Ols5VCSgBJaAElIASUAJKQAkogQRNQAVcgj78ungloASUgBJQAkpACSgBJaAE4hMBFXDx6WjpXJWAElACSkAJKAEloASUgBJI0ARUwCXow6+LVwJKQAkoASWgBJSAElACSiA+EVABF5+Ols5VCSgBJaAElIASUAJKQAkogQRNQAVcgj78ungloASUgBJQAkpACSgBJaAE4hMBFXDx6WjpXJWAElACSkAJKAEloASUgBJI0ARUwCXow6+LVwJKQAkoASWgBJSAElACSiA+EVABF5+Ols5VCSgBJaAElIASUAJKQAkogQRNQAVcgj78ungloASUgBJQAkpACSgBJaAE4hOBVwq4B1fM3Au2EPZoNQYDuHkZSJnIBhf7t79Ec7SFyPtmohPZxu7P3uYt7TPGzH1ZpFkWmNRDFvlPhtlCRJCFgFsWnLxtSeLyB/M2Wrh3z0JgOKTNbIOT7Pev7D3Q34yTzNfJ1cDbQvNPUOhnlYASUAJKQAkoASWgBJSAEnjzBF4WcBYwmWFB3TAmrItm56N92thBpe8d+aaRA8VFnNj8FbXxN+YdesPEkRkh+Nf3oGRGG9JaFc7bGAERTNtuItLBni61Hf/ZHkKMHFocxfCvLOTydadNEQNp3F6xSb9IJk2MZuIuWyZudSWfxYLDa+5d3srkT8PJU9+BfKXteNUuXnNz+jYloASUgBJQAkpACSgBJaAE4gmB5wRc9H0TNzeH03oE5K7pSLVytmRN/nAl5hhY3SGc9ekN1GjnSMdq9ri/rUUGxnBsYwSN+pj4aIEHdfO/PQG3d2wYo25YSF7KgdG1X1dCvWLhf0XASYTx/n0LDyLAK70NVun4Opo4MtDM2flhdNpnoHM7JxqpgHtbZ6FuVwkoASWgBJSAElACSkAJvHMEngq4KBM3DkQx9YtoLlQUYdDAnlI5bEj6KPJlkajc5QVhjPzVRGheO+p2dKB+dgnLvY0REM3+VRGU7WpmyAYPGhV6ewJu86BQfrxrIU0VRyb/PwXc3+QWEWDi6MQQWp635ZOOzjRXAfc3SerHlIASUAJKQAkoASWgBJRA/CPwRMCFXTWya2UkX0w38MlEV6rktCH5i2mLodEsn2rkjqstuaqKwEtn+2TFZxeL6Dph4tKTVwz4tHMgWxoDrtbXosyEXo1m/GKoWNmGy5fNnD4tuYAy7BwMFG/gQKF0BlwexHBkmwjJuTFMXWmhaiuJBDawo3oRW3ImNxAVHMO59SY2XoTgqEc7S2bAs6gtXQrbYftMQZg1WuV30MiS/WCUCKJ1pM1lR9EKsi1XEwfHxzBvlZGVEgXzyGRHu0r21GlrTypMXN8Zw+6jFs7dffg5aw1gsQaOFM5kIJnzKw70cxE4D0mh5NUplLLOgwfNHLgmnFrbk1I2aRsukcfNJvYetOD/DMfKje3Jl0OioNclrXRNDL7zolh8z4ZSst73JaW1XHk70r9qTvHvnNQZKwEloASUgBJQAkpACSgBJfAKAk8E3I29ImQWRDDK3p6lnzmTOYmBuLxKbvpH4+gokTlPEW/WYqxIE8d2WFg6zcipG2ZikttgjoagyyaKtXfCp649BSTt0iUoBv+d4eRrDg26yXuMBgKsai/CQqi/ieQ+LnRvbUcuokVIRjFypomtRyBPWTsqtbSncRVb8rmIoNpvZMYiE7eCbYk2yeetJiRYCE5nx8iPHSmU2hZXBzMhYvJxal8Ma7caOXzDFlt5ryHaTKIUtrJNe6pXtHBhQBS+e81sM4KzvF6vnNTBDbLH6XgkS5ebOHzWQHCkKDeTBUOICftSzrR4354yOQ14xBV8/AsCznAlkgkTRNBKDdzkba7kj4zh0sZI1q+2cOCSgXCr6hW8Vo55OzpSr46ks4aa2D0rmrFLY9gXYiBbJlsatpC/yZxyvbV8Vv3uKAEloASUgBJQAkpACSgBJfCuEHgi4M6vMbJqbiQH6zgwSurfkrn8eUWWRaJqUZfC+KiFmX1F7GjR1pE+xe0wBkud1rwwug22UOoTZ1q1syenCJSHAk5yMSvaMaCXE63K2WG4GcPhWWG0GmKg6yxX3q9pS7rAl1MovR1iuLA1it8mxDChjBObmkt0z1PmGCbGIUuiGDXATMBXjoyu60i2JDEcXRTF7HlmNua0Z9HXzqSRaKJDsJGtvkbWbLAhx3cuNM4RxZ7BUZJCaSMplA6SQmmHKdLIsi5iRJJColv1HeldQpRahBnTmQh8PjFTtpMzDd+zI1tsWPGF8XcF3FYXCtwI49uWMTwo4MR7HzlRM4MFi4jOM/NCGXzaQP6yDnSs7oDdHVnb4xRKmUvz0va4WYW0DiWgBJSAElACSkAJKAEloAT+8wSeCLgjk40sGBnJ1UGvL+Ai7kr0bXIIH562pWd7Z1pKtOyxE7+1Zm5aqRD2FbShZCdHWmXkiYDrNMmNljXtyG61T5Tau9DzEfSuFkOyL92o/74dxWzjEHBGIzt8JbVyjOi/tR7UTmUhcWyIMIbr+6KY/0sMX2V3YFd7SXN0MrJ8lJF1O22pNNON2l7i8PgotdI6L7P8GGwtkm5pZNPA5wVctAjCyfmiONDIHh9J36yf61GaqGikGGsUT7ZjIz9xytu/K+C2iIA7Fkq9riY8qzjRrbcTJZI8FGXW+UoAMDaF05oe+lwNnAq4//wXVBeoBJSAElACSkAJKAEloASeJfBEwB0WAbdwhAi4719fwAXfNLHh6xD6JLdnYHNHmuW3e64n2b4fQxgqtWoZKjnSv7oNYY9SKPstcqWR1KGltooqo4mwCyLgqsTg+cVDAVfcLg4TE3vpSSd94e4FgHsWWxIFRzJnUAzLtpk5Ey5ujpIGefNDB/ZJumH221GM/SWa3/3t+X6FC4XtLLyc8ShpkYYXBZwDJokq7v4+lAHrLVxOKSmKzRz4uokjiV4nyvV3Bdw2EXARkUyuZ2TxcRFsNeyo18Gej0q+nMSqAk6/wEpACSgBJaAElIASUAJKIOESeCLgziw1smJGJMdavL6ACxJTjTWfhDCzuAMf+ThSXYTVs+PEtBC+3mvBq6Qjg+vZEhkr4Ax8t8yV+uVsxCzkLwg4JxP3zsewZ6mJeSJyDJKSecpiIE92GwpKzdu+rWbmlXdgTwdHslyVGrqF0WyNsWfGTy54i/h6udl13ALOGvG6f14+u0xq1NZLKmiIDcVz2OJoDblVsaNHJTFBiVWecYy/K+C2Sw2c5Ev6b4pi/YJoVop5ykUxiink9XA/pT5wpFIpW0kN1Qhcwv2q6sqVgBJQAkpACSgBJaAElIDoILPZHJurd22nmJgsjGBmKgd8OzuRPpGB5+XYQ1yBZ6PZe81MRGJbSqUysEUE3JQiDnwstWe1ssYh4E5BuhKODKtiw4N/IOC8ox+am/w82kREIUcyiaGJYwFbKpeEnHejWSAplF9ke5hCGSvg5kazxWjPtHEuZPgLAu7xSRFx2cjv283sOmXBHGkhXH7/zWhLe0mrbFPZjhxi1vLS+EcCztrIW/rwHY5h704ze69b0yfF1XNzDOGZHKjWzJFG1W3xFDMVrYHTr64SUAIPCUQTeucC5/ZtZEsSHz7I50Ua97/SzzKSO6d2cPl2GOEZqlEx4//Pzjb8zgkuHlnNGjGrejKSZSdr/iLUKJyG/99M/p1zKTzgJJdO72BtUHmaVspEKleHOO+5/87sdK9KQAkogf8vgZDrEpg5YmL/dQMVmjiQWcz5nOMSIjKtqFvin3HYxIm7BkrXlmw1MWK8Lv+XZ8xoSxbPVwRZ/r/Leet7eyLgHpwzsnFpBJ9vsmH0aFdKZbAh0YsZfFKvtn1cBFPE/t9WGl8PrGbHgf4h9BJLxm9bOtGsgN1zqYo7vw3h52iDtBxwZEABw6MauL8XgfO6KQYmc6P4Zr0NExe5UzKxBTfrgY2J4aK0Hfh1WAzDZU67JQKX81YUIySFcpW/OFMud6WYw+unUMZF3BRq5sH+CLp9K/V2xe1pKydW24Jx2FD+YwH37N6tJiaSSvqrGLSMNuNa1Ynmn0ttnI2amLz1b4XuQAnEGwJh+B9ZzqLhvfki62zWtS1Oae/Xt6Q1GB5wxLcfaw/d5m7V8fxYPenbX7nxHtfPXeLY4Y3sP7WG/cefzjfSPQVpsxemXsVKFCuek+SOYP/nflpvf85vYQ8Bx2axel5/Ol4ZzJYR71EolRuyXB1KQAkogQRJ4N6xKJZNjWToIgO1Z7vSq7AN3m5x3wD8lkQwfmYUa0z2DJ/ggv2iCE6lt6VIIfHRSPsK1fcfo/q0kXeE2NhvE3AdTLh/60qzqrbk9jLg+JiDxOlCj4cx/PMYzqQSa//uDnyY0YbTs0JpvceGZh860ULcJdM4GWKNN4wieiZWDuNMSVvKdXKgSdrHJiZ/T8B5XojEV5wyR1yxY9UoV7ylJs7BYCH6jpGdv0UxYKCFHZ3s2d3NiaIxRsaNMTL7sA0dxrjSJKsBp1jjEQvGEAgPsWBKLL3jXIxsGfSsiYmDdEaQtgY35X3iwuksJ46LVcTK2i3SrmDXyFAGRdtSQWr6Pi/1hgWc1N49CJRUT+HnLk4w0qkhdpgjI5n1gRG/tGLO8qkTlVxVwP3HvoO6HCXwDwjENwEnzsVXVjBt2HRmnXEnaaevWf5B9ifr99/zI3N/ncmUfaXp7DuSJlmcSCYX7/+ihlMB9w9Oe/2oElAC/z0CYdEcFlf57z4zsfIDO7Z+7Exxb5uXMxOiLSzpEcHU7TEYWzkw5zMnpMIojlKp/x6iZ1f0VMCJSIkSi/oLi0Px+cFAlc9d6dBI6r1iC9XEWENMQqaXCGaMq/ytmwiY9x1IJnaO5hvh9PYxsTq/LS3EQKS/9FKLCjJzYmoIHX4yUKOfM+2kOXbmkMdtBP6egEt7RyJworb7+BroPUuaZOe2kNwlmlNLo5j+UwyjDhmIqWHL+qEulElv4sIyeX2OiaVp7Fn3gwvpJB/HwRDNoYnSJmCKmTv9HBhSzcLBH43PtRGIDjcyvbiRI/XtqSGtCnyyi4KV/nHmW+F8VsOEpYULPi3sqeAdx4nxdyNwVhfKE2E0+dhEkopOdBK+RSXCaG0jELghhHb9pY7wPSd69XUk3V0VcP/tr6SuTgn8FQLxScBZ647vse3Hloy8lgWPsl0YXzeHPCR7mu5iMQVyaYcvc8f8xPfOQ1g/uDpF0nggXWD+c0MF3H/ukOqClIAS+CcERIdc2xfN/AFhfL3NlonSI/k9icIle3GbZ8L56BvJUBOfi/YDXGiT7xXO8P9kLvHgs08FnEzWIqo2KtAkOaiRLJls4ZCfgQePyynkEWj6MjbUrmZPaXGbTJtUauSs1XPSTdtP6tyWDItk+zFpsJ1ImnRLdCw8PXRp4ESVknZ4p5CI0pNG3q8h4JJZuHkimomfhLMy1BaDuDL2kB5tVQ3m2F51g9bbktJFUmtszSTPY0P2DAYSyfsHbLBl+u+u1Mgv0bNAM5eOxPD7ykgW7LdFyslEnUsj7/Q2FKlsTysRaBkSSxu53ZI2OtHEkgNQXnrYdRwqTcyvRfK7pGRuOgdXrf3wrGWCJtlXRXs6iCNl2dy2eMRVZvJIwPXvZOJkFjuSSpsEh5ciuTb0GeNEBU+p2xtvfNrIO0zq3bZEMGGJmU3HJQonAT5rNDDmgZkiLZxpIG0NymQz4BBpJvxMGD06isFKpA35xeDk/ZZicpJOe8HFg++bTlEJvGECrxZw0fcvcX3beLqP3c8DebJpHV6FqlHlw950LuoR+/vTFMorXM7TkXrnhzBuH9wLlz9mrCC1BR/wddP8sS68BsNFtn07lksGedaZJQshY8awQN4WY91Q2ZY0blCXj4p5vXp98hTQcHER7XqvJKxADZp0akzddC8mDZoIuX4Rv+NHuJqlMiXTJyaRXERtiCDg9GY2Tfk+dn6SEPFw5K1K8YZtGFlVbjjW9VxewzBJqb955yS5YlYzfa08uSvelYGd0mO/ahmXrkdCubLEDB4SO3dJyICi9anWoAY9U19nWauBsa8/kJ9CtdvSsEV7eVj3zLX1xg585y5i3GKZxJNREJ+uralft8jD1jiPhuHBAVaM82XRqn3IrUT6wMhaZS4DOlakbNakhMSVQhl2kRO/r2DK2C3sl/eO7lGKPCndpD5ahxJQAkrgv0/A6B/DsWVhlOsF3aUNWJtqtuSU/9WfHZcl0PTVT+Jgn8ORvj87U1D+t989Opx9GWwpIWVOZSSV0jpi5HK/vGUYCyWrzs/6QkqDuOLbMrq7E4msl+RrUUybE83OO3a0+dqJkp6Pong3ovCdJ072V2wlgOIc+7qdSIGbuyJZeM7MeclCHF3j378qPyfgYldsvVeJw+ORzTLJmxD0+GYkk09d3IbCUiCYQqJwLw4/Mds4ddHMDesfrNmFaQ1UL2aHl6QDxiYbGkXU3Y5m0SYDRarbkUEMUGKL1KXJWUxwDLtXiymJCMMMmWxIIeIsKtjCVVHi+8TMIyK9fCanLXnl5njnUgxyP3wyEot4S+9tIJm0GNh80kCZunakSyYpk9ZdSkNx/9MxbBaBae3hZh3uMq8s+Wwp/NhJ8oE4Wx6SiOEl8BBRWrS6Pd7OJq7+bubUVQu3Hu9JlpymmHzOOr841h/7NonU3b1i4sBWSyyHuCWVgVLSCDyju5krp8ycvm2grI+IPXm/jcxl72Ezx6X1wrMjj/TXyy77TWJN57SKSUl33SO8LsvB8RDjmFxi5pLRejbqUAJKIIERiFvABV/ZzP61s5ghbrqOZcqQ09MBj2g/rl+8wbWQtJTq9imN87ri4RgcWwM3Z/4yttpVpHmNsrF1WDZh5zmw6yJ37HJS98sv+DC3q/S/PMaylp+zZG8YIaVrUy23JzZWHei/i5mH7pM0f22+7NyOV2k4S3Q4Ydu+o8EUB/JUe4+PmpcgvdQnvzhMUZEYw0RBeno+nIuIt5uHV7B+8waW3vGiZqa00hNTLsjhlzh67CrXojPRsPdnsetxOjuLLj9vYMWNGMqUy0HlZCLs0halctFIzg76kSWLznGjbCPq5E8eO/fwC2tYfvoBV43pqZUtK7nSJ8cgJXkRl9dz5Hpi7HI0onvP6uT1EAEr4m3atC3sluL5xFnSku2RWLuxc4a0silP3trNadMyJ16mKAzXtzNiymwuP0hBijTZ8JJHyGapab5+aTX+qT6gZuUqFDX8zqa5z9TAud/i+JJ5+K48wk6XonRo1oD3SqQjpZuamySwL7UuVwkkXAJSTnTraDS9KkRwXcqGPhdnfJ+sz5uSrOkYyvy7FtI1cqSXtPpyDbWwWgwVf89lR43q1sw5Ox5cMbP1+0jGiTYoJp4V6VPaEBpk4sa1GG5H2NNtgCN5XCUo9EMkGw9CmXFSOpZFRJ3cWu5sD2eUlGGtuGXPJ5Pk9awSjJEpHPMNZ8FZEwHFHJhQ+9+vWI4VcFu3Slre0UcKJ+GeNvFy5WnS2JBPBGnWF07weLkYnbQSUAJ/kUAcAi5FOMdXjGXhrIXsSdGPL7+pT2EvJ9yjr3Fq7VzmTt/ABq+vGP99cXImi+S0CLhJv61kvfsHjB88lJKpLbhGX2L7tKH8tukSN6v9xOyOuXG1Oc6Klp/x2y5JKf+gJ/2+eI9cImJsb2/jpyGDWB+UkYJthjConLUa4eVhjgrBb0EjWu8sT8X3GvCxT048XqO/piFK5jJ1Kou2XSe4zfeMr5xaMhsMGCLOsW3qL8xYfpxrLaez8P30eFycTZd+C1gdmZ3Gn3/CsHIPawAMhtP8/vF3jPe9wPla3Zk5qjU53cVh+PQMmftEpskDyHQ+HzNsSFNyyeuc9WXs8CVsupGBluNH0DiDhfsbPqLLXBtc89Tha4miZXF9uMZbazrx8bBQInM14qsRDSjEfe6u70YDXyMFKrenW8Pq5JQndGZ5HHxz1xAW3ihM9nzFyGNe/0jA/SAmJsXx2L6QuSuOstcxF5Vat5I66zQy7794OujblYASUALxnECYv2SidQmmT7Qd3Xo70VZaeMVaXUnAh3vRfF43kvul7KnVxYF60r7M+IKAqykBolO/G/m6ZTTOE6Xkq6Y9hcWhMszfxKHlUXzZLYb3Vjjzfhk77ktp1vINMdzp5MRYMWa0E6G2b2Q4sxcZOZjSjmq9nflcvDycoiV4NCSSvUEGvNs60UH+7/63R6yAGzs2iiVLHqbY6IhfBPJL7WGdOvaULx+HqUr8WorOVgkogb9M4GUBV8bpOIvGTsN3dSBVpy7mwxwWXB5dHqKu7WTXwlm06W/LwN0DqZHDhpvz+jFz5xWOlhjBhpbZnszg+tYBzFy5jhmmvmwWl8QUIuBWi4DbHp6DNJ8MpFeJhyEogyGQvRN6MlZS6G+W+obfm+eMcxUxkQ84Nikf3Y81p1q9Vq8t4Ag5yfa5Bzh6yUmMnBpR3OUul45KdDDsHud2L2T94fPsKDeGYx3zkeTSHBFwh/DzLMIXw1tSNtHDCN9jATdtZxSBPYeyxvpI1fp68B4W9h/OSjG88u4/he8qPkotDdzB/B9+Zt0hybActVBu1pKCrj2QhQAAIABJREFUs6YzkwNLkil3TVpL/9H7N45xUjJEzJfXMXLqNcw5qvLJkA8p43CZ7f1KMTDpD7T0qUe7gi9VcMTu+2EN3Nd0uNSHaY1tuTh1PYeTFiVfu7Z8WzbNXz4T9ANKQAkogf8CAXO4maAdobzfE/J1deJD8dEoIKaC5gjJclsfSt1hFoo0daZLa4fYh4gvCriyUvK03jeC1sttWbralZKSpffY6/jeGRPzfUJY3UHan70vvhJnopmxzsi8tPYcFLHmajKxsHck+0/EcK+EDUE57ZkibbxcbkQwapAIvcT2NPnGmaLvQNbbyymU/4Wjr2tQAkpACSQIAnEIuJgdjB67gYl7EjNo8TdUl5piqwtv7JAaq3MbfenbbAS5fI/TsoIHoavibiPwKgF3wlCQLF8NpnH2x+Lo9QScKTKIE78WoeuRxlSt2/L1BZwko8dEhhIRHkZYRBiGgI0M7DCWrX7+3DZFEuGVhyQdnxVw1wlIU4RvR1cn16MI32MBt0aEmsOXoxlcVYoaYoXdWTbLWnYdMpFi2Gza5320pjgEnI0pgqCQcCKiogm6vJk9vh34cqk7Zkn5DAnNQfnmHfl0SEOKm3cwKW8LTnSZyvstqlM9S9wd7WIF3NyetDteirK793Ipa2Pe796WPo0L4/Vf7Z2QIL6TukgloAT+EQGJtBkCwunfMIbj+eyo2VZadxWxJ/KuGBP2CuVHG1tatXGkfSV7rI8RXxRwuW+amTMtgsHp7NksHhHppK/14xFx18zJ2aF0E4v54Y2cqCXmhovWRjHknB0rf3Ilzd1wJs2LISrMgrN8buQxW9b84oLr9jD6SnmUSy4Hvm/hyAtlef9ouX/3wyrg/i45/ZwSUAJK4F8n8CoBd5Dph9IxbmMrCkq7lSctPf9FAWc2hhGwqjtNN+WlXPVary3gDIZgzqz8Bd/xvzBhnwgss5Gw+oMZ3rIoBa4vYO66HSwp/PYFnO0ZX7p++ysLNp0Qh+DEuCcpTW/fQdQIX8qgHw8TkLr0cwIupN8iqjes+MqawFgBN6k1baY6Yl+mJAXOXSFD2RaU69GHbsUeRgJ1KAEloAQSJAHxezgwPpTvjkOGco4MbChmhKcj+Kx6DIn6udJIjAiLS6KCVZrFKeCGiADcBYmlNZe1ru3xsLY5i4mSdmHt7JnT0Yn3U5vYtSCKcaOgzlp3ipwMYVGgDSmljVqO6yZ+GWSh80EPHJaEsirMQOrCDnQsZv9OtLZRAZcgvxm6aCWgBOIbgeiA05zfuoheE9Pz8bj3KJHVU54CvkrAbWbS3qQMWfYFlaUlyeO+kg8jcCv4pvk6yq2eTp0ijtxb8v+JwFktwWIO/ETt/jfwrlqXnp2qktdab/biCPbjyv6NtBnkR6cR3aiU+BRLpixj4YEIKnVpSnEpsbNJnZ2caaR+YfMYZixdj2++tyng5tEhfxAHRjan7/nMJM9Wlg4F02LvmIzM+bOQ7NIsuvXbzbWkxZ8TcOd6zKBBM3H9zBR3sXusgPP9nA6HOjLq65rkOP8bS9bd41qqWnw5sJmsU55Cx7eTVOerBJSAEnhDBMJ2h9J5hInwzI580tGOxLvCqNPNQPeFrtSvaIsE2GJHnAJucgTfi537VB8HvF5sBm69sKYxkFvMDJPL5fmk1LvN/TyKJPM9KHo4hFPJHEif156Mp6OZ3SWKVJJpYZDWBvfFqT6fpFP6ZHk3rswq4N7QiaabUQJKQAm8TQKmO8c5tfpXinWSdI/1X9GwpDdpHR4KuBUjP2Fq8RVMaJhTIm77mTvWlxnrw2k4fTZNszytgYv238e+pQvp9LkNffd9ThVpTXJj7v9JwFliMNzbx4ivhrEzcWlKNW5DnyIv1odFcf/0en6fOZom68sxd0YnykQuZ8KCs2yPKsrowY3J5WyJbdhqCD/H1mk/M2bBYfY0eJsCzpeO+S8yv14jNufuSskmrWhltUR+NPxXd6TPj9d5kPl9EXBNKGlzhHmNfZhRfDitP6jDh/kepmu+OF7sA5fbspMlP8xmwSFHUg/4lolV1MTkbX6fdNtKQAm84wQCo/l1WBSHog1kLGVL9r1y77tnx3dfiLW/GPeJYX2cAq6QtN9a/FsEX4gH/p6+LmLW9cgNX94dIS3GTkqf6DPZ7CidSxzck9hwY3c0q6UNwYyqztRfHEma5k7kru1AInHDXPZFOGerOnBmagylezhRv6PU4z0uqPuX8amA+5cPgO5eCSgBJfBaBIIv4bfjN2o0WErNKZNpXTMv+TzE0GPHAmYPGsqtbnvoUzEVmR2vsX/BWBbM2cDN0qPo07kU2ZM64GIK4PK2xSyZuYppQe2ZPLkq+VNGcU5cKNceus3dquP5sbq1ocnD8aZr4KyNVQyGMM4u+U5SO2UunhVp1bQ2DXI8FThhN3ewe8UsZolgu+nzIz+1yEO6q3P4ce5etoTnZ/iA7hTxFAFniOLO/pn4jvmVcdvMRLYezr7PSpHq8m8SDbv2hmvgrALuAvPqNmJrxnYUbdaa5sWS4ih97Qg8zbjBrZi0+D7Jyveg9/e9qZ7kOicmdZTIWgYqvdeKbu+VIp3c8C1mqau4uosNB6R+ImsGvGzWs+PZNgJe4Vz7bTrT5m9nXoqKzBvQm1zyj4ez+lO91tdD36QElMB/j8DZBeHM3SHtwG4ZyCb1ax6fONNNHCgzPlPX9mIEroI4BO9ZY2TANBNV+zvRooQdWeT9phAzl/cbGfJFFKn7OdOkjD25khgI84tm74pwam60odQFC+0GOlO1nj32Z6PZPj6MoXvguNmWr75ypmO9h22/3oWhAu5dOAo6ByWgBJTAnxGIuiN64Xd+6TiAg6VFKJTKQcHE/lw7sofNa/0pMXQG7+Vyje2jGXhmEZvnj+Pn5akp0+tDSqZxwdN4ljM797D3mAXvXsPoUSIRSZwf9oH7/wi4hws0BB1mzWRffPfcJqBoVfqWzvRk5XfOLWXf7qOcjqhDj1E9KSFphO63tjNt6mR+2xdI3kZf4pPZIlbPwfjtXsrWjevZ4OdBRL6+rPu1Ptn95tLrjQu4hymU+yd05KetHrhlL0vDqllxM0ZKY/IDjFi2kkP7TpCxXEta9BtFu1zR8vpyev4wleAkpSheujJ5vCxSNxdN8J6FzNiTlSIfVJM+egc5+qyAS+WGU8Ah1iyYzNfjNlGkx+/0ed+LjJ7yj8SfnRv6dyWgBJTAf5BA2KlIfv3FyA8zpX1NHlsmznWjorhKihnkk/GigLP2gbt72sTyzhGMyQhtpDdcQW8bjNLD8+IeI+P32zFkpjMlpMd0bLWx9GC+uDWcco3NGKWX9LA+Tnwg6ZL2t6I5vSKMstJU3LWzAyPaOtI097/fPuDxwlXA/QdPeF2SElAC/1ECUfcxnJxJhS4TOXr+VuwiMxetQscfF0izbal1e+beYpSaucurv5Was63cC46KfW/Bmh/Svt/PNJXWArFiyhDE8QXfs+FoAIEVRvBd5afRsBs7hzBv3UZ+M33KikHVSG5zkvWdBnDakJdMffpL/53H27jPgWmf87/27gI6qquLAvAej+MSPLgFd3cr7u7aFmtLoUKRIjWgpRSKOxQoUtyd4O5OcA2ETMblPzNJ0FASmpD0735rda0yvHnvzfcmTPbce8+ZdsqOuyU/x/Jmud6Kr1DocW33fPz50xcYueOF3fM0RJ12PTC+Vykkf6FHnOHcSvw1/zd89NvBZzsX6jQa9fM9hu7gUozb1Q1Tgjqi2J3lGDLyFh75F8KgH6oi97MqlBewXaZubjwpVSj7f48hlSN61SkUF7Fr+DgckD6oqYZPQbu8ka/p8T4sH/s7th53ovCoOeggtirlGaztOQTTF23BVvezXXWkJdTNz4y70oD79OMA5O0zFAPLR9QnUzzaiblDxmPagq044X7EtRauB0Yu6YhGVbNAc/oPbFz2Hfpd/8btWzCNj+wRjpvyepZ/PwJDt/bApN0dUDVvykTzje9bbyx3oAAFKBDHAoel1dmMmRZs76rBno4yg0EKk7y4WaRi5KbBYdgmwa1aFR1q5Yj4ILQZnZhdRo+pwQ5ciPhXGQH51Ji82xv55LPhWX1gkzT3PmrCFw3tsA+SIiVNtCibSY4RasPNICPKdnOgySgfmfWiQoFUcfzi/sHhGOD+AR6fSgEKUOC9CrhKaFnDcT9ED4vN7j61WusBn2Qp4S3fSL74seZ0WOUDLBQPQs2Qdp/ufbWe3vDxSwapoBy5OWA1PIXJaodDlwxJnvUbkJ6p5qcwmEwId/ohVVIPqGCV9QOhsMl4kNovyQtT++Rby/An0EsrUYfWFymfH/xvaKQ1gDkcxrAnCDW9sJvGE57evkjmo3Wvc4vanFajtBEIQ0iYTFuM3LTeSeGpdUBhNuCp2QfJ03jLtEYjnjyV16LSwE+u+fmXtDJ98clTGOUaFb5JX3id8njoU1jkcWWS5G5D9+Ywy7VJc245nTZpisjHrTDJ69cbTIi4ZNcV+iBZChXsRgOsDvnG1jcJ/KIqxsgxwkPDoA83iZxrc90dHyRN6Q1PDzUUVgNMYv/YLr5JPKFxNSeXaaZ2iwGGp6Hi4npNMiqnUb5k8V7fbzwZBShAgQQWsIQ5ES4hzSTFSNJ4K2QK/csX5PqeziTr3szSfsVDwp388+reXI+H33Mg3CYfm5FPUcs+ydMo3J8Nzw4j+9ktToQ+lJkSfgr4eCqgcx1DPm7tZgfuhQCeSZXyOCD/HCeajQEu0dwKXggFKEABClCAAhSgAAX+ewIXztuxdp0VGzZI4krEW8GCKnz3XfT9Pd/nZTPAvU9tnosCFKAABShAAQpQgAIUeEng7l0HTsh09pOnZOgrEW8ZZT1d8+YJvzKZAS4Rv0l4aRSgAAUoQAEKUIACFKAABV4UeGOAC7sj8z4fOWHRKZA6gxIpYzFaKNWSEXrDjltaBdJKic6UXm9oeifrMkyhDty+BnhkVSGFtNZ5cRH+ixdqkfKfjx448cAAZMilQhKZn/pid3VZOiArFh24eVHmsMpc1SRSftlPmzhutlXm7j5+4MD1hy9cj1SKS5FaiYwv9KeI16sVmwdhMudXJg+nfKH8atye0wmzwYkn8jqTyXvGNVc4cbQ7jNtXyaNRgAIUoAAFKEABClAgoQSiD3AShraN1uPneTbcyiYVWUZ4SRnlmP8yrr/vwLrPwvBlBjW+aK5D50JvaGQTbsW5jSYM6ehA3vm+aFdeiayuwl7RbDe2mzBrkglTT6gwYr0f6qdzvlRG1BXeFPcNGFBbqsg09MIHXbSokili4X6Cba6FkRJmbx0wY/lMI75Y8PxKnIFKtOyiw2ipqJNKRmJfCqPxcMHOu0ZM3in9k/w06F4rnoZ+pVHvxSNWrJrhQLMx3kjrIQs+4+G18JAUoAAFKEABClCAAhT4rwq8HuCkbIvioUn6HVgRbFPgrvQ8uCudypd95QFXceSYdECIzwD37RYZQWqpwfKvPVEorVSKibpziTDAKUJMmD/ChnmXpZJZXTV+qvx8SPDmfhNWr7HimFmDzyZ5o1IKJzxighvrd6qrea4Ve8aa8dMDKaFaQYcx8RTg7h81Y8VqM369q8IKCXCZGOBifbf4BApQgAIUoAAFKEABCvydwGsBzmF14tpKPQYslf43ORTwlFGkyXsVmLTIB6VldMwrBiEjPgPckBUyEphagQ9/9ETPqmrkSxVZ0zNRBThXaLLh2AwTfjok/Lk06NVIizKy8DFqM9y3YO8KM/5Y5cQlCVVTe+qQxVdKgsf5+9V1LWZsGmLBD0+VyFlDhwnxFOBu7zVj0QoTxurV2CYBLjMDXJzfTR6QAhSgAAUoQAEKUOC/LfBagLPKGqY1ncIwM40SDWqrkemiA79NtKHATC/0LqSStXCvr2q6sN6MHaecuB4qmLKmSyOdz7MtMmJoZs3zKZQSsEwPbFg704HzRkCWsiFzgA1JZdrdkk8UMZtCucCMsYcUqJFCmvJJw55PB3igXllZD+e6h38b4CRMTbVj33Unbrn29ZaeDrmV6FJLi5QSMmy3bTh80I7D95Ro1F2DtLKLK0i5urYfPWTH3utKNPlIi7QyOqmBHfdO23FRjhWaTY060jBQ8SqJTULTPSMG9rXicn4t6so00g55X20e4cD9k1YcCrLhYHqZplpVg9SyztCVj22P7bh2worZm5+/OVPnV6JIabU0F4w6jh1nl9hw3/UECbTGDQ7slf911+6Rc5UtoUKtbNJ5PsyGQ7+asXCDlGc1S/+LrGp0knM16BLxOlUPrFi3zY6gky//IJRtrEUROU7qqCFOCfKGi2Ys2+bE+ZsR+0rLJ2SrqUZt6durl8pBm1ZY8cdOG/ZbVGhXTYOGHXQoklXOmUjWIv63f9T56ilAAQpQgAIUoAAF/h8EXg5wEjyMN20YUMEARy8dmrbWItMJG5aONWJVfS1mdfRAgBQliRqEc4W9O8dsmD3fhPOPFDBLknHIL/WmlA5k3WXHnyU1GNlW1sBJ+HgSbMWBvyyYs1oCihQZUUgwSO1rh5fRht0rVagsa+A6vm0NnEzPm/VUhSm1HPihP5Clrwdat9WgogSY6AOcAzaDHZfXWzB9uh037LKfXL9V0pk5iQPVS3qgeg010kqj2xVT5Np2qzBkuw9K6WQ6o8KBuzvNmPm7BTPOSOf2vT4o6eGEj9KKw9PM2LwHCGvngWGV1K83FTRJY9v94ag4zIlybT3Ro6UWObxeX49nkQIuRinOosiogY+EQ1c0C79nx7kgCzZstGLtHTX8XaNY0mTX7qtAthJqNJORvML+4iejaitaW7DtthSaKapClssKHJfrc4basV8Kz1Soo8OwFhIK7VZs/dyM2fsc2CmdDH3TqtCkihbdBmuR+YnL3oQlQcDFR0ok18jzJQGGXrbBv5oODZprUbWIEh4mKUxyyYpNS2Qk77oCISaldLCX61U74JVchfrt5Lk3nAhaY8PCIDvO25SoIuse2w/0QAW592mezXP9f/iR4WugAAUoQAEKUIACFKBAwgm8FOAc8sv/g13hKNHfiY6jvNHuAzVSBFuwcYkR7Q+o8NcvXiibRQlfV4KzO/FIftGf0S8cCzNp8Ek3HRoXVcMWbMO++Qb0GC7VJTtqMEmmBrbP6MDBVWZ8O8yBgB880F9GgLInV+LsAgtmfm7Ab2EK9JYA1z0GAe4PhRpbf1Rjc3UzfvZTomI7Hb6po4Gf8vUiJpXT2RAio0Y/lrZiSw8tPumoRas8KuhlxO3oH+FyjQp0muOFpmXtuD7HgkVzgGJLfNEsM+R4FuyfZcaMSXbsUqswaFFk4RSnBeu+tWDnfiXyTPBGmxwSZF4ZgbPppYLnyjDU36FE25ae6FpFA19XS/i3bWJ69i8j5s6zYptFg6EzvFFO1sb56M1Y/YsFS3bIiFlbLX7tpIOnBLiVEuCmrXHAUE+DwT97o3xyJ9SXDfj0GyuOqrVo+okHehWSKafRTKF0ylRZs4TMusPsyFbLEx/L/Qv0c8I1hfbC3DD0HCczP1vJvRqkRYY7Nuz9To9Bu2T0TpoXNqulQhoZ6wuV98afjWSU8UMtGtfWIN11K6dQvu0e8+8pQAEKUIACFKAABSjwDwReCnBhMvp2YIYebS+oMOZTLzQorIL3QyuOrDWiZDcHes/zQ4+qSuRKLmd8ZMWZTUYUaOvAyPW+aFlGhcxSGt+1PbnqwNQCYfi1jRpDJcDVNsto3HITRj2WtVE/eSGrjCa5Z9Xds2CXBJZaAxCLAKfB1p9kDuTaMPT41oaneTzw0UBPNMlqf60KZVmNXOOycFQeqMQPG73RoIyMBrmvUEa+HpkxJdCCY50l6LRXIIOMGC7+3o7gUTqMra1FGpMZ82Td2HIJSJ4fqJCvvR+6BTqR8qYRw36wYUeoBmOXeKKAq+jLKzfA/ESaEU4JQ+ezSnRuH/MAp3hkxOyvpeDITTVKjfZGp/zPQ5/+pAkLplvw/RYV5p30QSEJZRtbm7HFqED6/joMLB9R71GhsGDfRDMmnAIelNVivYyiRhfgbEYnjk8Ow4d6FVpV16FfycjVd9LaQXHCgPp9bPAq54E+AzTIdsOEaUUswHw/NKouwdV1/6PZuAbuH/wk8qkUoAAFKEABClCAAhSIgcDzACdTGa/sMuOH7jbovvVGt5oq5JWpiUoZFbp3zoaZA8IxWwLBmBY61MmugvmmTCVcb0CFpUqsHO+NCrLeyidyeZZeuqn/1SsMQ3Kq8WUrHcrLtMC1a83YW1yLSU11SOqhiAg9YVacWm/C510dKC4jcB1iNAInAe5HLySVUa4NMrVz9mqZ81dUi5ETtMh9Lxyfu9sIeLrbCOR/asXq8Qb08VBjZX9PVAhQPisSYg2XNXHSKuErnRqtJLA1sMo1LzVhRAYt9nbyQKaHsoZvq4wcnnOirq+E1GQ6bJfRPk2QEd/Lerm7mbVY0FkHmeH42vZSgJNplu4RuJjcjEtGfD1cRv6MGvQV0w/8nwc4xyMLdswzYcIEmR651A9tc5mxu7MZx9VqZJcA2zpvxAliGuBcUyVNjx2Qdn9I4iP3Q0ZOty+Wlg6L5SBm6Vl3x4k6fTzRp6usMTxiRLVWdvSX9g3NSymRWfIzA1wMbih3oQAFKEABClCAAhSgQBwLPAtwlltSFXGpTJX8zAm/UhpkTgX4RDbxskgj6juyFu64zJ38UaZRtqqqguqCFdv/NKDJcRU2SaAqLcU1osKMMcSB/WNkdEerxmcNdCh82I6VC8242VtGt6RwiK+s0XJvUnjk6nYrJjUxwU8CXOtYBLgU8vQnEizmjrNi6SUlsg/WYFqgFV/WfR7g8oTI3w0Px6CrSpTK5CrA8lzPaZfnX5YQWlaNwRKyeqZxYMdqExrPVWH1Mi+kP2nAphAlTF5KFH1qRvUgFfYM8YRNRgy3yZRPr4oe6Ff81cIkkS9L1rXdWBqGJkFKtGsZiwB3zogBI6w4odRi+FRPlJC1eFGb4qkFe6SIy8QfpUaJjIR1K2hGUFczTus0yDnIE01zRuwb0wDnmgKruG7GyOkyWnhJplPKqKFdHsvW2BNFQk0YP8eB7A1lBK6TjMLuN6JIJyemHvTFB4HS2P0NlUg5AhfHP508HAUoQAEKUIACFKAABV4ReBbg7h+24K/5RvQ5qUT3ImokiQpZrifIL/ZOGS3bOA+oJWGteXM1Mt6zYtdyAxociibAPXJg9+gw9PFWY0AjHYqesGOVFMAI7vpKgJNRr8tbLRjf3IyUEuDaxDLAqWXU8OhSM6YttmGNDP8t/0KBmTJSpGkSMQLnDnAjJcCFqNAsUK7Z7/UKmiisRO3iapT2seOEjAZ26ObEgH2+SL7DgJCkKqSWaaQZrpnQ9AsnRvyuwx1ZKxeWVoOCnT1QM0P07yeHUdal7daj6i9Atdae6N5EAnF0hTxkFPDGeRsWbAGqytq23NI3bvho6Q0ntS6HTvFCmRcKn0QFuMljgZIr/NAyuxm7Or1rgFPDbrLhkozodd4kQd1HhZLppRCJFEep1kqLXFfC0bRf5BTKFwLcJHGpV1CBtG/odcAAx39fKEABClCAAhSgAAUoEL8CEQFOgtSJlWbMl+IZ2+t7YEUzDfxlWt2zTUbK7DKFb3QTM66UlymUsq6qTgo7TsoUyrIzlVg82RtVcymRJHJkJkzm5S1rF4bhhdX4qo0OFR/asVoqSG7Oo8V0KS2fUqZQuseuQq04vs6EPj0cqBjDKpR/KCKmULpG4Fw5wiSFM7b8acIPM+0o0lqFUxPtyNFZCpNETaH8VaZQ+qmx+iNPlJcCLFGDRw4bcFfK+N+XQihppWVCWo0DwdLHbFw3K/xlnZ5a/t+/oAQ1qVLpd8qMYdUsyDpKhaNbnchZTocWfXUo4POGmyOFQBAs4ehDC8zS4625hLMGcu5Xt/CLUiBmsREd5isweakPaqjMmDRK1rDpNeg2TtbsZXw+Ame/KxUg58oInHh32eWLKsnM2NruXQOcChYZVfyznQXzimjRUloGtA+MkHFKWH+6PRwtv7QjaVUZgZMplEllpLOGBOOPVvuhRVklAt7wuhng4veHlUenAAUoQAEKUIACFKCAO8DZ7pmxdrIZC5YrUWGuD9rllHLzr/TucgWerd88xTfngFJNPDCotrQG2GVElQ52tJ/hg7aVVcgtJfoh4cXVJ218OVkz11aNEVLEpJ7MV/xLGjyPvCQFOCQcFUqthLfkBfMVC7YsMKKZTAuMeRXKlwOc6xbePS5r3X6U9W+LgKcyNbLRYC/0kgBXDNKTbIkB3XYq8M0XMiono2lpZGTRFVLC7zkw/7NwnK2oQd0aWlQLUOHxFRs2j9RjsY8aYbLGroWMHjatq4PplB1zq4RhT34FjsgoVVvp6/Z5A5kK+pb3z56f9PhByuv7l9Zi8AdapJfiLVGbqwXDCVkXuFCmRa7KpsGyrzyRUypcrpAAt+28Etn6eKF7JYXbSSkZ+94+ExbOtWLGeTVmb/NGHiliskGKmLzbFEqVrH+TCpslLbjRzQs1m2tQQSpvSiFPuCpobvxZjyGzpWJoM1kD97EaWa6YMKyZFT6DZZS0oQqFZOTRFZ4d0nYi/KFUI5WptsllBFR/hI28+U8KBShAAQpQgAIUoAAF4lPAHeCCpZrklEkWrLmnweTd3lLh0IlXZ/y5il48WP0UnUY54CPrv/pKj698MgVw5adhGCpl9gd+LIU0yqhhvWjFjqnhaD9eeppJG4GpEuA6Z5OKh6skBPR1QPu9DkPqyfTGVEocnSKVID82Yo40B/8nAQ4GG24dNKJ/TTs2S7HEqpEBrkpGWecW7MCUomGYItM+B3XXoauMClru23B5VTiqS3XKz/+Q0TpZ05dOspXloQ3X/9Kj2tfAzepqjOohQa2sBuF37TgyMQwdpwCpWmnQT4qXtJQpmW/bnHcNmPipDdNvKODfS4s1UtAlags39qopAAAgAElEQVTeaMTk383467aswVvig3rppL+4DNJdk3sxXcL04utqjPzLFzVTy5rEpyYsGikl+/fLcQbqME78VJF94N41wFmkNcGa/hYM1yulCqcHetfRwk+afhuOGFCknR2XpFl3tZ6e+FBaEVT1lkbnk6Sq5jQVuv7qibaN1cggDc31d6WlwkALBmeRNgbNdKgsz18kQX2sXqqNjvFGZlcPu7ch8e8pQAEKUIACFKAABShAgRgLuAPczm+MmLTFimvSJHrzZx5wdQN4bbWYzOazXw3H8F42nE6lRvVPJAzlVyH0lgNLfjZgzQknbupldCutAuqCQL3DNkwrIGu5JLR0LqCC8YENF7abMGakE1ekcZpZfrPPkcuBbKlsODhDjZKxrEIZNYXS/UplhMoVsrZKr7JPZBSuUM+IEbgqmeSaJdA9PGOXKppG7LrtwH0vaTYuDa1dA4ztxnqhVnEVMspQmitoOGX47slevbtgR74PvdBHmoTXyKKAJcSOmyvCUHMwpCWBF7q11qB4ymjW073KLlNPH8gI3KFtVmxYK0VIgp8/x+wva9kqqNFZRvhySwXPJJIHXf3kLE8duHVcRiZlSuvojfK4XJjKLgVFZBSvWmMdahRXIGMSqRoZ4wDnCo1OhO0xoN9vMpX1EFBBCrf0/N4TgQYT5n8oDbovySimHFMlo5fSmxutpa3D4QkOPM0ur7+PFt0LqWB44MCxFRJINwKnb0X42WWNXmhZFb6XQi2Vcyjhp7dirwS4IV9L4+8MEgwHe6Nphci2EzF+S3JHClCAAhSgAAUoQAEKUOBNAu4Ad/uAHeflF3STrGOrLS0C3rhJ0ZDTQU48UEslwjxKaTMQsa7r1iGpnBgsj4fLH6RQiIeEniISRE7KtLrALCpp2i3JRKYtWkIlrG2UoCehyiy7pk7vRLq0wOMTCiSVPmZZpW3Bq1M3o67FFdAu35SqlRItaxRTuytevhih7GYnHktlzN0yxTNZDjVySqDwf6Hc/eV1Vpx7INP9Ig+o0SlRvr4aqaUy5bPZojIl0CajcH/tciJNPjVyybq1VJJmHRYnTNI2YcNhIENBKdsv7QiSxWJoKfSmHVdkWunJey/IiklW8S6eQ/XaaKfd1Qj8qkznPPp8f3/ZL1c+FTL5RT0mpf6ld12oUoKTrF/L/MLjD8/bcfaJGEu5yGpyre7tiTRYP+bAhevSNiClEoUqyyiahzQw3+zAOWkZ8CDysCqVAuVryGjrMQl9YpRG7rNrtNS1uVpH7HEF9YeRO7uyYW4V6uaUAigyiupaSxlyw46ju524LX+Vo7RUyMyoQPLoei3wZ5ICFKAABShAAQpQgAIUiLWAO8Bt3WrDkSMy/MKNAnEokF9GaAvJ6F1aGZXlRgEKUIACFKAABShAAQr8cwF3gPtd1mKtXClVSrhRIA4FqleXAjF11cgho6HcKEABClCAAhSgAAUoQIF/LvCsD9w/PxSPQAEKUIACFKAABShAAQpQgALxKcAAF5+6PDYFKEABClCAAhSgAAUoQIE4FGCAi0NMHooCFKAABShAAQpQgAIUoEB8CjDAxacuj00BClCAAhSgAAUoQAEKUCAOBRjg4hCTh6IABShAAQpQgAIUoAAFKBCfAgxw8anLY1OAAhSIIwGbzQaj0RhHR+NhKEABClCAAhSIrYBKpYKXlzSJTuCNAS6BbwBPTwEKUCAmAqGhobh69VpMduU+FKAABShAAQrEg4Cvrw+yZcsWD0eO3SEZ4GLnxb0pQAEKJIiA0+mE3W5PkHPzpBSgAAUoQAEKAAqFAq5RuITeGOAS+g7w/BSgAAUoQAEKUIACFKAABWIowAAXQyjuRgEKUIACFKAABShAAQpQIKEFGOAS+g7w/BSgAAUoQAEKUIACFKAABWIowAAXQyjuRgEKUIACFKAABShAAQpQIKEFGOAS+g7w/BSgAAUoQAEKUIACFKAABWIowAAXQyjuRgEKUIACFKAABShAAQpQIKEFGOAS+g7w/BSgAAUoQAEKUIACFKAABWIowAAXQyjuRgEKUIACFKAABShAAQpQIKEFGOAS+g7w/BSgAAUoQAEKUIACFKAABWIowAAXQyjuRgEKUIACFKAABShAAQpQIKEFGOAS+g7w/BSgAAUoQAEKUIACFKAABWIowAAXQyjuRgEKUIACFKAABShAAQpQIKEFGOAS+g7w/BSgAAUoQAEKUIACFKAABWIowAAXQyjuRgEKUIACFKAABShAAQpQIKEFGOAS+g7w/BSgAAUoQAEKUIACFKAABWIowAAXQyjuRgEKUIACFKAABShAAQpQIKEFGOAS+g7w/BSgAAUoQAEKUIACFKAABWIowAAXQyjuRgEKUIACFKAABShAAQpQIKEFGOAS+g7w/BSgAAUoQAEKUIACFKAABWIowAAXQyjuRgEKUIACFKAABShAAQpQIKEFGOAS+g7w/BSgAAUoQAEKUIACFKAABWIowAAXQyjuRgEKUIACFKAABShAAQpQIKEFGOAS+g7w/BSgAAUoQAEKUIACFKAABWIowAAXQyjuRgEKUIACFKAABShAAQpQIKEFGOAS+g7w/BSgAAXeScCIO8c2YPf6lVh34cUDZEb+clVQu1l55PF9pwMn+JMsYbdwY/tgTLnXDLUrlUDp7Cmge/Wqwi/j2MYtOHImHJnafoKKGZ3QKBP80nkBFKAABSjwDgKPL1qxb5sVGy4q0GyAJwqlALxV0R/IeM2CbVtt2HNbifrd5NNhnQkXMqgQmF+NQmn/Gx8EDHDv8CbjUyhAAQokqMDDU9iwax+Onb2A8DAjDNbn8cZy9xEMWh8kKVYONWrUQ6UsntCpFQl6ubE9ueHBKZyYXABtL36Pz3u0QOuymeHjdL50GMXjfVg5bgKWbw5B4d/WoVsBJzze8GEf2/NzfwpQgAIUeL8CoefNWDfbhFGzFQj83RPfVlAja5LoP7vOzTJi0kILdiZXY8KvXvDcZsY1CW65c6mRNzUD3Pu9czwbBShAAQr8vYDTBlge4sLSCfhp9Rk8yFgVzdt0QKsCPs+eZ7iwFssXzcK07aHwrvIjJvTNiww+aqj/RbavBbgymfD8FUa8EAa4f9EN5aVSgAIUeJuA0YYTq834cZANi8qosWG4J8oGKKF99Xl6O+b2N2HBYQf8umsxuacOfrLPfyO2PcfgCNzb3lD8ewpQgAKJRcD6FM6by9Gv+Vh4NPoCdTu0RPn0r1+c8fJGbFq0DD2n58OsoC4oldoLfg4zwk1W6C1O+KqeIjQccKh94OvrDR/X0JXdAlPoQzw1yf9GDXZpdFB7J0Eab81LJ3HYTDCHP8JjOUbUwJjW0wc+fkng+UJStJueIDw8HGFyTIlc8p8Ovsn84OWpwd8NCr4c4JqjdRkZgXvlZT4PcI8iR+AQOQJng1XOGf5ED7m8yM0LPkm84e2jjQyyTjhMoQgxq2XapQMqu1k8LJH7+sAvubdcoxruAT2n3b3vQ7MOniobHFYz9EZr5K8L3kiayhueWtULvzwInt2EpyFhMFqskMgNqDRQ+iRFanFUKSK+UXbKOS1mIx7ZtfCzPYXRbIdFLcfy9kHyFxETy3uP10EBClAgngXuHLVi5ehw9F2uwi87vdGgpBKvzoi0HgtHn2E2nNRq0XuEJ5pnB8yhDpjkQ8XDQ/6L/AxyfTYZ7juhtzkj/x0G1J4KpJJRPXfYk8fD9E6Y7Ar5XJLnRSVAeVwvjxtsCvjJ4zr5IHD9q20zOREu//Rb5c8pvRJ+VgsDXDy/GXl4ClCAAnElYNffRcjGz1FnTWG0bV0XHSrnQNLovnYMO4cTpw7g+y1e+KZVPWTJoIPH/W2Ys/0ixu8PRb9032HYNOBRnt749ONW6F07CxzX92PDkEYYuhW4p4+84tzlkbPrCOzumO9Z8HD9zZMrG7FnZiv0kGMYI3NPiUY90eXzkWia8/mrvb5lIGbOmIbx612PuUJgRfT9/Wu0rBOInN5vVvknAU6BYBydNh2zBv6Guc9O0Ro9RnZC915FkUU+1Z02M0I2f4UeO7IiV7InSPNwB4ZNPyR7uz6Uu+OrmZ3Qsn4OpJM/2cPuuPdttLMcmgVcw8OT2zFx2Wn5myTufcdt6IDaxfyRKupcEpQVDzZhdMdRWHLgPK65Hs+QF35dx7sd0/tGfJ9sur4H+/YsRvObZTD08jAs230PR7O3R4MuH2NGvWxx9ZbhcShAAQr8awQcj2y4sNGAop0d6DLFF91qy7q2lC9f/rn5egz+zQF7IR2GTvBAbqMDmwbrsT2XClWr6FArR8RcepvRidll9Zga7MBF97/DCuRqqMFfwzyRTP6ovmLEj7/KmrvbagyQaZjV5R9xpesj4JoJv06y4M/zKgya4o1q8rhGHg/eaMTUEzacyqTFiuavrcp+78YMcO+dnCekAAUo8C4CVvk28TR2jfgAMzNNQru6lVArt1/EKNGrm13WxRn1uPlEgYwpksNDp4TyxiZMnb0AfZcGI2fLVhhaPBuSpw5ApvRyjJvbsXnpTPxkr4+h5bPJiJsWCsMVnNq7Bys33kORYdPxUalk8Pc1IXj3QqxcuRbLTCXwUaNSSKlWQa0/i1M79uPCrSQoM3gsXPnjzua+mDjjDm75lEStTiWRxW6F4vIu/LLmMNKUbYXWLVuijCshRbO9a4DzDDuElb/NwNwDYQgLrIEva2ZxHz140w/YdCIjkpdph94DyyDAasKjdf3RZtwhnEF+VKtVFU1LZ4Kf04HLK7/E6rPlUaBpa3TqXBD+T2+5963+3QXo05VDvVrlUaugP3QyAunad+nltqjXuzma1M2OtNYQhF/bgV8/HoUzuVqjROlAFJJfGp7cP4d9a+fhgP+n+LxDZZTLIavzZb/dy35ErYnX0KzDJ6hXOAsyZs6IVP4ZkDul57u8QfgcClCAAv9uARn9enDGhmGlwrH7Yx2+7qRF0zwvf8otb67HGnkoZ1sdPv5AZnPIaNnaz8KwKa8atWpqUU/WwT08a8fKXkb8Jh8BHeSxwhmUCL0t4SvIgpXH1Rg+2xMl0jixc4QJ2/Y5kf9Xb7TPLZMlJKjd2mzAuN8sWPtQg/6/e6ODPC6TLHB0tgErLtoRVk6HsbVem9j53t0Z4N47OU9IAQpQ4F0EwhB6bTfmf9AIB7usQodG5VApIOa/6CuCJcBNXoyvVxrQ5LdxGF4yBVLI1EmF8SoOL1+OedP2Qj94gvvxtF5qKCx3cHbTPEwfOxkrGizHylY5kNc7GNumLsCKzbeh7fmVBCQJPWoJh+b7CD55CleCw5GyfC3k1ZzGgs+7YpexGnI3+RAdG2VCcpmKiEdn5Hg9sS6sOPLW7IuBdQMQ3UDcswD3VylkyJgdOdL6uMfvXtrM93DtxCmEa7KiqbuICfB4V398P/82riatjpbdmqBVTtf3rDJieHEa5g1bj2P6/Cjz3efolF0VEeCGnUBIrgbo0qcdOpZMCw8JcI/OjMPEfttxO6AWqg7sjIapH0cEuEHXkfyDbujZrT4aFUgJteUxQmTf0R32wV6/C+p0b4gKujM4u+4LdJvuj+af9kOTSvmQXQbqTA/P48K6Mfjslzuo/vlwNKxZHBkfS4BbOB51hirw9Zof0K50ZgS8qeTau7xd+BwKUIAC/0IB430HDg55ih5nVej8mSe61FUjuet1uOb23zKjZzML7JU1aNJLRtsyK2F5JcDVku/Hjq2xoF8vG4ou8kRPKYaSV6ZNmkIcOL3Jgm/bmJFvoSfaVNPAuNSMpZusuNTCA/NldM5VyXj3MAMWy/NPZVejVFcPfCPP95DlB0uHm3HUqECej+W5uRJ+xR0D3L/wzc1LpgAF/osCIXh8cQumFGiL09+sRueWLwQ4Wb/mCkfLtp3A3UdR8x/l20StBzKUbohSAUmQ8sFWCXDbMHZLMozbOAAVpMWAp+szyHQTl/adxf49euT+qCHyqYNxdschnAu+gStXD+PIwSCsqDoPh7sXRN7wzZg1LgjbLmVGt8UfooIsTHt1LZvTqof59BR81HUrktTviOYfNUUp+UCN2u5t7o/Bi+x4lL4xfh5aCRmjuZXPAtzK0siYKTtypvWNPsAdPwm9OkAC6Vp0L2DCiYnVMPxCYaQr1xPjWuSH17Nj38XBn7/GkqBHuF1nNKa0DUC4hLK2U5QIqNoE/bpXRu5nO9/Cjq+6Y9GjbPBu/AVGl3ZGBLgJ/mjQqz06NyqCAA/XgW0y4fIW1nZrjIV+jRHYpC06eB/E2mE9MC7bLIzrVR7lsiaNWIAva9zMd4MwpmVHPGo6GXUbfYDSzj0yAjcTH0wvgeVrWqNclqTuhfjcKEABCvyXBRwyJTL8kB5tewAZO+jQuosGZVIqYQt3IHiJHq1mO1G+jSd6tdEiu3yH+WqAK21yYO08I3odVGPdAi8US6d49lnw+JKMzLULw9yGWgxsqkPOa1bM22DB7KQaHBzoCV+LDX98ZcKpCzLSVliBS2k0mNvNA15XDPjhZzuepNai80APvFA3LMFuFQNcgtHzxBSgAAViIxAqa892YHbF5jjaZxU6Nn0hwFkNUFxZhY9/WIZTV+7LQaUgyZMHCLn6GHm+34ZvG+ZEAdMOCXAHMX5HekwP6ogCshYsYha/XYqX3MP94Iu4+tgp1R3344+ZO3Hm+kOYlaF4IMU9rrSZhyMS4AKuTsdP0y5jp6kyJs1vhNxyjFe/h3RI4RJX4Gn0tSw5qFEGDRvlgv8LLQAUN7Zi0hwTwjKUx+iZ9RD4SnsA1xXFfgrlGglwj7BreD38ZpJRvxo9Mbpqhpdwgzd9ginrj2GDxyCsGVZR+gb1R/vN2VG8ci0MaJjXvaItaru4tDl+POuHkNyf44+aPhEBbnMl9GhbGx0qZHmpoMqpWWXx9c2KCChRH/3UhzCzwTcI6vkz2pRLjyxJI1bTK8TYJiOG+yb1xYUyv6BRvfqo6XFIevjNxQe7qmP7T3VQxN/39V53sXl7cF8KUIAC/w8CMtKmeGzCmI4W7M6oQpU2OvSUqpTmu3bM7xmOuf5qtJNg11Yec33v9mqAy3fbgQVTjRjpp8bMelr4+zwvOGJ+4sClVQaMSK/BLzLqVldrw8o1ZvxwSIXZMl0yy10Dpq+xyzppJ5LIB+S4XSr8MUOKWm3TY/QBJ3zyy7q7ZlokhharDHD/D292vgYKUOA/IGCB/u4xrB9YAauLL0e72hVRJZuXu+zG69tdXN++DLMaDsEZCXBf/U2AUzie4OL2uZg3ehDGHvGCVhKZQtLXwE510EKxE4smjsSgHPNwKCrArbuL/doamPdVJXfhjlfP/zzASZPt62FSFSyymuNLF1kV1Vt2xuAJNZEnjgPcWm1j5KrRAz2KvxjJXOvgJMBtOI4NXl9g3Tfl4XhjgHPi/JIW7gD3JO/bApwDJ6eXw9e3KyFryYgAN6V6P0zykrE0gVS5V8S/vJXoMxkft6yFypqDDHD/gZ9avkQKUODdBM7OCcOg3U74l9ZhRAv5MuykAX1q2ZH1Jx80qa9G4cjKUdEGuO8MGLJHSk1JVUrXuraXNtefZVRvWkcdGqSX6ZqLTfh9pBOVNvmhxMkwrDIqkS6TEnmv2jDhSydaHfODdpEe25wKZCqlQ8fCiaMpDwPcu72v+CwKUIAC71nACeOjCzg6sRB6XR+OXh2ao125zNGuIQNiEeBu7caiOaswfFEYPp45GFWl4pePry98vRx4fGTJ6wFu4kXsCK+ECcuaIv/fjsAlQaCMWHXsVBCZXgtpOug8veGXVNoURKP4T0bgxobLdEgZgRtbI/NLR3YHuL0XscV/BPZ0yo3HrjVw0YzAKfAYQeM74ecrKWEv93cBziHh9TG2DK2NUfpqCKwREeBmNRqGY1//ib61ApAr5Wsr96CVdgLenjIH8+ZOBrj3/BPE01GAAv8eAdvRcHSVdgGPpepj314apNodjhqfKDB4lQ8aVpCQFTn9I9oAN9OI0Zk02CqFTjJF1wzcW4Fk0grAQ+XE2WVWLPnUBN1CPxQ/EoYr6XTIUkiDzFJMZWE3I7wWyXjbwHBYqmpQpLOsuwtIHIYMcInjPvAqKEABCrxVwGF6BP3p8ejXdyvSNRuAhq3qo1jq6J4W8wBnPLMEc1buw/hLRbH0t9bIKou2tPINpcJwCUdWzMIPIxZgcauINXCBIavx/c97sCI4K0Ys7IcqSaNZA2cJg+3gz6je+yZytmiODz+qikIvNHHTH5+PGUccCEtRDL3r54l23VfsA5xrDZwVp6dWwbCTgUhTphfGtCnwbJqLAtexZ+Q3WH5Upm52GIdJtZNHFDH5xYz01Zqj30c1UcA9J0am7uACVnfrg93KIsjYYzC654iYElr9hySo9VEXdG1eMrIFgkX2PY+FddvhUP4uKNq+BSqZtmDJF33wSyUxbVsMZTNGvXCD9KY7h7Xdv0N4kwEoXLE4AsKkiAmnUL71Pc8dKECB/6iANOxeOs6EoDDpXRqoQr6DFkz11WBodw8Uk+IlUXUgXw1wxcIcWPGHEZ+Fq7FHmoHnS6V8toZaLwVSDkwx4EgRDeoU0yBvaiXuHpZWAtMMGC3TI1stsCCvFCkJbKSBz3ErVn0j++ZT48hiB+p87oFW3eU57jXQCb8xwCX8PeAVUIACFIiZgEOKlRiuYffvYzH/jBUPslVGjdrV0b1ImufPf3QWu3dvxKx5u3F1m3xIrRqDFgXTIOODLdGugbNeXIW5i5djVJA3xk36FZX9ZQROY8KdAwuwfMoE/LD8Ea43n4DdX1VECd+b2DBnNuZtDoa2ydf4qVVeJJeyXVLTEdd37MKJ/Tehr9kGjVJdxbSfhiHobiDy12mDTm3zIK2rCmXYGawaPRwbrUWRuU5HfFxFKj9G88pjH+AiqlAajozAmN+P4pCyJGp0b49Pi6d1H/3e4VGYNuoQzqvKof5PH6GJtC+IqEJ5AMEZ6qD9R53Rt3oWeEsVyttBAzBmyn14BjZGi66NkEd1O7IK5TkoK3RGrx5N0b50emhMD937DhlvQ56GXdCocTmkN57EqdXj8NlCK6p3+xRNqxRAnlRamJ+cx5WdQzFwnAYffPoZalcugNQPGOBi9qbnXhSgwH9V4KqsV5uzzoblZ4Es0tet4GhvdCmmQibf5/MiXw1w1ZIrcGyzBaNGWZH6Sx36SLXJghLirCF2nN9pxsAvbKgwwRNNSqiRXY5jumXF4TUGVJmrRB45Rz/pE1dX2hNoLlmxd3o4Bq4CLqaR1gMDPNC9ljrRFJtigPuv/lTwdVOAAv9eAZn2OHPpRqw9/xC6FOlQObOkrqjtoYSIa/dx/GEWBGasIlNQKsiHlBZe7jYC0RQxCTmHPev/wG9/bISlQBeUl9ofPhojwh9ex/Vz+3D01CVsV3yDFfOaoZJ039YfW4+tm9Zi5U0diucLhJ9KJQFOCqacu4XQp2mQo2dftAj0QcjBMZg/7wjO6NMga4X8SOe0AU9P4sJJC9KXb4qK9WrIh2r0t+BdA5yH4Qx2Ll6CP7cHI1gXgPqlIxrN3QneituPciN7iYZo0SEQ6aSRd0SAO43LPgEoU60AivonkQDnxM3La3A7RV1UqlQLDYulhzYsKsDdhD1vAZQtlxuBqXygtYbjhux7J303NK1ZEZXzpIKHVJs03j6ERSN/xh57IPyzZkDmNFqYDA9w8/pO3MnSDz3ql0DRjEnhcPWB4wjcv/dnkFdOAQrEu4DxigULxkuRkVkOPCmlwvyp3ijpr4DvC3PvXw1wrj5wT67asWOUARMfAyVktC1LGgWsUqH5xolbmB10Fx+P9EKNov7I4Z8Gvk4PXN1lQK3GDlhbaTCitw6Ni6qhvi9NxdeEo3RvJ9L39cDI9lo0SgTtA6LQGeDi/e3HE1CAAhSID4Fwd1PtNfNnYN7xl4+fr0pTNO36CSL7WEf85d0DWLniLBYfSYUvp36AHBJWolZome8cxYlNM9D398PPDpSlcmtUKJkJ2S7/jqF/NsPXsxqidI5kkFmTCLuxB0eWD5DHAbPkMteWoZRUVmzzEboUfV6f686+MVi2bCnm735+fXX6jkWjqqWQT9bavWkzPb6CSyvaYuiND9G2UTXUDEyL1zrehZ3Crj/+xI4Docg1YBwaSPNwV7NV4DbO/bkUy8cuhHxxGrEVao+ush6vRZmINYPOZwHOF6kLeSJ3nhtYs1S+4nWVZCn5EQZ1kSIr+dO4z2l7FuByoEpzpTRFv4Kdm64AHlIkRfb9qVc5FM2U9HkFSRklVTwOwtQvp2DDyWvSaEC2JBnhVbYnJvYujYAkHm53t/m+dfj0WAn81ruMrJeTAjLx8TbhMSlAAQr8iwVOL7Rg+XIrDjRRY34jqQDpmuP/wmaVUbOg8QYcCFChdEkNymV2fRA4YTdbsKKNFX/ediJYHgnTX4fRvFO+sLuGJBo18uTKjgrlSyN/jhx4dM6Mn3s7YO+qQbPqGhT2lwV2MoXznky7bzPEger9vNGovBKRrUUThSYDXKK4DbwIClCAAhR4XwIvBrhsTRviky/KIHs01TBd1/NigGs8vCU6twuMpijL+7pynocCFKDA/6eAXWbZ26R8v9UaP68vKGgvFssMjc6dWyPcYMTWrbuQP38gGtSvF6sTyqQTeHpGX/85Vgf6hzszwP1DQD6dAhSgAAX+XQIMcP+u+8WrpQAF/v8Fjh+Xqo8y2rZ4ceS0jn/0kp2vPdvh3Izs2f/A6lXz4JQv7D759BtsWJ9e9usYwzNFhLbSpWUkcL6rA13CbgxwCevPs1OAAhSgwHsWYIB7z+A8HQUoQIG3CDx54sT16w7cuOGIF6u9+9Zi164Z2LH9L/fxu3b/RGZaZkajhh/G6nwpUihQqlTC94JjgIvVbePOFKAABSjwrxdw2GG8sgUrd2uRLHcOFC+VHsne8KIcFr1730XbkyFn+TwokC9VoqlC9q+/D3wBFKAABdA659oAAAiSSURBVN6TwNJlq/HL+KnYGRngunTrjxzZAzBoYJ/3dAVxexoGuLj15NEoQAEKUIACFKAABShAgUQkEF2A8/L0RLu2TaHVaZExQ3oola4mqNLgW6eTdW6JpOHbGwwZ4BLRm4uXQgEKUIACFKAABShAAQrErUB0Ae7atesoUrgAfH29ZVpkcdhldoYskEPatKmRJXPGZyFOq9VKuJPKlIloY4BLRDeDl0IBClCAAhSgAAUoQAEKxK1AdAHObrOhbt0aePo0DEePnsTV4BswGk3IFpAZ5cqVRMEC+dwXkS1bFnh7e8ngXMJXn4xSYYCL2/cHj0YBClCAAhSgAAUoQAEKJCKB6AJc5kzp0b9fT1y7dgNNm3fG2DHfIn16f2zYsA2bNm9HihTJ3a+gZIki+KBONeSS3nGJZWOASyx3gtdBAQpQgAIUoAAFKEABCsS5wN8VMblyNRjVajTD8j9nIrcUtpo8ZQ7Wr9+Cvn26w2Q2Y+XK9WjWrD5q1awS59f1rgdkgHtXOT6PAhSgAAUoQAEKUIACFEj0An8X4K5evY6adVpi2Z8zkD9fbkycNBN7gg5i5vSfYbFY0bb9h2jRvAFatWycaF4nA1yiuRW8EApQgAIUoAAFKEABClAgrgVeDXCuPnCuNgIDP+/tnkJZr2E7LFowBXnz5sTkqXOwb/8RzJz2s/syan/QSsJbI7Rv1zyuL+udj8cA9850fCIFKEABClCAAhSgAAUokNgFXg1wXw8ejcxSabJb17a4fecePv1sCEaN+AIBUsBk3oKl7qImY34cygCX2G8sr48CFKAABShAAQpQgAIU+P8TeDXAhYQ8hlqthp+fLxwOB/R6g7vSpEqlRHDwTTx+8gSFCuZngPv/eyvwFVGAAhSgAAUoQAEKUIACiUXg3r0HOHDwKLZt243z5y+hePHCaNigNi5fuYZfxk/Fzu1/uS/Vbre72wJE9Xdzhbio/3ete3P9fVQzb06hTCx3l9dBAQpQgAIUoAAFKEABCvxfCRw8dAyrVm1wtwPw8fHGrVt34Ap1585dQphe/yzAxeZFM8DFRov7UoACFKAABShAAQpQgAIUiKHAli07sWTpKrRr0wwFCuTFhYtXsHPHXmzfGQSr1Yq1qxfE8EjPd2OAizUZn0ABClCAAhSgAAUoQAEKUODtAkF7D8K13i1P7pxo1LA2kiVLiocPQxAkbQFOnzmPr77s9/aDvLIHA1ysyfgEClCAAhSgAAUoQAEKUIACbxe4KVMmN2zYijlzl2D4sIEoUjgQvr4+0s/NAqPRhCRJ/N5+kFf2qCNtBFqyjUCs3fgEClCAAhSgAAUoQAEKUIACfyvgdDrd697mzF2MU6fPoX+/niherJD7Oa6/cxUuie1Wr0E7dyPvtm2axvap8bY/+8DFGy0PTAEKUIACFKAABShAAQq8TwHXWrc7d+9j5swF0Ok8UK1qeRSLDHGxuQ5XZcqQkCfo9eEANGtWH82bNYjN0+N1Xwa4eOXlwSlAAQpQgAIUoAAFKECB9yngCl+uNW8bN25H8uRJUb5cKWTPHhCrSzCbzTh8+IQ09v7T3YqgRvVKsXp+fO7MABefujw2BShAAQpQgAIUoAAFKJAgAq4AF7TvINKmSY3WrRq7G3fHdAsNfYqJv8+CVqNBzRqVkT9/7pg+Nd73Y4CLd2KegAIUoAAFKEABClCAAhR43wJ37913FzS5dOkqWrZoiIoVSkOlUr31MkwmMy5dvorvvh/vbklQokQRqWiZ5K3Pe187MMC9L2mehwIUoAAFKEABClCAAhR4rwLHT5zG6tWbcPnKNQz9ZgBSpUoBDw/dGwuauNbQXbp8DevWbcFTGYXr0qUNMmZM/16v+W0nY4B7mxD/ngIUoAAFKEABClCAAhT4VwrYbDYcP3EGCxYsw7FjJ6UXXH8palLwjdMpDx85jrnz/sTuXfsx/peRKFgwH7y9vRLVa2eAS1S3gxdDAQpQgAIUoAAFKEABCsSlQHi4wT0lct36rTh48BgCZT1b6VLFEBCQCRqNGmFhBmk/cBvHT56RypOPkSZ1KhQuFOgOej4+3lAqlXF5Of/4WAxw/5iQB6AABShAAQpQgAIUoAAFErOA2WzBteAb7gD36FEIwg0GuCpNOh1OqJQqqDUq90hbhgzpkCd3TmTLlsU91TIxbgxwifGu8JooQAEKUIACFKAABShAgTgXcK1xu3DxCs6du4jbt+/CZrPD09MDqVKmQI4cAcicOSOSJPGL8/PG5QEZ4OJSk8eiAAUoQAEKUIACFKAABSgQjwIMcPGIy0NTgAIUoAAFKEABClCAAhSISwEGuLjU5LEoQAEKUIACFKAABShAAQrEowADXDzi8tAUoAAFKEABClCAAhSgAAXiUoABLi41eSwKUIACFKAABShAAQpQgALxKMAAF4+4PDQFKEABClCAAhSgAAUoQIG4FGCAi0tNHosCFKAABShAAQpQgAIUoEA8CjDAxSMuD00BClCAAhSgAAUoQAEKUCAuBRjg4lKTx6IABShAAQpQgAIUoAAFKBCPAgxw8YjLQ1OAAhSgAAUoQAEKUIACFIhLAQa4uNTksShAAQpQgAIUoAAFKEABCsSjAANcPOLy0BSgAAUoQAEKUIACFKAABeJSgAEuLjV5LApQgAIUoAAFKEABClCAAvEowAAXj7g8NAUoQAEKUIACFKAABShAgbgUYICLS00eiwIUoAAFKEABClCAAhSgQDwKMMDFIy4PTQEKUIACFKAABShAAQpQIC4FGODiUpPHogAFKEABClCAAhSgAAUoEI8CDHDxiMtDU4ACFKAABShAAQpQgAIUiEsBBri41OSxKEABClCAAhSgAAUoQAEKxKMAA1w84vLQFKAABShAAQpQgAIUoAAF4lKAAS4uNXksClCAAhSgAAUoQAEKUIAC8SjwP3jL50gFCYB/AAAAAElFTkSuQmCC;" parent="WIyWlLk6GJQsqaUBKTNV-1" vertex="1">
          <mxGeometry x="80" y="460" width="420" height="103.08" as="geometry" />
        </mxCell>
        <mxCell id="yrl_nnDMig1rZQWOPwWd-13" value="Steps" style="swimlane;fontStyle=0;childLayout=stackLayout;horizontal=1;startSize=26;fillColor=#B9E0A5;horizontalStack=0;resizeParent=1;resizeParentMax=0;resizeLast=0;collapsible=1;marginBottom=0;whiteSpace=wrap;html=1;" parent="WIyWlLk6GJQsqaUBKTNV-1" vertex="1">
          <mxGeometry x="70" y="310" width="440" height="104" as="geometry">
            <mxRectangle x="80" y="280" width="70" height="30" as="alternateBounds" />
          </mxGeometry>
        </mxCell>
        <mxCell id="yrl_nnDMig1rZQWOPwWd-14" value="1 - fetch request to local server to get the existing contacts" style="text;strokeColor=none;fillColor=#D4E1F5;align=left;verticalAlign=top;spacingLeft=4;spacingRight=4;overflow=hidden;rotatable=0;points=[[0,0.5],[1,0.5]];portConstraint=eastwest;whiteSpace=wrap;html=1;" parent="yrl_nnDMig1rZQWOPwWd-13" vertex="1">
          <mxGeometry y="26" width="440" height="26" as="geometry" />
        </mxCell>
        <mxCell id="yrl_nnDMig1rZQWOPwWd-15" value="2 - generate the contacts in a return statement" style="text;strokeColor=none;fillColor=#D4E1F5;align=left;verticalAlign=top;spacingLeft=4;spacingRight=4;overflow=hidden;rotatable=0;points=[[0,0.5],[1,0.5]];portConstraint=eastwest;whiteSpace=wrap;html=1;" parent="yrl_nnDMig1rZQWOPwWd-13" vertex="1">
          <mxGeometry y="52" width="440" height="26" as="geometry" />
        </mxCell>
        <mxCell id="yrl_nnDMig1rZQWOPwWd-16" value="&lt;div&gt;3 - create a click event to handle the rendering of the contacts&lt;/div&gt;&lt;div&gt;&lt;br&gt;&lt;/div&gt;" style="text;strokeColor=none;fillColor=#D4E1F5;align=left;verticalAlign=top;spacingLeft=4;spacingRight=4;overflow=hidden;rotatable=0;points=[[0,0.5],[1,0.5]];portConstraint=eastwest;whiteSpace=wrap;html=1;" parent="yrl_nnDMig1rZQWOPwWd-13" vertex="1">
          <mxGeometry y="78" width="440" height="26" as="geometry" />
        </mxCell>
        <mxCell id="yrl_nnDMig1rZQWOPwWd-21" value="Feature - Contact List" style="whiteSpace=wrap;html=1;fillColor=#97D077;" parent="WIyWlLk6GJQsqaUBKTNV-1" vertex="1">
          <mxGeometry x="80" y="10" width="390" height="40" as="geometry" />
        </mxCell>
        <mxCell id="yrl_nnDMig1rZQWOPwWd-22" value="&lt;br&gt;&lt;div&gt;&lt;div&gt;When view is clicked it should render the details for that user&lt;br&gt;&lt;/div&gt;&lt;br&gt;&lt;/div&gt;" style="rounded=0;whiteSpace=wrap;html=1;fillColor=#D5E8D4;strokeColor=#666666;glass=0;shadow=0;fontColor=#333333;align=left;verticalAlign=middle;labelPosition=center;verticalLabelPosition=middle;" parent="WIyWlLk6GJQsqaUBKTNV-1" vertex="1">
          <mxGeometry x="160" y="220" width="280" height="30" as="geometry" />
        </mxCell>
        <mxCell id="yrl_nnDMig1rZQWOPwWd-24" style="edgeStyle=orthogonalEdgeStyle;rounded=0;orthogonalLoop=1;jettySize=auto;html=1;exitX=0;exitY=0.5;exitDx=0;exitDy=0;entryX=0;entryY=0.5;entryDx=0;entryDy=0;" parent="WIyWlLk6GJQsqaUBKTNV-1" source="yrl_nnDMig1rZQWOPwWd-27" target="yrl_nnDMig1rZQWOPwWd-28" edge="1">
          <mxGeometry relative="1" as="geometry" />
        </mxCell>
        <mxCell id="yrl_nnDMig1rZQWOPwWd-25" style="edgeStyle=orthogonalEdgeStyle;rounded=0;orthogonalLoop=1;jettySize=auto;html=1;exitX=0;exitY=0.5;exitDx=0;exitDy=0;entryX=0;entryY=0.5;entryDx=0;entryDy=0;" parent="WIyWlLk6GJQsqaUBKTNV-1" source="yrl_nnDMig1rZQWOPwWd-27" target="yrl_nnDMig1rZQWOPwWd-29" edge="1">
          <mxGeometry relative="1" as="geometry" />
        </mxCell>
        <mxCell id="yrl_nnDMig1rZQWOPwWd-26" style="edgeStyle=orthogonalEdgeStyle;rounded=0;orthogonalLoop=1;jettySize=auto;html=1;exitX=0;exitY=0.5;exitDx=0;exitDy=0;entryX=-0.014;entryY=0.456;entryDx=0;entryDy=0;entryPerimeter=0;" parent="WIyWlLk6GJQsqaUBKTNV-1" source="yrl_nnDMig1rZQWOPwWd-27" target="yrl_nnDMig1rZQWOPwWd-36" edge="1">
          <mxGeometry relative="1" as="geometry">
            <Array as="points">
              <mxPoint x="780" y="90" />
              <mxPoint x="780" y="234" />
            </Array>
          </mxGeometry>
        </mxCell>
        <mxCell id="yrl_nnDMig1rZQWOPwWd-48" style="edgeStyle=orthogonalEdgeStyle;rounded=0;orthogonalLoop=1;jettySize=auto;html=1;exitX=0;exitY=0.5;exitDx=0;exitDy=0;entryX=0;entryY=0.5;entryDx=0;entryDy=0;" parent="WIyWlLk6GJQsqaUBKTNV-1" source="yrl_nnDMig1rZQWOPwWd-27" target="yrl_nnDMig1rZQWOPwWd-47" edge="1">
          <mxGeometry relative="1" as="geometry" />
        </mxCell>
        <mxCell id="yrl_nnDMig1rZQWOPwWd-27" value="A user can &lt;strong&gt;create a contact&lt;/strong&gt; at &quot;/contacts/add&quot; via a form when the &quot;Add New Contact&quot; " style="rounded=0;whiteSpace=wrap;html=1;" parent="WIyWlLk6GJQsqaUBKTNV-1" vertex="1">
          <mxGeometry x="800" y="70" width="340" height="40" as="geometry" />
        </mxCell>
        <mxCell id="yrl_nnDMig1rZQWOPwWd-28" value="&lt;br&gt;&lt;div&gt;&lt;div&gt;generate the form&lt;br&gt;&lt;/div&gt;&lt;br&gt;&lt;/div&gt;" style="rounded=0;whiteSpace=wrap;html=1;fillColor=#D5E8D4;strokeColor=#666666;glass=0;shadow=0;fontColor=#333333;align=left;verticalAlign=middle;labelPosition=center;verticalLabelPosition=middle;" parent="WIyWlLk6GJQsqaUBKTNV-1" vertex="1">
          <mxGeometry x="850" y="130" width="280" height="30" as="geometry" />
        </mxCell>
        <mxCell id="yrl_nnDMig1rZQWOPwWd-29" value="&lt;br&gt;&lt;div&gt;&lt;div&gt;The form should be a controlled element&lt;br&gt;&lt;/div&gt;&lt;br&gt;&lt;/div&gt;" style="rounded=0;whiteSpace=wrap;html=1;fillColor=#D5E8D4;strokeColor=#666666;glass=0;shadow=0;fontColor=#333333;align=left;verticalAlign=middle;labelPosition=center;verticalLabelPosition=middle;" parent="WIyWlLk6GJQsqaUBKTNV-1" vertex="1">
          <mxGeometry x="850" y="180" width="280" height="30" as="geometry" />
        </mxCell>
        <mxCell id="yrl_nnDMig1rZQWOPwWd-35" value="Feature - add a new contact" style="whiteSpace=wrap;html=1;fillColor=#97D077;" parent="WIyWlLk6GJQsqaUBKTNV-1" vertex="1">
          <mxGeometry x="770" y="10" width="390" height="40" as="geometry" />
        </mxCell>
        <mxCell id="yrl_nnDMig1rZQWOPwWd-41" style="edgeStyle=orthogonalEdgeStyle;rounded=0;orthogonalLoop=1;jettySize=auto;html=1;exitX=0.5;exitY=1;exitDx=0;exitDy=0;entryX=0;entryY=0.5;entryDx=0;entryDy=0;" parent="WIyWlLk6GJQsqaUBKTNV-1" source="yrl_nnDMig1rZQWOPwWd-36" target="yrl_nnDMig1rZQWOPwWd-37" edge="1">
          <mxGeometry relative="1" as="geometry">
            <Array as="points">
              <mxPoint x="990" y="270" />
              <mxPoint x="890" y="270" />
              <mxPoint x="890" y="295" />
            </Array>
          </mxGeometry>
        </mxCell>
        <mxCell id="yrl_nnDMig1rZQWOPwWd-42" style="edgeStyle=orthogonalEdgeStyle;rounded=0;orthogonalLoop=1;jettySize=auto;html=1;exitX=0.5;exitY=1;exitDx=0;exitDy=0;entryX=0;entryY=0.5;entryDx=0;entryDy=0;" parent="WIyWlLk6GJQsqaUBKTNV-1" source="yrl_nnDMig1rZQWOPwWd-36" target="yrl_nnDMig1rZQWOPwWd-38" edge="1">
          <mxGeometry relative="1" as="geometry">
            <Array as="points">
              <mxPoint x="990" y="270" />
              <mxPoint x="890" y="270" />
              <mxPoint x="890" y="335" />
            </Array>
          </mxGeometry>
        </mxCell>
        <mxCell id="yrl_nnDMig1rZQWOPwWd-43" style="edgeStyle=orthogonalEdgeStyle;rounded=0;orthogonalLoop=1;jettySize=auto;html=1;exitX=0.5;exitY=1;exitDx=0;exitDy=0;entryX=0;entryY=0.75;entryDx=0;entryDy=0;" parent="WIyWlLk6GJQsqaUBKTNV-1" source="yrl_nnDMig1rZQWOPwWd-36" target="yrl_nnDMig1rZQWOPwWd-39" edge="1">
          <mxGeometry relative="1" as="geometry">
            <Array as="points">
              <mxPoint x="990" y="270" />
              <mxPoint x="890" y="270" />
              <mxPoint x="890" y="382" />
            </Array>
          </mxGeometry>
        </mxCell>
        <mxCell id="yrl_nnDMig1rZQWOPwWd-44" style="edgeStyle=orthogonalEdgeStyle;rounded=0;orthogonalLoop=1;jettySize=auto;html=1;exitX=0.5;exitY=1;exitDx=0;exitDy=0;entryX=0;entryY=0.5;entryDx=0;entryDy=0;" parent="WIyWlLk6GJQsqaUBKTNV-1" source="yrl_nnDMig1rZQWOPwWd-36" target="yrl_nnDMig1rZQWOPwWd-40" edge="1">
          <mxGeometry relative="1" as="geometry">
            <Array as="points">
              <mxPoint x="990" y="270" />
              <mxPoint x="890" y="270" />
              <mxPoint x="890" y="415" />
            </Array>
          </mxGeometry>
        </mxCell>
        <mxCell id="yrl_nnDMig1rZQWOPwWd-36" value="&lt;br&gt;&lt;div&gt;&lt;div&gt;The created contact should have:&lt;br/&gt;&lt;/div&gt;&lt;br&gt;&lt;/div&gt;" style="rounded=0;whiteSpace=wrap;html=1;fillColor=#FFFFFF;strokeColor=#666666;glass=0;shadow=0;fontColor=#333333;align=left;verticalAlign=middle;labelPosition=center;verticalLabelPosition=middle;" parent="WIyWlLk6GJQsqaUBKTNV-1" vertex="1">
          <mxGeometry x="850" y="220" width="280" height="30" as="geometry" />
        </mxCell>
        <mxCell id="yrl_nnDMig1rZQWOPwWd-37" value="first name" style="rounded=0;whiteSpace=wrap;html=1;" parent="WIyWlLk6GJQsqaUBKTNV-1" vertex="1">
          <mxGeometry x="935" y="280" width="70" height="30" as="geometry" />
        </mxCell>
        <mxCell id="yrl_nnDMig1rZQWOPwWd-38" value="lastname" style="rounded=0;whiteSpace=wrap;html=1;" parent="WIyWlLk6GJQsqaUBKTNV-1" vertex="1">
          <mxGeometry x="935" y="320" width="95" height="30" as="geometry" />
        </mxCell>
        <mxCell id="yrl_nnDMig1rZQWOPwWd-39" value="street" style="rounded=0;whiteSpace=wrap;html=1;" parent="WIyWlLk6GJQsqaUBKTNV-1" vertex="1">
          <mxGeometry x="935" y="360" width="95" height="30" as="geometry" />
        </mxCell>
        <mxCell id="yrl_nnDMig1rZQWOPwWd-40" value="city" style="rounded=0;whiteSpace=wrap;html=1;" parent="WIyWlLk6GJQsqaUBKTNV-1" vertex="1">
          <mxGeometry x="935" y="400" width="95" height="30" as="geometry" />
        </mxCell>
        <mxCell id="yrl_nnDMig1rZQWOPwWd-47" value="When the form is submitted, the created contact should be saved in the database by sending to json-server" style="rounded=0;whiteSpace=wrap;html=1;" parent="WIyWlLk6GJQsqaUBKTNV-1" vertex="1">
          <mxGeometry x="827" y="450" width="350" height="60" as="geometry" />
        </mxCell>
        <mxCell id="yrl_nnDMig1rZQWOPwWd-49" value="Create a Post request to add new contact to json file" style="text;html=1;align=center;verticalAlign=middle;resizable=0;points=[];autosize=1;strokeColor=#2E2E2E;fillColor=none;" parent="WIyWlLk6GJQsqaUBKTNV-1" vertex="1">
          <mxGeometry x="877" y="533.08" width="300" height="30" as="geometry" />
        </mxCell>
        <mxCell id="yrl_nnDMig1rZQWOPwWd-50" value="" style="shape=image;verticalLabelPosition=bottom;labelBackgroundColor=default;verticalAlign=top;aspect=fixed;imageAspect=0;image=data:image/png,iVBORw0KGgoAAAANSUhEUgAABOQAAAKDCAYAAAC64NXEAAAgAElEQVR4XuzdeYDO5f7/8Vfd4UQZWeaXpWxpJIkoIVsqhBMSjqVsIUuFIlSOCnFKZTtyRNaDslRj6ahsJUpZkiwJEeeM3ck4Bt9+1+ee5d4+9z33PTP3Pdvz/qvMZ7se12fM5TXXdb2v+sN8xAcBBBBAAAEEEEAAAQQQQAABBBBAAAEEIiJwFYFcRJy5CQIIIIAAAggggAACCCCAAAIIIIAAAk4BAjleBAQQQAABBBBAAAEEEEAAAQQQQAABBCIoQCAXQWxuhQACCCCAAAIIIIAAAggggAACCCCAAIEc7wACCCCAAAIIIIAAAggggAACCCCAAAIRFCCQiyA2t0IAAQQQQAABBBBAAAEEEEAAAQQQQIBAjncAAQQQQAABBBBAAAEEEEAAAQQQQACBCAoQyEUQm1shgAACCCCAAAIIIIAAAggggAACCCBAIMc7gAACCCCAAAIIIIAAAggggAACCCCAQAQFCOQiiM2tEEAAAQQQQAABBBBAAAEEEEAAAQQQIJDjHUAAAQQQQAABBBBAAAEEEEAAAQQQQCCCAgRyEcTmVggggAACCCCAAAIIIIAAAggggAACCBDI8Q4ggAACCCCAAAIIIIAAAggggAACCCAQQQECuQhicysEEEAAAQQQQAABBBBAAAEEEEAAAQQI5HgHEEAAAQQQQAABBBBAAAEEEEAAAQQQiKAAgVwEsbkVAggggAACCCCAAAIIIIAAAggggAACBHK8AwgggAACCCCAAAIIIIAAAggggAACCERQgEAugtjcCgEEEEAAAQQQQAABBBBAAAEEEEAAAQI53gEEEEAAAQQQQAABBBBAAAEEEEAAAQQiKEAgF0FsboUAAggggAACCCCAAAIIIIAAAggggACBHO8AAggggAACCCCAAAIIIIAAAggggAACERQgkIsgNrdCAAEEEEAAAQQQQAABBBBAAAEEEECAQI53AAEEEEAAAQQQQAABBBBAAAEEEEAAgQgKEMhFEJtbIYAAAggggAACCCCAAAIIIIAAAgggQCDHO4AAAggggAACCCCAAAIIIIAAAggggEAEBTIkkNs+pLyqjvslwGM71GxOvGI75U29aVsGqszdb+lQoCObzdEfsZ1SvxZHIIAAAggggEDGCMQf1+bPpmr2lI+0YusBxZ08pfgrSZfOW1DRhUqpYpPm6tXnObWsWUz5M+auXCVbCCTozL4v9cH0WZobu0q7j5xR3LmEpCd3KH/hIoouW00PdxisZ7vdpwqFghgPZot285AIIIAAAggggEDaBSIUyEkFOnyi3+c1T/VJfx1zl0oP2xr4OAK5VB05AAEEEEAAgQwRiN+paX06atjcHTqZHMClcuG8N9bXszPm6tWmpUT0kgqW8Z0/uJfW1P1K/2iXIT0WwYsk6MjK19Wz7yitPJAcwKVye0d+VWj1lpbM6qnKuTK1NWZfTtKA0f/ViytG6M4I9lZkb5Vb2hlZVe6GAAIIIJCzBCIWyKncYG3bPzaVgcdpTapXWP03pIJMIJez3kJagwACCCCQJQXiVg9Ri8fG6ZuzaXk8h0p1+EDfzWul6LScntPPSTiiLycN0ONDP5SVZTWb84dZSZCNGp2wRzPaPaCey44oyJzWs3FR92j0Zxs0tEbuiWzjd87X4F5Pa+rGk7oS1Lg4G70Pbo+aW9qZPXuHp0YAAQQQyEoCkQvkVE2jD32voTcHaH7CXDXP31nLUxvZEchlpXeIZ0EAAQQQyIECcXOb69bOy5WmLM7NI8r8zN5rkiZCuWSUeO2c1kcdh83VDrcph9kqkEvYoiFV7tW4PakN2FL5xnDEaPCmHRqbw0O5hCMr9XrPvhq18oBS5hHmwEAut7QzB/51T5MQQAABBDJJIIKBnFR34imt73eD/6bGdtR1LebrfGoYBHKpCfF1BBBAAAEE0iyQUWFc4gM4FDN4k3aMrcHyVYtj+xCVrzpO3jvvZptALqPCuOS3M6qZ5uyNVaccnNjObX6VTLbt+cmBgVxuaWea/2LlRAQQQAABBLwEIhrIOUyQFm9+S+5vccLaXtFqOO146p1EIJe6EUcggAACCCCQFoE4M1v9VjNb3XZqnENFqnTSM68+pW71qqmkc3P+eB3/cZPm/G2ARvvbZ85hZsnvMbPky6flgXLYOdk6kEvQliFVdO+4PfbLVPOWVdNnh+q5x1vq3tsTC3sknPlNW1dM0MgX3/a7z1yU2Wc4zuwznFMXr+aWoCq3tDOH/Y1EcxBAAAEEMlEgrIFc6dKldeiQW73UAh30ye/zZF/aYbuGlK8q92KtBQoU0PnzNvPlCOQy8ZXh1ggggAACOVcgQbEdo9Vivk0a5yiiltO2aWE3/4UaEvZMUuOa/bXW5vScHroE/U5k50Bu/xjdFTNMW21WquatPFhrN49VLb+FGuK0ulc9NZ1mE+bl8MA2twRVuaWdQX+vcyACCCCAAAKpCIQ1kGvWoYPWzndfglpMPdfE6d0GNk/1qxnklTaDPLcv1a1bVxs22FR4IJDjxUYAAQQQQCDjBfa/oiq3jNAPPleOMkUH9pqiA6mvK0zYMkRV7h0nn+3FHGZpYrxZmphTp0EF2xvZNpBL0NJ2hdV6ke8vSh0xg7Vpx1ilvhVcnOY2v9Us3/RNbMsN3qb9Y3NmzdHcElTllnYG+63OcQgggAACCKQmEN5AbuJEnevfX+6Rmr8B1+lJ9VTYo7xqjIYveET/bO+7z4r5V4H+SKUUWcKZrfpwzCiNX7RB+47G6VzSLrp5C0arRIW6aturj3p3vF9l/f4m10VnN8BwtSNBZ7Z+qDGjxmvRmp90+FS8cxmHI39h3XRbQ7Ud+FeN6FDZuWzD32f7kPKq6j410HlgOQ3etl9+x6Zms+2rfDYkyYZV2lJ7Q/k6AggggEDEBPa/UkW3jPCN4xwN/q7ja3orwC6wbs/oL7hxmB/f8SbUc0/kfGfHWxdy7qfW9ohWvt5Tz72zTnucP1sdyl84RvV7DNe4ER1U2eYHa0b+7Hc1KOnn/NvvKnbVTh08eUrxbjPErJ/3RaLLqtrDHTT4ud6633ZgYd9O/x0beAwQnnam8polLFW7wq3lm8cVV9+vjmpS7SBfU3+hb9B7qsXrwBdT9ca4+VqxdZ+Oxp1LKZSQljGe/Z5+Jjz+w4THVpPiD+iLqW9o5HsfatvPyePJvCoYfYuqtumuUUP76b5SNimzn3GaX6UAY9v4A19o6hvjNH/FVo8xrfNaeQsqulApVWzSXL3McuE21QqFtvQ34Yy2rpqo6W8u0Ic7D+pk0jg28dLRKlSqotq0H6Qe/ZuomnOJutcnA9sZ5BvEYQgggAACCOQYgfAGcnN+VNXXbteoPW5e1Ubr0PdD5VlsNcH8xjS/+Y2p2wi3WE+tWV1I3W02Pg4cyJklEUNa6S9vbpRb8TL7DjN7nbSZ+LFm9QwcmPkN5AbFaUirv+hNq3x9gFcib9kntGDT+2rlZ2IBgVyO+X6iIQgggEA2FvhVY+4qrWHuU9WdrSmgtktOaWGrEKa2re2lEs0+VL7b7tZdNeuoad06qlX3LlUo6R0W+Avk/qP2C+xnUllFIhr8/bjW9HaPBzP+Z7+z6XGr1a9Rc03emVIbM5X+zauybf6ulfO6KcaDK6MCuTC1M5i31l/hrTtG6ucdLyv47QFPa1K9GzV8jwm07quhe++rqzq1H1StO0qrWMBfkiboyMqX1K7zm9qY6gDPSpNuVP1nZ2vR2AcDV/i1nbFoBXJLdPeMjmr61Ic6EKj7zVLu2q+u0pqhXkVLMiKoStijSc3r6NnVgceZru4zezzWHqR/Lh2rB1OdzBqip9XOQf/UUm/PjGhnMO8fxyCAAAIIIJADBcIcyP2h5zZ4F2qoq4mn1suz2GqsOl7XQvPdVkE4C0CM+kG3hRLIWQOXxjXV327zGr+d51CpDh/ou3mt/A7YbAO5roN125Jxfja99r1ZoOUcBHI58DuLJiGAAALZTSBhhhrn665/eT+3o6UWXDazo8LSHvugqlxMjA7t8VM4oEBbLTm1UCn5YJh+9itgcYvAGFFmDLPXzOR3ZSIZEMiFq51B9uuWgWV091tu+wInnRcz/Eftfq1SkFdJ62FxWtqxuh6bfyTgL0Dtrp7q3na2gdxDGjD4kCb4K17hcyObJd3pDarSUc029SXEpjjHi9VVZ9TOlNmFwfaMz7ud3nYGe2OOQwABBBBAIAcKhD2QW2JKOOQ3SytdM8gKqMMnv8sU03J9bAZD1UYf0vcPT1b5oAM5//uSpN5vDsUM3qQdY71+u5l0ou2eGKlf1OsIh6qN3qPvbUrMEciFjMkJCCCAAAIZLeBnbzPFDNePu19TeCKXUIMqqXjfr3Q0ZX1kuH72x2lG43Lq/i+bwlJBuXvPKgy1nd5LVsPVzqAa4zzIfizkUMsFl83ecsFfJ/Qj09P2xLsFDKj8vfehPmiUKVwWZwqXJc+MTFdQZQKzgbeZAPSXUJ8i5fg7Rv6sHS/bz1uMm9pQNz21NuQwLknTc8ycrnamuXmciAACCCCAQI4QCGMglzRIq+VbrKFYzzWKc6vs8OuYu1TaY41MaQ349qDG5xkSdCCXYJZSRLeYL+9tgh1FHtSIRZPV/74KKqQz2rdyjLp0t1vu4H+/loCBXNQ96jtlgka0rGmWWlj7zLyvrn/uo2VHbBax2i7Xldm+hD3kcsR3E41AAAEEsrOAv39YB7Fva9qbHWpQdYdG/rxDyTlD2H72b+ynEnUm65hXw6IavKIlMwYl7RMXr+Obl2lwj65632ZJq/dYJ+VSaSjqELZ2Bt1x/voplf1ug76+/wPjZjRWue7/kk80ai2h7D1B40e0VE1rrWv8cW1eNlIDn55qu6Q1quUCHTDJoc8+iAEDObOKouU4zRrXTfdVMMutzX5yH41sryfGfeMz3rSWdvv8wjmpWSEXOzg9VQ2LPaW1XkNJR0wnzf7nxKR94syYc9+Xmti3rUbaLWmtO1Gn1vfzbW/cJNUrYfZ39h6mOkqp5bhZGtftPlUwe8UlnNmnlWO6qLvdFjB+quKG3M4MeD+4BAIIIIAAAtlZIIyBXPIgbYsGlrlbHqscPDbutfYSKSyPeg4FzG8Zfze/ZfQ3SPL5x8F+vVLlFvnsQx1l9gDZazbl9d5Hw88ylAJtl+jUwlY+m+H6DeT8Xt/fYMd+2Q+BXHb+FuLZEUAAgRwikOUCOTN7vedifTK2qTMgsD4J8fFS/vxJP6fD97N/bS/v7TbMzYubvW0PvqsG3lvpxY1Xrf83SJu8X4OH3tPFT7v5brAfciAXvnYG/+ZmUiCXsFa9yjTUNO9k1BGjARu+1/haNpvOxX+tgXfV1Vs+ZX79FJ/wG8j5Wz2RoLW9yqihz0PJTCa1X74balDlW+jM9JTDbPly1Gz54j2mTVitbqUe0szjXr1ZeoC+PTheNbz+eGO/Eqoz2Ru0nPpt/EETbTzjTNG1EmaQ7p3fec5UTbxJqO0M/v3jSAQQQAABBHKmQAQCOZmNoK9R+2XuP8qrafSh7zXUquyQMFfN83eWez0HJf9WL9hAzvY4u02fXZ0YN76W/t8gr+GzwwR48SbA8xps+wvk/C8HsAkZnbd2q9rl9j4RyOXMby5ahQACCGQrgSwWyBUwgdYvJtDyuzd9OH/2m8qTv+37Xhv+9alWfvq51n/7k6Kf+0mbnQMX74+fsMpf1dBQA7lwtjPoFzRzArnTZmllMbO00jMMcphh4lGt90mm3Bqz36zOiBmmrV4pku0vXv2NNb33KnS3MkVLohtOk3cGVm7wNu0fe6ePauhBlZl9eegHfb36X/p05Wda++U2/eeBeTrhsd+L6zb241S7Mafvns3WVfz9Qtp5B6u6bokuWnt9BVW7q6bqNG2shx6srpjiJeVddDX0dgb9AnIgAggggAACOVIgIoGc3W/66k48ZQZTZuGATdUu5/5x1qD3V9/lrom51hz9YTZLTv74Lnm1vmJXPMKtD22vbb/cwH6gE3iZhu1v1wnkcuQ3EY1CAAEEcoRAlgrk/C//i9TP/uD7NLyBXLjHOMG1MzMCuQQz4yq/Onv8xtaZHnkW9bBtgJ9z7QqUBPvLX/f7nDYrIQqbZZ9e9864QC64Xkk+KuhAbstAlbn7LXmX5njovYv6tFsIVZT9PB6BXGj9xtEIIIAAAghEJJAzm6T57AXnrKJqQrWNPstCiqnnmjglbjFnZs9dZWbPefeTVyAX2/E6tXAv0eo83n42mutS9tdOCQPd7hn0QMftHPtZbzEa/uNueRcjY4Yc34gIIIAAApkukKUCuYf03sVPFSgjCPfP/oD9Yc2g27pei5Ys1rLYZdq065zvBvkZNEMuU9uZgpAZgZxZrhptlqt6T0PztxTYq8Nsl33K5pepfgI5f+Fa4m3sx5AOs0/dZZsKFxkfVJkZdD9u0ufm/Xv/o4+0YdtvivfZuthmHGz7PZ5x+wBmfDsz/W9FHgABBBBAAIGwCkQmkJPNFHnnPnGDtaF8VY1zLyLl8dvL4AK5jKmCmuhcesC3Ojjec8eNjAvk7Ac9BHJhfce5OAIIIIBAMAJ+luFlSpVVP/tfuTcj3D/7XfdK3Dx/1YLF+uCztfpy50GdPBXvs6eWD3EGBXKRa2egl8TfVhzhrLJqPwa0G6fZPrnZE/ia9st8+qnZnD/ktsjCqqxlW0AsLYGc9wqO5OdKb1AVf3yzPpu7RIut5dNb9+lonE0A7IPgG8ilabwZzN8dScekt50h3IpDEUAAAQQQyBECEQrkEjSjcT6ZIlluHzMTbo7ZcLaz2ePD/Y89qkJFPpCzG0zZDjBS+cdCKIOeUI5NofIzk8FnoJkjXlMagQACCCAQdgE/y/DkZ3/VgM9j9odtVewVXez9vJ7r3TGpKqndGSEu93S7REYGVbZBSsIRfTlpgLq9tFT7fKcfpd4dWTCQ8xcYpd4YmUIGNoUuzImBgyv7K28fcoeafF5dfV5+Rv2bVPPZiyzxLPsxYND3C3avPj/HBV7GGdz4NLn1aQuq4rVz/mD1G/QPrft3QjBd5HUMgVwa0DgFAQQQQACBiApEKJCztoO7S6WHeURvKl68uI4d86z05DnQCm7AE+5BeVoGUqGEbKEcSyAX0e8PboYAAgjkIgF/yxILqO2SU6ZAU/B7TCWYZXuFWy/SeaeeQ/lLVtVjA8dpeLf7UiqmJsL6uafHL+fsuyCsP/sTtujF6nU0aqd9EOLIX1gxNRqowQOP6dH2JRTbpL7ecp/tbz1yDgvkEswvAvN3Xu47M/COkfp5x8sqH/R3ilfV2LwFValRbw0f8Zxa1iwmV93UzJ0hF/gXnMGNT9MeyMVpbqtK6rLspP1MTGNW5o5aqteosR5t3Un/fjVavXz3d9GcP0yhMrd+SdN4M+h+pcpqCFQcigACCCCAgFMgjIGcV1EFf0thPDrCexPn4AY8aQnMQun/tFw/lEFPKMcmP7f93ihWvQuvpRihNJRjEUAAAQRytcDGfiVUZ7LnL8osEIcJyI6u7+e/4qmHWpwm1Suh/ht8NrVSsZ5rFJe4SWzSx08g57VXrF2npOVnc3Cde9qEj2VNdfiznoc7iqh27wkaP6KlahZzxUZ+Q8VwBnL+rh1cA9N21OmpaljsKa316dbiZu/fg2bv3+AC2wQzHixjKpT6vmXexbi2aGCZu/WWbwUCXTTVd1O7W3r3kMvMQG77ixVVfdQerzAur8q2GaPpo7vpvgqFPNof9NYqtqsr3PduTturkXxW+L4n0/dcnI0AAggggEBWFQhjIOc9VX6hWl3TXst8x+duNt6bOAcXyO0yA5fbzcDF45OWJTZ+eiktA4yQQrY0DJDsr08gl1W/0XguBBBAIFsI+Ks4qSjzC5+9Zu+t6FSbEWd+pt1qZlJ5xVnmvOLq+9VRTartfom0B3Jh+9lvW4XdoboTj5rq8HbtD3HZbbBLKZOYwtbOVHvS+4DTpurpTabqaeK8R/ePI2awNu0YqxqppWRm5uGQKvdq3B7fwaCjwd91fE1v3ZBy4TBUWXXuXzxPzT1eQfs95DIvkLPZd9n67jFh9kETZtsRBx3I+amyalfQzJ1oba/SemTZ1apQ7S7VrNNUjR96UNVjiqtkIc+nSct4OeTXkBMQQAABBBDIQQIRDOT8bQjspllttA59P1Q3p/xRcIGc2dhE0ea3rZ6FuAqYfzwcNv94cA3t0tpvaRlgpD+Qk/zvX+K13MOtYcyQS2svcx4CCCCAgOQ/dJGjlDrM/1oz25byOzspbnUv1Ws6TTZ5i2S7tDHtgVzYfvaHWonS7JfXPL+pCO+dMWXQDLmwtTMtr7vfwFaKumekVq55WbXcJw+63yNhjyY1rqn+a32jWsl+WbT9LLdA4WjSDfeP0V0xZo9irz4p0HaJTpliDx4xUogBaeIdghyfJj1OSOPIkJ/H31JzmyqrdkXWrGcMuOx4o/qVqCOfibM24WZI7UzL+8c5CCCAAAII5DCBCAZyViGr8qrqUVLVU9O3cpaf5Qo+S1n8DBaizGBkr9k/w+cX2glmfFtBzT78n8pUvk817r1PTRs/pFp3lFVpj2UoScOu5leZ3wh79Xwqy0VCCuT8LOf1t0TI/+wDZsjlsO9PmoMAAghEXsBPmJH4IA4VqdJJw956Xp3vvV3OH5kJZ/Tb1hWaMPJFvb3ygOx3XYtSh0/iNK+59/yedARyCtPPfttAzl8IFKdl7auq1ULfBZih7iHnf5ZSmNqZpjcrQbEdo9Vivl2oZi6Yt6yaPvuaRjz9sKqVTFxWGX/8R22a8zcNGD1XO07aL5NwmF/I7jG/kPXZh+60Cb5uMmGn96Q8R4wGbPhe4+3Sv/ivNfCuunrLJxW2r3Tvr8pq2GfI2c3Ws/rETyBnP0MuQXteraXbX/7eZq85u0BOsl+W7n8GbNyMxipnqrJ5d4FduGkbyPlrZ5reP05CAAEEEEAgZwlENJAzozhd12K+zw/1RFLv/eOcoxINKV9VPhmezd4ycZPqqUT/DT4DEkeR2uo9YbxGtKzp/IeDVTp+2eAe6vr+Tt9/NBQwg5fDJsDzmlSXlt/4hRTI+atsZ/7hU6rlFH08s4uqmWUBAZ896b1khlzO+galNQgggEBmCAT6xU9anieq5QIdMIUefOesB/9z3u6+YfnZb2ZQXdN+mW/AYWYItpzysWZ2saqCxuv45mUaOfBpTd3oZ+N9f7+4s10Sa6LOu17Wtg0jVdnM9/9x01odv+UxNUhaMhCWdqalI61zAiw7TdMlTbg2/Lvdeu1O+7P3m6JgMaYomE+U572nX/xxbV42UgOfnqqNNsGf3yWfIc9Is54ztBlysR2vMyGmd6RVXO0WfaPZj0Ur/retWvHtn9ShpUHY9aIq3j5KXhuxmHtG6Z7Bs7RgxCMqmz9BZ/Z9qRnDemjoh/5CcPtATnGTVK9Ef/lu8Wiu33eKJiTtkZhwZp++nNhXbUeuli+nfbgZUjvT9LJwEgIIIIAAAjlLILKBXMIMNc7XXf+yNfTezDe0QE7arzF3xWiY9/qEoPvL/xKIsAdyZonQ1IbF9JTvTslBP33ygQRyIZNxAgIIIICAj4CZeTOpsWr2X2uzF1xoXIH3F0tfIBeWn/0JS9WucGst8t0qLbSG+50ZZL9HmOfFvQOP8I1xQmtU0tFxq9WrXlNNs12bHMoVg9mb0FQcbX6rWangZ1ZeELfLW3m4vvruNfs97iIQyP1qQsXSJlQM+En5ZbP/bUmCaKrbIdU0+tD3GuraBybla+kL3B2KGbxJO8bW8Fm6Hlo7Q2sNRyOAAAIIIJATBSIbyOlXE5qVNqGZDWXMcP24+zVV8vhSiAP1NA8QzeCi50qtf/dB2wpy4Q/kTKO3m9+IVje/EQ1Y9MKFE9VssFr/NE4zf/G0JJDLid+mtAkBBBDIHIG41f3UqPlk7bRfh5rKQ5nlrbVf1ao1QwNs9h/iz3m7O4bhZ3+ogUVUgwa6ee1a/eDxfH6WSJr5+UvbFVbrVBI/n5/nYWhnut4qa0+45nX07Go/MwRTu7hZ3vrEgk16v1XqhUKUjntF3TNan20I8A5GIJDT/ldU5ZYRXu+HF5DbjMqELUNU5d5xQY8JHTENVPvUWm3w2EzZYfZSjjd7KduVgUjQlherq84om9UiqfRblAkO98Z2sq+4HGI7U3tF+DoCCCCAAAI5XSDCgZzM3m3RajjNs/yChVzMVI+KM9WjPD9pGKibQduMjk31lN8p/F63MAPCNn9fqXndYvxuUh2RQM48VnD/8DFl75+Yo/XTYjTxNt/lvARyOf1blvYhgAACERaI36lpT7TWgKX7FB/kL40cRaqo0+h5mtKzsvzt8Z/YijT8nLdrfob/7DeBxZiGavLSRpvlem4PYC2bfPkTrX65pN6x+YXjHSN/1o6XfXZGMz/w56pVpS5a5mdPNesOtnvKZXg70/suJejIypfUqdvbWvfvYFNbM45pOlyTp72gpqVSK8vq/nxm1uYHA9XtKfslqT4tscZ3Ez/WrNTewUgEciaETTUA85pRGbe0i+5tP0sHArImjwnbaltX32WxtkUsUqAS+65d5zdtl/j6eFrv+qB/aulY+19eJx4fejvT+wZyPgIIIIAAAtlZIHyBnL+9U2z3ZvH3W7y0D9QTzmzVh2Pe1ruxq7Tz4EmdSvlXRF4VjC6kUhXbqP2gHurfxNoLJnAXRiqQcz5F/AF99MbzenXmav1w8FziPneO/Cp8021q2LaX+vTuqPvLWv+8sbchkMvO3448OwIIIJCFBczPpy/mTdWsubFatfuIzsQl/YyyHjlvQUWXqKBq9Rrp0Sd6q+P9ZVMJ4pLbmfaf83ZSGfmz3xkvHPlSk8YM13sfbtPPye1N+Zk8UH8d0UGVkxJH271jozrok7h58qll4fx5v1PzRw7WqOnrtOdUfOIeada1i0SrbN226jv0BXWtbl8pPqPbmf63zuxptmKukDQAACAASURBVHWVJk6foo9WbNWBOPdxl0P5CxdxFtFq8MAT6tG/iXNf3LR/4nXgi3maOmuuYle59YvzNYzWLVWbqHmvZzW0TerjO+czRCSQc75NOvLlJL347EQt/eGgziUFbdYzFypVUW3av6xBLzVSOXcY5zvyV41ftEY/HT6VFIhb49hbVLVNd40a2k/3JYWaCaYYSX5TgcwjM3eYZat7zLJVm0w45TamKMvWVRM1/c0F+nDnQZ1MfheTPEtUqKaHOwzWc73vN3vXBdNraWhnMJflGAQQQAABBHKgQIYEcjnQhSYhgAACCCCAAAIIIIAAAggggAACCCAQFgECubCwclEEEEAAAQQQQAABBBBAAAEEEEAAAQTsBQjkeDMQQAABBBBAAAEEEEAAAQQQQAABBBCIoACBXASxuRUCCCCAAAIIIIAAAggggAACCCCAAAIEcrwDCCCAAAIIIIAAAggggAACCCCAAAIIRFCAQC6C2NwKAQQQQAABBBBAAAEEEEAAAQQQQAABAjneAQQQQAABBBBAAAEEEEAAAQQQQAABBCIoQCAXQWxuhQACCCCAAAIIIIAAAggggAACCCCAAIEc7wACCCCAAAIIIIAAAggggAACCCCAAAIRFCCQiyA2t0IAAQQQQAABBBBAAAEEEEAAAQQQQIBAjncAAQQQQAABBBBAAAEEEEAAAQQQQACBCAoQyEUQm1shgAACCCCAAAIIIIAAAggggAACCCBAIMc7gAACCCCAAAIIIIAAAggggAACCCCAQAQFCOQiiM2tEEAAAQQQQAABBBBAAAEEEEAAAQQQIJDjHUAAAQQQQAABBBBAAAEEEEAAAQQQQCCCAgRyEcTmVggggAACCCCAAAIIIIAAAggggAACCBDI8Q4ggAACCCCAAAIIIIAAAggggAACCCAQQQECuQhicysEEEAAAQQQQAABBBBAAAEEEEAAAQQI5HgHEEAAAQQQQAABBBBAAAEEEEAAAQQQiKAAgVwEsbkVAggggAACCCCAAAIIIIAAAggggAACBHK8AwgggAACCCCAAAIIIIAAAggggAACCERQgEAugtjcCgEEEEAAAQQQQAABBBBAAAEEEEAAAQI53gEEEEAAAQQQQAABBBBAAAEEEEAAAQQiKEAgF0FsboUAAggggAACCCCAAAIIIIAAAggggACBHO8AAggggAACCCCAAAIIIIAAAggggAACERQgkIsgNrdCAAEEEEAAAQQQQAABBBBAAAEEEECAQI53AAEEEEAAAQQQQAABBBBAAAEEEEAAgQgKEMhFEJtbIYAAAggggAACCCCAAAIIIIAAAgggQCDHO4AAAggggAACCCCAAAIIIIAAAggggEAEBQjkIojNrRBAAAEEEEAAAQQQQAABBBBAAAEEECCQ4x1AAAEEEEAAAQQQQAABBBBAAAEEEEAgggIEchHE5lYIIIAAAggggAACCCCAAAIIIIAAAggQyPEOIIAAAggggAACCCCAAAIIIIAAAgggEEEBArkIYnMrBBBAAAEEEEAAAQQQQAABBBBAAAEECOR4BxBAAAEEEEAAAQQQQAABBBBAAAEEEIigAIFcBLG5FQIIIIAAAggggAACCCCAAAIIIIAAAgRyvAMIIIAAAggggAACCCCAAAIIIIAAAghEUIBALoLY3AoBBBBAAAEEEEAAAQQQQAABBBBAAAECOd4BBBBAAAEEEJC2D1H5quP0S0gWzTTnj1h1cp4zV82v6qzlyeeXG6xt+8fqzpCul0EHJxzRytd7auIfY7RiRChP4NUGFVfPNQf1boO89g82t7mu6pzSYpUbvE37x4ZyvwxqL5dBAAEEEEAAAQQQyHYCBHLZrst4YAQQQAABBMIgkCMCuXjtnPaEWg9Yqn3xV9IQkHkHcpIjZri+2/2afbBIIBeGF5FLIoAAAggggAACuUOAQC539DOtRAABBBBAILBATgjk0h2Q+QZyJpJT3YlHtb5ftK9fuu/HS4kAAggggAACCCCQWwUI5HJrz9NuBBBAAAEE3AXSHchlAc50B2R2gZxpV1RLLTiwVO1u8Gpjuu+XBcx4BAQQQAABBBBAAIFMESCQyxR2booAAggggEAWE/AO5JrN0R+xibvDZZtPugMyP4GcASjec40OvttAHrvJpft+2UaWB0UAAQQQQAABBBDIYAECuQwG5XIIIIAAAghkS4F0B3KBizrMbX6VUuofmIIP366I0dgW/bV0X7yuOPKrZNUemrr6HTW3ZqE5izI8q5dmrtFPh0/JbAeX+MlbUNElKqhu24H664gOqpw/Wdp/kJZ4RDkN3rZfqddbCHQdm2sEFciZfe3mj9TgUdO1bo+rLXkLRuuWqm30zOS/qaerIc6n3T6kvKqOSy6vYRXOWKIGX07Si8+O1wfbfnN65C1YSY0GvaFpLzRVKSsljN+paX266JUPtum3xANUqdEgvTHtBTV1HmDzMc5fTnpRz05cqh8OnlOCOcSRv7Bi6vfQ8HEj1MHrubLle81DI4AAAggggAACWVSAQC6LdgyPhQACCCCAQEQFIhnIla6rugkbtOGYWwvvGKmfd7ys8nFz1apSFy07mZzC+VGIukejP9ugoTWssCkSgZwJq+pO1NH1/ZSym1yqgVyc5raqpC7LTsp/a6J0z9/WafNzruqsnoHcvera87RmT9tje40oM5Nx7wyplz+zKBPo7TWVcL23wItbqo7VH9P8I36ezFFEtV9dpTVDa3jOCozoS8nNEEAAAQQQQACBnCtAIJdz+5aWIYAAAgggELxAJAM576cyM+QefveIlneXpjYspqfWphLGJZ3vqDZae74fqvLhCuR8gsMCajbnsGI7JW0ml0ogFzepnkr03xAgjEtuSAP9/fga9U66rGcgl1oXFlBU1P909qx/swJtl+jUwlauYC1hi4ZUuVfj9qTmHKWWCw5oqc/meak9E19HAAEEEEAAAQQQSE2AQC41Ib6OAAIIIIBAbhAItaiDWXa6bf9YueZ1hbBk1fJ0xKjnJ59pYtNSrqDo9CTVK9xfG5K8y3VdplXjm6pCIWsWXILO7FupIa0f1/J8tfTII330eO8HVLNYyrpVM1Guua5KWRdrFqoO3qb9qa9Tdetd3zZ8+84RPdBivs4mH1W8p9YcfFcNnBPzAt1vo/qVqKPJSbMAHTE99clnE53LR+MPTFPbar20POWiBdThk981r3niTXwDOYdiei7WyrceUdlrjmhG68rq7jrZeY6jVEtNWTnPLH+VDkxrq2q9lrueuUAHffL7PCVdXvvH3KWYYVuTgkKHijw4TqsX9VO1QtKZrZPUquEgrU1+tuJ99dXRSaqdG74HaCMCCCCAAAIIIBBBAQK5CGJzKwQQQAABBLKsQIQDOZ9ZW4lJlMpXHafk3dPuff2w1g1xC+xSwwtDILdt/yB917icuv/rfMrdU4K+QPfzaEsxdf2XCdIedO3ltmVgGd391qGUazab84eZeecnkLv3Tf3n64GupbJbBqrM3W/Jdbb3/nZbNLDM3XJd3tqHzixbTYz7NKR8VaVsUecTrJroc3U3lXpopo47j/cMC1PrAr6OAAIIIIAAAgggEJwAgVxwThyFAAIIIIBAzhaIcCDnHkClwCaYGWr5O2u520pKR/6Sqlr3ET3S5VG1bnSvbnefEefdI2EJ5MwswP1jdFfMMG1Nfi5HNY3e872Gfp32GXnes+ACBXIxw3/U7tcquVq760VVvH2U9iT/SekB+vbgeNVwQWpG43wmREz+A7dA7lfTltKmLUlfKj3gWx0c7zoz8Y89ZwoWMxVm40yFWT4IIIAAAggggAACGSdAIJdxllwJAQQQQACB7CsQ0UDOX9XTBK3tVUYNp7lXe/AkdQZ0jw3U26/1033e1UPDFciZ5bJbBt5mZrQlz90z88ZMMYXD7ReocLBLZBPO6Ldje/TdkiVavCxWyzbt0jmrrGnSJ1Ag5xteei2tNcUmTpliE0lb0CVGau5VbeUWyK3tpeiG05JmvwX5uj70ni5+2o3iDkFycRgCCCCAAAIIIBCMAIFcMEocgwACCCCAQE4XiGhRB3+BnEFOOKJFPeup86wDJgYL8LGrAhq2QM56rlh1jG6h+Sn7vkWpQ4eamj8/ZRqa7551JoTb+v5wPfvOXG3adS5ge9IVyJlw8I/k9a5JZH4DOS+joF5rm2WtQZ3HQQgggAACCCCAAAJ+BcIQyF3R+Z0/avGErdr01RmdPnMpcdNgRx5dV6KQbmtRTW0HVlHpa7NYr1z4t/7Vb7vyv9dY92WBR7t8bK/mjz2hum/XVtkwP8+6x9/Q5M/NTUpX1diND4Rwv2OaXXueYs0mNtF9OmrS8OLpf9Is1g/pbxBXQAABBLKJQFYJ5JK4Es5s1aqJ0/XmggXasueU4m0LgnoFe+EM5Mxzxc1orHJmHahrNznPvvUoImEqmb5YvY5G7UyOFfOqYKV71bJ5SzVt/JCKLf2zHpjkmnEXsUAutqOuM0Uq/LXB9m0lkMsm38Q8JgIIIIAAAghkJ4EMDeQuH/tBf2/9mTb8ajtqdrnkKai6E9vpqRZRuiYraH27Wn0f267jl0qr72+PqX4mP9Px+Yv0wgu/6r+lQg3I0vbgWSaQy2L9kDZNzkIAAQSyqUAWC+Q8FeN1/MdN+nzJbI0xs812nHSNMzz2V/NajpkRVVY9K8nu15i7YjQsZTM5/4Hc/leq6JYRPyQdUNwUdfjZFHVwVYQNZQ+5VJeshjJDzmv/Ofs95LLpO8xjI4AAAggggAAC2UggwwK5y9vXaPAj3+nIJdN6x59UoXMttX+8om6NKaB85o8unzuhnxZ8rRlv7dFv5yyhvKo6oZuGPXpd5nMt/kBtn7ZqlWWNQO7AqGkaMsUghTxjLW2UWSaQy2L9kDZNzkIAAQSyqUCWDuTcTE0F0MKmAujppD/yCN282pDxgZy5aYC99lz3+9UEd6VNcJf83O5VTq0/S9DSdoXVepFrnlrEZshprXpFN9S0xBKqMuts5Rk6ZtP3l8dGAAEEEEAAAQSymUDGBHIntmt03dXaZgVtBUvoidh2albeYU/hfqyjqNpt6KJHS2eyWhYLgrJPIJfB/ZbF+iGDW8flEEAAgawtkBUCufjj+nHTMs2eNVexy7boyp//oVnjW6qms7Jqgs7s+1ITe7bWy2uTN3JzqNmceMV2ypto69WGAg+9q92f9FThs/t06poKKuVe9cC2N7yKJdiGVQmK7RitFq7N5FKu5D+Qcyim5yf6bGJTlbp8QB+NbK8nxn2jlO3ozBUiF8hZTOVVdVzyclmHijw4Tsvn9XY6J5zZpw/6NlafVdeqavv2eurR9mpyXwUVSiLO2i8xT4cAAggggAACCGQfgQwI5K7o236T9belZo8URyE1/6SrHr/TTxiX5HL56xXq22aX87fb+Vo8rJlTK2Xu0tUsFgQRyGWNmYrZ59uYJ0UAAQQyQCALBHL7x9ylGDOtLJWNL1Ia64gZrE07xqpGclh0epLqFe6vDT4cxdRzTZzebZCaUzCBnLnGaXPcTZ213GsjNvcZeRv7lVCdyf6rxXo/ifvS20DLWRPP83rOUJasWqf7FKgI5BKllgsOmBl9qaaZqeHydQQQQAABBBBAAAE3gfQHcme/1Yg71uknM3oOPlw7qYWN5+rThKKq1rqWuvUvpwIe3XJJh5au09wJu7V7//900RqZ58mroreVUv3nG+nR+232nksO1ZzLPOvrauf5u7Rrb4KsVbR5rr9epZpUV58xNdwKSpiZfSXNzD6bV8KnSMGls/pp5nq9P+OQjh5Neqbk69arqLYj71P14n6CyEsX9MvCz/TupAM6cjjxeRzX/kk31qqoNn9tqDrJswl3faZ+D25TnM3zVJ3wnFnem/gFq+DD4hFfa936Uzrx38R/tuS5/lpF315OTUc9oIcq5gnpJQ/PklXTh3M/0/T39utgch8mF/ZoZ/q8360qkvKYIfRDSC3jYAQQQACBoAWyQCBnyiZodb9Gaj55Z+AKq9bP0SIt9f6upeoU7d7C05rasJieWusb6fnuw2YnE2QgZ06Nm1RPJfpv8AgPPZbIno5VlyotNeuIXbzoUKkO4/XYT8/oraRlrQ4TqsWbSqlWthj2QM7cI2HPJDWv86xWu+3H5yNiV8k26BeKAxFAAAEEEEAAAQQCCaQ7kDs/c566vmj9BjiPas96Rs8+kE7wC79q4WPLtHhrclUy7+tdrevr1dErs2uqpHvulBLIVVTz2w5q5ar/2f6G3XFDOfX9qrXui7KuG1wQdHn/Zo1+5CvtPP1//hvnb3bgiV16u8kqbTzm51yz3171t7poiLWXXhCB3PnPPtGgbnt0yu/0ATPIf/oxjRtSKuhZhxkfyB3TR80/0Dy/fWj+IXVDGfVe20b1iwbfD+l8szgdAQQQQCCQQJYI5BIfMP7AF5r6xki99+FOHTzpVmE1b0FF31JVbbqP0tB+96mU3TLK+J2a9kQ7Pf/xLp2zhhKO/CocU0P9xy/XXxuntm9t8IGcNYYYUr6qUlZ+mlv57FlnPUufLhqz9AcdtB7G+Sz19cwb0/RC01La2CtaDZM3c3PU1cSj69XPBIyRCOSc0AlHtPL1Z/XSzDX66XCys6kGG32LqrbprhHP9db9ZV2FKPgGQgABBBBAAAEEEMg4gXQHcl92H68Jq6yw6Sb1OthOjUKbnOXVkpNa3HiWFu60rpdX5bs00JNDble5gg5dPHlY64au1Kzl55wzzPI3elDvzL5TzlzN+qQsO7X+x4R2Naqo19t1dFfZayVTUOL7Ucv01twzzpDuhi6P6d1RbhvXBVyyekyza89TrFXzoWC0mr/9sJmhV1QFTDutQhXfT1yhKVPiFG/dtnJNTf60roqltOqY5tX7pz7ab9pjgrfKA5uqR7cyKlFQOr9zqyZ1Wa/vrKDOay89v0tWL+3W21VitdHs1Ze/WlX1mZjYvmtMq84f2Kv5PVZp9W7TQke0On79uB4pGdyLktGB3LGJ72vg6yd0xXGdqo9upt6P3qQo0w26cF5753yisa8dkTWxL/9jj+j9tyu4HjKLLR0OTo+jEEAAAQQQQAABBBBAAAEEEEAAgdAE0hnInTEB2nQToJmblqqi0Zsf0i2h3d/j6PNz5qvHC0dNvHS1YkaY38z29F6aekU/j5qpl6ZYwVpeMyOvr5mRl7RM1C2Qy1f/fk2af5crrHPe5Xd93GKq5n5v/tO7emmAIOjyyqXq2mO/Liq/7v+wl3rX8l6WekXbB07VqIUXrAur72+PqX5Sq1zt8VNR9sT3erXWF/rBpHnuIaHfQM7svdfD7L13TsX1xK6OapaSRibd0Fo+fOdGHY66RtVG91X/ZsF1RsYGche0vPVkzdps8stOrTV9bDmfh9g9fIpeXfyHrr21ikZ8XNdEuUkfArngOoyjEEAAAQQQQAABBBBAAAEEEEAgWwukM5Bzmz3mHXKFzOIKclTxbr3zeX0TO9l8Lu3Sm5VWaLMJsfK1aq45kyomHpQS5vhfOpsSdHkFZ65zfYsJHJ4wRyPfO60LBSrptY0PqKzdM6Xcu6Car+6pxytZBwXXnp1Dpmhs7B+6vnZtjfpHNVlbJvsN5D5bps5P/BwgHAwZ3XlCxgZyrpDWUbOupi6p6RWMBnhGArm0dSBnIYAAAggggAACCCCAAAIIIIBAthLIQoHcDxp786f6zixlLNqzvaaMKOUX8tt+75iqrmbhqvusvJQwx8/sMY/Qzit4S28QZBvImeWlFczyUhMcptYe74b6DeTcCmgoT36VbVlZbZ6orirVCihfOl67jA3kJGsG3MvvW4t4r1a+sqX04FPV9UALa6lu4Oq7gYLRdDSPUxFAAAEEEEAAAQQQQAABBBBAAIEsJZDOQM5tFliRSnp5x8OqnNbmnd2slypt0B5zvntFUbvL2c50CyZU83dMMOe6PcjFk6d17tf/aNuWI9q96pC2bj+r3y9Y+965zZC7ZJajljHLUYNoT9CBnDnwrHnWZ54+lLhnXfLHVC+94fabVKfTnWrcurz+n7VfWwifjA7kdOmIZjdapFhr7zy3T57rb1C51hX05w53q1pla+87r0+I/RBCEzkUAQQQQAABBBBAAAEEEEAAAQQQyDIC6QzkpJ1DJuuVudb+aQFmpgXTXLcKo1kukLt0Vt9N+lyLFh7RkcMJzqIS9h+3QC6E9nhfy+8MuaQDL+7eoYWjvtHqdWd00bvaqikeUaFXEw0efkvQS0UzPJCzntOY/TRzvd7/+886EOdbEjbPzeXUbe4jalTebdYcgVww3ykcgwACCCCAAAIIIIAAAggggAAC2Vwg3YHcZROidDYztq7I/95tdkbnZ85X70mXdGvj8mrd7z7dXiCLzpA7sV1jG3yu704nz/YyyzAL5VO+6EKKqfL/VLFZjGof3ainhh82zXQL5EKY8RdqIJdy/KULOvrNz/pq+Q5tXBKn36zSpc7P1Sr9whP6W/8iQb2eYQnk3O5sVcjdsWSP1i7Zpx0/nneFiAVv0fM7Wuru5Mq8BHJB9RcHIYAAAggggAACCCCAAAIIIIBA9hZIdyAnt33N8rV4WDOnVvJdiuhj5Fbx1GH2c9tvKpPmCX7PtZQ95NwLSQQT5oS8ZPWCKXgwTZM/N3PiHNep+ug/q1+7EiqQHCAlt8t2DznXnnjRfTpq0nDbEhXOYhR/GfIfFShws7pv/7NqmWumNkPO3yt3cffXGt3qK/10zhwRQpGNcAdyHs9rzTZ88QO9MdeqlHu1WZ78jIY96l0p17e4Rvb+NuPpEUAAAQQQQAABBBBAAAEEEEAAAZdA+gM5E6t822+yKbKQYK5aUE1XdFfXOwNv3n/56xXq22aXTpsz8ptKqdNNpdRr3KuSRlfWK1ubKKl+qmd/uVVZdTRprH++d0fi18MSyLlCtYKdWmv62HK2745rT7u0VFlNWvLrFqD5C+T2vjNHb884rbM3VtPbn9ZVMZun8VtJNsBbn6GBXNxOTWi3TtsOX1GVqU/r2Qfsbrxdo0uu1jbzJY+wMpg+5LsXAQQQQAABBBBAAAEEEEAAAQQQyOYCGRDIGQGzrHN0XROwWDOzCpZWry9aq1Fx+1Du8v7NerX5hsRZXA6z79z3HdWsaKLi+Tnz1eOFo86ZUzEjumtEzyiv2XZX9POomXppijW7Kq9qz+prAp8QZlf5C3w+/lB/eeqguWZRtfumix4tmdyrruDIbyDn3nb3Jase7clrZoJ1MzPBrvN8XU6Ywg+1TOEHU6Hhpue66s0BiUtMD4+drkETzpi00izp3GeWdCad5fLxF3y6zegrX11vrm+om4J4QTM0kNMh/aPaB1odJ+Wrf78mzb/Ldy+7lP31rlb1vw/UkD8nPaTffgiiERyCAAIIIIAAAggggAACCCCAAAIIZBOBjAnkTGPPrlymIb1+1ilrGzNTWOCm1tXV5akqujWmgPKZqOv8v4/qu4nrNGvOv5W41ZldSHVSixvP0sKd1n5teVW+SwM9OeR2lSvokLUP2bqhKzVr+TlnUYX8jR7UO7PvdIU9wcyu8ndMSkCUR3eM7aKhnZKDwDPmeaab57HaZC1Zbabej96kKFPF9PK5E/ppwXpNHf2LjqdUeXCfIWe18Zjm1funPrKqjXqcf0lnt27X1CfX67tj5mt+91IrqIc+7qoe1ZPWyF4yy3qrxGqjM/iMVvO3H9aj9xd1LqG9fO6oNo5YpXcXnTI+JtB8rade7eoVAPp5KVMCuVKV9MLiWqmGeHmL3OA0sNo3u/Y8xR7ynOl2bOL7Gvj6CWewWrhJPQ0cd6duLWK14ZL+89XXerfXFu209uSLNpV5vzGVeZOXAPvth2zy3cRjIoAAAggggAACCCCAAAIIIIAAAkEIZFggZ93r4nfr9MoT32lfSgEEP0+Qp7AenN1WT9azCYwu/KrZzRcrdrdvZc7Eq12t6+vV0Suza6qk+15u6Qnk3IOupEdOnhF3eftnGtRim475e5w8BVV3YiWd6b1JP5hz73hzgF5q7zY78MQuvd1klTZawZvdxwRr7RZ01KPuy3wPbdDzdTfrkNs9Y17rawK2a5Xq81g+TRpp/HtuYWUqL0JKIBfEC2Md4qqCax/ISb+bvfdmmL33rGXM/t+BRz56Qh3d2x2gH4J8NA5DAAEEEEAAAQQQQAABBBBAAAEEsrxAhgZyztaayp+/xH6lxdP2a8+BeJ1LrvyZJ68Kli2imn+po9Zdy8g5Ycrv55IOLV2nuRN2a/f+/yVW5TTnF72trJqMrKeH7/Feymq+np5Azpx+efsmje27WTsPXDIzu8zHLLecb5ZbXmN9bf9Ozf/rZq39+qx+v2AFaw5dW7Sgbm17tzoNrKLS17pm0tkWtjCFDH6auV7vzzigI4cTnDP88lx/vUo1qa4+Y2qY830hzq5cqdHDdutAXGIqV7Rne00ZUcr535ePHdSKseu0avUZnT6T9Lyp+QTQzvhAzvkiJPXhHu09cEEXnLMIrQq1UarYIdnN96EC9UOW/27iARFAAAEEEEAAAQQQQAABBBBAAIEgBDI+kAviphyCAAIIIIAAAggggAACCCCAAAIIIIBAbhUgkMutPU+7EUAAAQQQQAABBBBAAAEEEEAAAQQyRYBALlPYuSkCCCCAAAIIIIAAAggggAACCCCAQG4VSFcg17bkG7nVjXZHUGDRb89F8G7cCgEEEEAAAQQQQAABBBBAAAEEEAivAIFceH25egYIEMhlACKXQAABBBBAAAEEEEAAAQQQQACBLCOQrkAuy7SCB0EAAQQQQAABBBBAAAEEEEAAAQQQQCCbCBDIZZOO4jERQAABBBBAAAEEEEAAAQQQQAABBHKGAIFczuhHWoEAAggggAACCCCAAAIIIIAAAgggkE0ECOSySUfxmAgggAACCCCAAAIIIIAAAggggAACOUOAQC5n9COtQAABBBBAAAEE4H9DgwAAIABJREFUEEAAAQQQQAABBBDIJgIEctmko3hMBBBAAAEEEEAAAQQQQAABBBBAAIGcIUAglzP6kVYggAACCCCQLoETJ05r587d2rbtp3Rdh5MRQAABBBBAAAEEcrdA1aq3qXLliipa9IbcDZFK6wnkeD0QQAABBBDI5QJWGPf551/pxhuLqX79mrlcg+YjgAACCCCAAAIIpEdg3brN+ve/j6tRozqEcgEgCeTS85ZxLgIIIIAAAjlAYO3ar3XVVVfr1lvLqXjxYjmgRTQBAQQQQAABBBBAILMEjh07rr17f9Eff/yfGjSolVmPkeXvSyCX5buIB0QAAQQQQCC8Am+/PUPPPtstvDfh6ggggAACCCCAAAK5SoAxZuDuJpDLVd8ONBYBBBBAAAFfAQZLvBUIIIAAAggggAACGS3AGJNALqPfKa6HAAIIIIBAjhJgsJSjupPGIIAAAggggAACWUKAMSaBXJZ4EXkIBBBAAAEEsqoAg6Ws2jM8FwIIIIAAAgggkH0FGGMSyGXft5cnRwABBBBAIAICDJYigMwtEEAAAQQQQACBXCbAGJNALpe98jQXAQQQQACB0AQYLIXmxdEIIIAAAggggAACqQswxsyMQO7SLr1ZaYU2x1s3z68HP+qjJ2uk3lmBjzim2bXnKfaQFN2noyYNLx7CBbdrdMnV2mbOqDrhOQ17NLhTD4yapiFTzjkPju7ZXm+PKKVrUjl13eNvaPLn5qDSVTV24wMqG9ytsu5RF07phzmbteifv+jXAxd04VLio+a5/lpF315ODYfU1sP3RKXqEukGXj62V/PHnlDdt2tngT64pENzP9JnBduo+58jLcH9EEAAgdQFGCylbsQRCCCAAAIIIIAAAqEJMMYM7BWWKquXF3+gzk8f0pWke9/Q5TG9O6p0aD3nc3TmBnJyFNIjq3qoY6XAzcg5gdwl7Xlroca99W/9N7kjbZt+ta6vUV2DF9RXzLXp7OIMOv34/EV64YVf9d9SWSEUPaRZtZZo+a9XQgqDM4iCyyCAAAJBCTBYCoqJgxBAAAEEEEAAAQRCEGCMGfFA7oI+fezvem/j/+mmykV1dOcJXclfXoN2tVLNPCH0XFYL5MzzOMpX1+j1DQPOuMoZgdzvWtf9fU1d9T9nqJrn5nJqOfJu3X9vCRUp6DB/cklnt/6kj8Zu1MoNvzuPcZSvqlc/f0C3pKuP0/N+uM5NmdmYJWYppm12ZsZIcBUEEEAgOAEGS8E5cRQCCCCAAAIIIIBA8AKMMSMdyJ3drJcqbdAeXav737tHx3qu009XrtZtrz+lkZ3TM4Uqk2fIOR2vVukXntDf+hfxq5r9A7kr+nnUTL005YwJ2q5W8U5/1itjb1GUbYvdjzWLk1s11/RJFTN9+SqBXPB/QXIkAgggYAkwWOI9QAABBBBAAAEEEMhoAcaYEQ7kjr01Q8+8ccqkM7fo+X2NdSpptpwq19TkT+uqWJp7ODMDuYKKLn1OcWb/OjmKqt2GLnrUzwrcbB/IHdqg5+tu1iEz7S1/owf1zuw7/YRxyR35u5a3nqZZm//P/EFhPbqxm9qld3Vymt+RxBMJ5NIJyOkIIJDrBBgs5boup8EIIIAAAggggEDYBRhjRjSQO6mFjWZq8W4pX4uHNXNqJV2cM189XjhqZlsFF9Zc3L1F0wZ8q29+PK+LZmZdvhuLqN5fW6pri3jND1jU4YpOfvGlpr66Xbv2JphFlQ5de2tJtX6jlR6pviudRR1Kq9eKKC19eIfirEyuZl1NXVLTNqhKPZCzNvj/TNPf26+D+/9n2mgumCevit5WVi3faqKHKrqt+fxsmTo/8bMuyoSA35gQsKRXZ+76TP0e3OZ8Jn+FLo5PfF99Xz+hfGb22hwzey21z+7hU/Ty+1Y1juD6y7re5ZVL1WtAnIpWv1kPj26q+l6B3OVjB7Vi7DqtWnVKJ5wb0pl+LRSlMo/cqR4v1VBpn4mTrvDVKsIxuHbi+ctjT+r0BRP8OfLouvLF1filxnr0freCEm4e3u30LuZxcfcOLRz1rdZ/e07nkjfJc163qGp1b6THO92ofH6wLp87qi9eXq1lXu2p2KGmugyurJJJXZjyLnhfJ0sspU3tTeDrCCCQmwQYLOWm3qatCCCAAAIIIIBAZAQYY0YykNuySr0e2anTyqOa0/tpUFOz39jZbzXiDmvZqhS4uINZ/jh2lkZMOGXCNO+PQ6Werq87PvpCK22rrHrueeZxtuNPqv5WdV15+qt0VFktrb6/tVaRIe/qlblWWHW1Yl7rqVe7XufzpAEDuQu/anbzxYrd7a9Kgmlnn0c1ZvjNiWHQJbP/WHlTHdYcHvNaX3M/z+Tq/Mx56vriscRnsJ2BeEaLG0/Xwp15VHvWM3r2gdS+6X7R1CpL9MVJf9dL7Xzvr5uQ9JNPNLzvzzrlr8l5CuvB2W31ZD13S1cgd0fP6jo98zsd8X0pzM2M16D2Gj8wqeJuUIHc79o+fJHGvW/3nrme39/swLMrl2lIL//tcdxQRr3XtlH9ohKBXKjvC8cjgEBmCTBYyix57osAAggggAACCORcAcaYgfs2Q6uspsyu8ijicMUEE+9o8udmZlOA4g7nP/5QfZ86KCvuyl+tqvpMqa97bs6jiycPa93g5Zq5OkH58iUo3hzgPRvswNjpGjYhcc+zwk3qafBb1VSuoHT+wF4t7r9asfvNNc+Zc821vWdKBeJJWfooK5B7TPUvmcDqHhNYWVPS8t+kXl+3UyMTvLh//AdyJ004NsuEY9YMrz+p8sCm6tGtjEqYIgkpbVxlFUhwD/sumOWgk81yUDPj0GaG25fdx2vCKmupqJVNmWfcb57RvahC8n5+wRbV2LtGzzT8TlbEV7Rne00ZUSpdfzNcNjP8epgZfpa7o3gZ/eWd+9W4TmHlu3RBR7/4SpMH7dC+05ZHITX/pKsev9MqGGF9XIGc83/zFNQ9rzXVk4/epKhrrYISWzS+w1f66Zx14RLq/kMHNXbb5C7QktXzpgJwb1MB+GLSuzJw3J26tYiFZl13u6Y+uV7fHbNMbULMXcanifEx4aLjhlJq/e4DevieoiqgC/pl4XKNG3bQGTw6TDg63izPTowJKeqQrpeIkxFAICICDJYiwsxNEEAAAQQQQACBXCXAGDNwd2dcIHdpl96stEKbTfriHR5ZSxq79tjvDEGqTnhGwx5NDl6SH8611NW+WqeZAff4DBPqJThP8Ajk3O5rO6vp0hHNbrTIhHKJwVW6AjlzvnvIlK/+/Zo0/y6Ppav+ArnzKUt385pn6GYMvGfXXdHO5Bl4bgFa8pJTFamkl3c8rMop/Zk8m82hPHmu6NIlU0Tjw77qXcvV4cn3lNkLbo7ZC+6a1L71U5bISne8OUAvtffup9Qu4P71Q/pHtQ+02rmetqKGb2yuO72Xpp4wYVVdMwPQBGueIZZ7IFdQTVd0V9eUsC7xHpfXx6r3X3bLyuS8+9R/IOf2nvlbdnziaw298yuZDNcr+HVVD1ZBE35uMOGnVxh7dsFC9Rt02Lzn+fXgR330ZA3rSQnkQnlrOBYBBDJHgMFS5rhzVwQQQAABBBBAICcLMMYM3LsZFsi5QjffYEhuoZmjdn1N/+BuM6vI7ZOy1NBtqav3c/sJSi6bGU+dzYynQHvUBQpvAvH4zJBzHnxF3/abrL8ttcLBvKr+9yc15M+upMk+kEteOmpOMUHQTLP/nEf7kx8ipUKtW3CZYlNIj6zpoY63Jh2cPJvNBHXN6+1T7NJLXgFS8sxEK7CyC0FtWm4s2xpL6xNKcGlr+PUK9WizywRmAfrUnJhSBMRjnzy3QM5vMRBX0OUzY3LUNA2ZYqI6n73aftTEO9dq6/kE3TL2aZtg2GqJ271NkLnIBJnOT0rfSDc911VvDrCrtGtC0mqf6Jv/+5Nue7GDnn/senMigVxO/gFD2xDIKQIMlnJKT9IOBBBAAAEEEEAg6wgwxgzcFxkUyLnNHvKZyZX4AN/2e8eEWNZGYL7FAlx7oZlloAfNMlD3ZZcpz/8fzas3Rx+ZqUvuAczOIZPNvm4XpFJVNHrzQ7rFtr0/aOzNn+o7s5wwlKDJPpCzwhlzvXvN9azpWQXL6OlNbXRf0pJJ+0DOf3jk+biuMKhgp9aaPrac+bJrXzf3feSSzRwmNJracKeetPaS8wj7duvtCrHaeNF3SaffVyIDA7nDZhnxILOM2MRXAfrUfPk3U9X1HlPV1fyna1aenYP3U/uvupu+Kqt+ArmU2YPXmxl7vcyMvWD/kiOQC1aK4xBAIPMEGCxlnj13RgABBBBAAAEEcqoAY8zAPZsxgVwwhRtSZkz5FndICVAChmquTfLdA7mUAMwsH51vlo/aL8v0rNo57NHgXne/gZyVyZnw6hkzm8y5553Z3226qWBq3ds2kAtQbMDvk7jNzkoOMx1NGuuf793hPCX5z0q/0EN/a7w1ce83hwkHfzXhoHVAcoAUaEae983d+siuiERwaolHpQSlqVYUtQsr/YdtrmfIoEDO7Gd38j/ndPS7I9q9+Wdt+eI/OnLYqtJrPm59cNksR+1glqOaaXeJ+wkGjUEgFzQVByKAQKYJMFjKNHpujAACCCCAAAII5FgBxpiBuzZDArmUfc6CfY28ZtEFO6MpOeyyDeTclxf6PEfGB3LS7/q8w3t6d50V3eQ1VUz7miqmjrAEcinLclPcjmhmzQVaeSR5tlbyLDrXcuHkQCykYM1tWaZrhl6wnep5XMBqsx6HRj6Qu7h7i2YP366vt5/V7xeSimLYNdPtnQoUzgYWIpBL2xvEWQggEEkBBkuR1OZeCCCAAAIIIIBA7hBgjBn2QM61UX7wr5TnvmIpYYef5a7J1w0YyAWcCRaOQM481Ynv9WqtL/SDNU0u2hRd+OZhnez+hik+Yf7ffWaY2wy5UJbMpnimBGUF1Xx1Tz0elbTMM/8ten5fS91t9rVLrmRb/OnOemfI/5IKKhRVu2+66NGSwfZMMHu32V3Lqj4bqz03lVG1jvfosdY3an/yUuIsNUPuin4eO0sjJpxKnAFnffLkVcGofCpSuahuuftW3ds0vzZ3Xap/WWto3QI517JqZsgF+zZxHAIIZB8BBkvZp694UgQQQAABBBBAILsIMMYMdyDnFjbd0K6ZXht4o/87/viVXuy2W6fNEe7FHVxhR3E9saujmiXtx+Z5oQta3nqyZm32s4dcwDDPtQ9bKIFYMLOizs6cp95m/zazPZ1uMPu+tT22RO96B3KXTHBXxgR3Vm7Xp6MmDS8e4vePqyiENeNtRMHYxEIWbst0UwytYPK1/2rIg9sU57cggv/b7x4+RS+/byWMvnv9+TvLvWhGcvtcsyaD30PO1TdhWrLq9q7mr1ZVfabU1z03e29Y6GcPuY8/1F+eOmj6OSkUrWSvse7x8Zr+XT7le6CBpr9zuzmIGXIhvuwcjgACmSDAYCkT0LklAggggAACCCCQwwUYY4Y5kAstwHGfTecW+KQEJVfrttef0sjOrqqlKY/vtk+de6jlqrKaXw9+1EdP1rBp8JZV6vXITmcQmNGBnLV0dXnraSYotJY+FlR06XOKs2ZXecwMc6uyWvFuvfN5fYUaySWHg1YRh2cLrtWbpkCGc/+4/oUSG5xsaGbNdXv6jGa8fsLz68F+ox8ys+/qmiILJmHMZwK/SWZfPtt8NOV6bu13mBl5G8yMvNLmiyn70QXoU3OYq8qqexXZ8ARyrkITAYLfSyZAK79a26yENS1VVqss0Rcn3YNXArlgXz2OQwCBzBNgsJR59twZAQQQQAABBBDIqQKMMcMayLlmninIoOn8nPnq8cJR54wyV7B2Uosbz9LCnSbUKm2qpa4z1VI9Ji6ZpYYj39OwaVZZU69ZZpdMNdEqppqo+ZJ9gOS+11s4AjnzQG4hVgq311LNYxPf10ATkl3R1YoZ0V0jekb5FKC4vP0zDWqxQ6euz6cS3Vpp7KASrt5LDrjyF9ZNhU/p8BHXfnGJByX3RR7ly39JF+ODn+Hm+YoY61Ez9dKUM85nLd6zjcaNuFn5bN+j37V9yAK9Ptc6NnGG4GRTGTaxsMahpGWzVodV1PCNzXWnd856woRVdU34ZfrOYWbzjf+0blJQmb5ALiV4S1nSm/jwrhmP/gI597abEzz2JXSrJFzQLFvdYAo7FPVEOWsKP/QzhR8ueswudFX49QhQc+rfuLQLAQSypQCDpWzZbTw0AggggAACCCCQpQUYYwbunnQVdbi8cqm69thvAgiTo7nP1gp0T/cZSNGV9crWJqpojk8Mo7bpmEl2HMXLqOv7zXR/ZZPgnDuqjSNW6d1Frn2/vJd9elQ8dVuKePHX/fp4yEotWf8/Z2BkfTJ+hlxS2DN2uoZNSAymnB/vvdMuHdHsRosUu9+aSZdX5bs00JNDble5gg7pwnntXbVBM4ft1H4rc3SYwOh7s3TXI/AxwWMFEzxaq0mtj3tF1aQ/+rL7eE1YlVSkINW92wJ0knnWxa2WaOHWBOdBeW6+WY0H11KzRiVUJOl5f/1+hxY9t0nf/JrYYkf5qnr18wc8gtTLptJrjyd+dlaitfr0L+/cr8Z1CiufqWx69IuvNHnQDu07bZ7XUUjNP+mqx+80Fs5P+gI5mQq4bc2SXmvG4kMfd1WP6knpbnLlWfMV55LViXV0V9lrTYB4SWe3/qRFf12vL7a43hXPQM6ctGuNnmliqtkmv6P/aKr61Qoon9V/i1dq/LCDOmW+5l51170t+eo30NuzaqiI9yrZAF3BlxBAAIFICDBYioQy90AAAQQQQAABBHKXAGPMwP2djkDuijb3nqQ3PzHb4ztKqPsPHdQ48NrGpCdxO0+exR3OLv5QAwcc1H9TUi23h89TWKVKnNIRk7P47sNms1m/26mOGwor+upTOmaWEoYrkLOCl3n1/qmPnIGb+dgFYid2aWKLT7UhKcSy7RrTzuaLO+vx5BAp5SBX4QbnH9kUsXDtxZfWvercnujSWX31/EJN+eCcqwCC7QNfrevr1dErs2uqpE/QdEUnFyzV4MF++tS6nmnvg7Pb6sl617ldPZ2BnM2MxcRqs5bhDFN0IzFo9P2YttSornZ37NH0mSYZLWVma242szXdDjy7cpmG9PrZGbzZffJXq6kXl9Z1Cyav6Nt+k/W3pW73TKV4Se76K5rWIoBAVhBgsJQVeoFnQAABBBBAAAEEcpYAY8zA/Zn2QM5tTzf3Ag1BvT5ue7p5n3v52F4tHrxBKzac1gWrFKapglmy7p3qNO4+/T7kLWcFU3+FES7u3qJpA77VNz+e10VrFtO1BXRz87vVZ0xJrWs0T7EmzAtfIOc5y882kLNwzOywXxau1cz39uvg/v85n9M8qa69qbAqt6imtgOrqLTNFnrWUakGbnvNDK6GZgaXAuynF1QHuQ6yZhl+OnWT1iw/rROnk5/3auUrVEAl6pRXs4H1Va9i4Clfl48d1Iqx67Rq1SmdcKat1vlRqtjhbnWybW86Azlzh7MrV2r0sN06EJeYnBXt2V5TRpQy//W79kxboxkzDujI4QRn2Oi49k+6oUJpNRlZTw/fY5YSp8yks1/269uexP6r0a+xena60Xd5r5lxGNttlRauO5PU36kUugixjzgcAQQQSK8Ag6X0CnI+AggggAACCCCAgLcAY8zA70TaAzneNQQQQAABBBDIEQIMlnJEN9IIBBBAAAEEEEAgSwkwxiSQy1IvJA+DAAIIIIBAVhNgsJTVeoTnQQABBBBAAAEEsr8AY0wCuez/FtMCBBBAAAEEwijAYCmMuFwaAQQQQAABBBDIpQKMMcMYyLUt+UYufa1oNgLpE1j023PpuwBnI4AAAhkowGApAzG5FAIIIIAAAggggIBTgDEmgRzfCghkOQECuSzXJTwQArlagMFSru5+Go8AAggggAACCIRFgDFmGAO5sPQYF0UAAQQQQACBiAowWIooNzdDAAEEEEAAAQRyhQBjTAK5XPGi00gEEEAAAQTSKsBgKa1ynIcAAggggAACCCDgT4AxJoEc3x0IIIAAAgggEECAwRKvBwIIIIAAAggggEBGCzDGJJDL6HeK6yGAAAIIIJCjBBgs5ajupDEIIIAAAggggECWEGCMSSCXJV5EHgIBBBBAAIGsKsBgKav2DM+FAAIIIIAAAghkXwHGmARy2fft5ckRQAABBBCIgACDpQggcwsEEEAAAQQQQCCXCTDGJJDLZa88zUUAAQQQQCA0AQZLoXlxNAIIIIAAAggggEDqAowxCeRSf0s4AgEEEEAAgVwswGApF3c+TUcAAQQQQAABBMIkwBiTQC5MrxaXRQABBBBAIGcIMFjKGf1IKxBAAAEEEEAAgawkwBiTQC4rvY88CwIIIIAAAllOgMFSlusSHggBBBBAAAEEEMj2AowxCeSy/UtMAxBAAAEEEAinAIOlcOpybQQQQAABBBBAIHcKMMYkkMudbz6tRgABBBBAIEgBBktBQnEYAggggAACCCCAQNACjDEJ5IJ+WTgQAQQQQACB3CjAYCk39jptRgABBBBAAAEEwivAGJNALrxvGFdHAAEEEEAgmwusXfu1rrrqat16azkVL14sm7eGx0cAAQQQQAABBBDITIFjx45r795f9Mcf/6cGDWpl5qNk6Xtf9Yf5ZOkn5OEQQAABBBBAIKwCJ06c1ueff6Ubbyym+vVrhvVeXBwBBBBAAAEEEEAgZwusW7dZ//73cTVqVEdFi96QsxubjtYRyKUDj1MRQAABBBDIKQJWKLdz525t2/ZTTmkS7UAAAQQQQAABBBDIBIGqVW9T5coVCeNSsSeQy4SXk1sigAACCCCAAAIIIIAAAggggAACCOReAQK53Nv3tBwBBBBAAAEEEEAAAQQQQAABBBBAIBMECOQyAZ1bIoAAAggggAACCCCAAAIIIIAAAgjkXgECudzb97QcAQQQQAABBBBAAAEEEEAAAQQQQCATBAjkMgGdWyKAAAIIIIAAAggggAACCCCAAAII5F4BArnc2/e0HAEEEEAAAQQQQAABBBBAAAEEEEAgEwQI5DIBnVsigAACCCCAAAIIIIAAAggggAACCOReAQK53Nv3tBwBBBBAAAEEEEAAAQQQQAABBBBAIBMECOQyAZ1bIoAAAggggAACCCCAAAIIIIAAAgjkXgECudzb97QcAQQQQAABBBBAAAEEEEAAAQQQQCATBAjkMgGdWyKAAAIIIIAAAggggAACCCCAAAII5F4BArnc2/e0HAEEEEAAAQQQQAABBBBAAAEEEEAgEwQI5DIBnVsigAACCCCAAAIIIIAAAggggAACCOReAQK53Nv3tBwBBBBAAAEEEEAAAQQQQAABBBBAIBMECOQyAZ1bIoAAAggggAACCCCAAAIIIIAAAgjkXgECudzb97QcAQQQQAABBBBAAAEEEEAAAQQQQCATBAjkMgGdWyKAAAIIIIAAAggggAACCCCAAAII5F4BArnc2/e0HAEEEEAAAQQQQAABBBBAAAEEEEAgEwQI5DIBnVsigAACCCCAAAIIIIAAAggggAACCOReAQK53Nv3tBwBBBBAAAEEEEAAAQQQQAABBBBAIBMECOQyAZ1bIoAAAggggAACCCCAAAIIIIAAAgjkXgECudzb97QcAQQQQAABBBBAAAEEEEAAAQQQQCATBAjkMgGdWyKAAAIIIJDlBLYPUfmq4/RL8oM1m6M/Yjtlucf0+0AJR7Ty9Z6a+McYrRhxZwjPPVfNr+qs5SlnFFfPNQf1boO89teY21xXdXYdXW7wNu0fG8r9Qng0DkUAAQQQQAABBBDIsQIEcjm2a2kYAggggAACIQhk20AuXjunPaHWA5ZqX/wVhR6QeQdykiNmuL7b/ZpsYzYCuRBeKg5FAAEEEEAAAQQQ8CdAIMe7gQACCCCAAAJSdg3k0h2Q+QZyJpJT3YlHtb5ftO+bke778bIhgAACCCCAAAIIICARyPEWIIAAAggggACBnPc7ENVSCw4sVbsbvL5AIMd3CwIIIIAAAggggEAGCBDIZQAil0AAAQQQQCDbCzBDzqcLi/dco4PvNpDHbnIEctn+VacBCCCAAAL/v717j/OqqvfH/6Y5XywsVBQSwqOhiRcyMM0LmRCpmZhoSh6Uk6k/vGGRGuQtj5qSZGaBpXzz0vFy1DxiR0jL/IKZtzRFRREUL4migIBWmNMxfntmmCvDzP7MfD7D/uzPc/4qZu2113quNT7ej9dj770IECCQBQGBXBZWwRgIECBAgMCGFihWILd6Xtx0/sS46Of3xYIVq+P92nl1j559tovBh38zrvjBuBjUo5XJ1h7KMCHOvXZ2zH91RSSfg6v76d4z+vT7ROwz+rT4j/PGNLm2tVdNm/Y7ICbOXRTtn7fQVj+t9JEqkEu+a3fT+THxop/HfQsa59K9Z5/YbvDh8c0rfhDjWiA8OWnbGDyl/kiNg+L6NbfHsD9Mi3MmXBa/nPtarUf3njvFiNMvjenfOTD616SEifX0k4+JC345N16raxA7jTg9Lp3+nTiwtkHrzn+Ydk5MmDojnn75nahOmlT16BUD9z0+zp5yXoxpdXGejEnbDo6G4Q2YGHMXXdL6N/Y29D52fwIECBAgQIBAmQgI5MpkoQyTAAECBAiUVKAYgdzSG+LQnY6JO96qT9NaGfEmn4kf3PdInNH0xIQ019V0lVx78e/ujzN3qwmbuiKQS8KqfabG678fHw1fk2s3kFsaNxy6Uxxzx1trw8jWVm2T+MwP7otHmiA0D+T2jK+PWxn/OX1Bq31skpyAu/CaiBPWZ71JEugtnBlHt/wE3tIZcdSnj4ibFq9nfao2j70vvDtmn7lb86cCQyBX0r89nRMgQIAAAQIVKSCQq8hlN2kCBAgQINBCoNOB3NKY9rl+cer9bYRxa29ZNexnsWz2iVH3ebaVceXw3nHSnPavq2ldNeTiWPDI5tABAAAgAElEQVT4mbFtqQK5rfeJfarvj/uX1PtsHAdd/2rMPHrtx+TaCeSWTvtc9Dv1/jbCuAaE+Nmy2XHi2m6bB3Lt7c6NY5NN/h5vv71+s41H3x4rbjm0MVirfiwm7bJnTFnQnvMmMerml2JGs4/nCeTaWxG/J0CAAAECBAgUKiCQK1RMewIECBAgkEeBzgZyD46PfkOviLocqyoGjrszfje15tXK1fHS9NEx5IRZ8XZDxjUm7vzrjTGyNo+bFp/rdWrcv/Z3A75+R9x92YHxiU1rnoKrjlXP3xWTDvv3mLXRXnHIISfHv5/4hdijd5N3Xtt9Yq29xWrxpF3yOuajP14cXzj4psbx9h0Xs1++KobVPpg3MrqNndXQ6YCJc2NRw3uxD8b4fkPjirVhXtXAcXHn76bWvj66+qXpMXrICTGrESHG3PnXuLEWoeZMjaavrNYb/nfc9aND4uP/sjiuOWxQHNd4cZ1y/1Hx07tuTF5/jbaNk7aLJu8aA896Ym1QWBWb7zcl7rl1fAzZNGLVE9Pi0OGnx5z6sfU9JR54fVrs3TBLgVx7u8jvCRAgQIAAAQKFCgjkChXTngABAgQI5FGgk4Fcs0Cp99fjt4uvif0aPmP2WJy2ze7xo1fq4Wq+kZa8UlmXRMW2g6dE/dfT9vz+q3HfpP4tXplsA7wEgdzcRafHnw4YEMf99m8NN24I3tq6X7O59I6v/zYJ0hoR4rHTtondGxGSJ+/WJE/e1d1inUBuzx/Gmw+d1viq7GOnxTa7/ygaCKPl9+3aME7xymn1PcdG//2vjWW1o9m4WViYx+1uTgQIECBAgACBDS0gkNvQK+D+BAgQIEAgCwKdDOTankKLJ6yiSSBXnTyh1mNszGryJmVVj4/F4H0OiUOO+UocNmLP2LnpE3Etb1SSQC45sGDR5Nh14FnxRP24qobExQsejzMfausJuXYUWjwF11YgN/DsZ+K57+3U2OGz58QOO18UC+r/ZetvxaMvXxa7NbSojmsO2CgJEev/oYnxn5O5bJ3MZe2vtv7Wo/HyZY1X1v1z8ycFeycnzC5NTpj1Q4AAAQIECBAgUBoBgVxpXPVKgAABAgTKS6DIgVz1qtdiyYI/xe23/3fcMfOOePjZuhM9636ahEXJv845YZsYPr3ho23ruNUGdEecFpd/b3x8tuXpoaUK5JJxPXbajskTbfXP7iXPjSWHKbx65M3Ra72vrLYYevWqeG3JgvjT7bfHf98xM+54+Nl4pxGhzSfkmoZ1db22eLU2OWxiRXLYxNpP0NW1GNktGofWxHjOCdFn+PS1T7+l3Jb7Xx3v/ebY9E8qpuxWMwIECBAgQIAAgToBgZydQIAAAQIECKzz6miSFsWa+vcpU/pUr3oirjt7Qvz4hofj2abJ0zrXNw3kkl9WL45bx30uxv7ipSahXSs3be0U0JIFcjXjmhlH9Tk4bmr47tsmMWbMHnHTTQ2PoUXzb8jVXLMqnrju7Jjw4xtahJDrzqetJ+TaDeRaWZ/1BnItjFItZ/ItvbmLkicFUzXWiAABAgQIECBAoFABgVyhYtoTIECAAIE8CnTyCbnqx86JTw+9KObVPwHWvWfstOeoGDnqwDhg/94x48tfiGkND5u1COTWetYEendP/Xn88Oab47EFK2J1qweCtvh2WikDuWRcS685IAYk74E2fk2u+eI3C+SSk0zP+fTQuKgRIXrutGeMGjkqDjxg/+g948vxhUaEzj0hV0ggN/Oo+HBySMX65tDqdhbI5fGv3JwIECBAgACBDAkI5DK0GIZCgAABAgQ2mECnArlFccEu28V5T68dfd/kUIcXkkMdGg5DbeMbcuud8OpY9szDce/t/xmTk6fNnnqrMZ1r9n21Fq9jrvPEWrug656y2vzJsEUxedeBcVbDx+TWH8gtumCX2K4RITnU4YXkUIfGE2FbHtzQZU/Itfj+XOvfkGsXSgMCBAgQIECAAIEiCgjkioipKwIECBAgULYCnQnkWhwasM7rrtUz4qu9DotbGx7Rav0JufXaJSeA9kpOAF25tkGz0K3FuIsfyCU3bWnTZKCN9/tzEtxtnQR39b9sOcfqmPHVXnFYI0LXPSEXc+KEPsNjet0RqpG8Z+t11LL9QzVwAgQIECBAIC8CArm8rKR5ECBAgACBzgi0ETq11W1tIHXKr5ud4hlVA2Pcnb+LqQf2j/996Vdx/pFfiyl/bPgQW9Jdk7Bq9bJ45uE74j9/cUPMvOOxeP/L/zd+cdmo2KP2ZNXqWPX8H2LquMPiu3Pqr69KgqzVMfPo7nXDajHujfe/Kp67c1z0evv5WPEvn4j+TU89aHUi7T0hV3NRdcw8qk8c3PgxuYae1h/IVcXAcXfG76YeGP3/96X41flHxtem/DGaKVy/JplH/TS2jcFTGg+QKOo35GqZmvZfFZvvNyVm3XhirXP1qufjl6ccECff/aEYfOSRcdJXjowvfvYTsela4uTqmLTt4GgYnkCvM39priVAgAABAgQI1AoI5GwEAgQIECBAoM2nwNoN5C75W4zvNzSuWP9BqS26GBhnP/NcfG+niEWTd42ByWNlrX4urpUbVw2cGA8/dUnsVh8WrZwWn+t1aty/TtveMW720rhqWHuLmyaQS/pYmbTbamzMavEhtqZP5D04vl8MTY8QTV+9bet11roZtBhnId+Qq7l8nQMq2nLZJEbd/FLyRF99mimQa28X+T0BAgQIECBAoFABgVyhYtoTIECAAIE8CnTmCblLPhUrZx4Tu4z6RSxuLVmr6h9jLjsi5n/zR1H3RmfTp9yWxj3jR8TIK+a1fcJqzVWbj4rrnp0RR/dpugAr48rhveOkOeveeN2nzFpbuJSBXHLp0mmfi36n3t8sPGz2iuzKmXHMLqPiF60jRP8xl8UR878ZP1r7WmtVEqqtTh6Rq8kWSx7I1WRyC6bFyKET4p4m3+NbR6S1k2w9IZfHv3hzIkCAAAECBDawgEBuAy+A2xMgQIAAgUwIdDKQq5nD6nnT4+RjJseMp1+Od5LTVqt69IqB+34zLp3+nTiw/4PNvmNWtc/UeP3346M+W1v90v+LKy89P66+bV68/FaTE1aT01r7bDc4Dj/uojhz/Gejf8NrlE3UVs+L6V/7anz7f56tvW9y4+g1cLc49bJZ8R8HfLgd3vSB3DqvbiY9r/PNupqxnHxMTJ7xdLxch5CMZd/45qXT4zvJK7wPntAnhtd/zK1qn5j6+u9jfILQFYFcLUT14rjr+xPi3Gtnx/xX6527R88+28Xgw4+L8844MT7/8caDKOrwPCGXib9RgyBAgAABAgRyJSCQy9VymgwBAgQIECBAgAABAgQIECBAgEDWBQRyWV8h4yNAgAABAgQIECBAgAABAgQIEMiVgEAuV8tpMgQIECBAgAABAgQIECBAgAABAlkXEMhlfYWMjwABAgQIECBAgAABAgQIECBAIFcCArlcLafJECBAgAABAgQIECBAgAABAgQIZF1AIJf1FTI+AgQIECBAgAABAgQIECBAgACBXAkI5HK1nCZDgAABAgQIECBAgAABAgQIECCQdQGBXNZXyPgIECBAgAABAgQIECBAgAABAgRyJSCQy9VymgwBAgQIECBAgAABAgQIECBAgEDWBQRyWV8h4yNAgAABAgQIECBAgAABAgQIEMiVgEAuV8tpMgQIECBAgAABAgQIECBAgAABAlkXEMhlfYWMjwABAgQIECBAgAABAgQIECBAIFcCArlcLafJECBAgAABAgQIECBAgAABAgQIZF1AIJf1FTI+AgQIECBAgAABAgQIECBAgACBXAkI5HK1nCZDgAABAgQIECBAgAABAgQIECCQdQGBXNZXyPgIECBAgAABAgQIECBAgAABAgRyJSCQy9VymgwBAgQIECBAgAABAgQIECBAgEDWBQRyWV8h4yNAgAABAgQIECBAgAABAgQIEMiVgEAuV8tpMgQIECBAgAABAgQIECBAgAABAlkXEMhlfYWMjwABAgQIECBAgAABAgQIECBAIFcCArlcLafJECBAgAABAgQIECBAgAABAgQIZF1AIJf1FTI+AgQIECBAgAABAgQIECBAgACBXAkI5HK1nCZDgAABAgQIECBAgAABAgQIECCQdQGBXNZXyPgIECBAgAABAgQIECBAgAABAgRyJSCQy9VymgwBAgQIEOiYwPLlK2PevOdi7tz5HevAVQQIECBAgAABAgQSgcGDd4xBg3aILbbYjEcbAgI524MAAQIECFS4QE0Yd++9D8SWW/aOfffdo8I1TJ8AAQIECBAgQKAzAvfd90i88cayGDFiqFBOINeZreRaAgQIECCQb4E5cx6Kbt0+ENtvPyD69u2d78maHQECBAgQIECAQEkFlixZFgsXvhhr1vwzhg3bq6T3KufOPSFXzqtn7AQIECBAoAgCl19+TUyYcGwRetIFAQIECBAgQIAAgToBNWbbO0Eg5y+FAAECBAhUuIBiqcI3gOkTIECAAAECBEogoMYUyJVgW+mSAAECBAjkR0CxlJ+1NBMCBAgQIECAQFYE1JgCuazsReMgQIAAAQKZFFAsZXJZDIoAAQIECBAgUNYCakyBXFlvYIMnQIAAAQKlFlAslVpY/wQIECBAgACByhNQYwrkKm/XmzEBAgQIEChAQLFUAJamBAgQIECAAAECqQTUmAK5VBtFIwIECBAgUKkCiqVKXXnzJkCAAAECBAiUTkCNKZAr3e7SMwECBAgQyIGAYikHi2gKBAgQIECAAIGMCagxBXIZ25KGQ4AAAQIEsiWgWMrWehgNAQIECBAgQCAPAmpMgVwe9rE5ECBAgACBkgkolkpGq2MCBAgQIECAQMUKqDEFchW7+U2cAAECBAikEVAspVHShgABAgQIECBAoBABNaZArpD9oi0BAgQIEKg4AcVSxS25CRMgQIAAAQIESi6gxhTIlXyTuQEBAgQIEChnAcVSOa+esRMgQIAAAQIEsimgxhTIZXNnGhUBAgQIEMiIgGIpIwthGAQIECBAgACBHAmoMQVyOdrOpkKAAAECBIovoFgqvqkeCRAgQIAAAQKVLqDGFMhV+t+A+RMgQIAAgTYFFEs2CAECBAgQIECAQLEF1JgCuWLvKf0RIECAAIFcCSiWcrWcJkOAAAECBAgQyISAGlMgl4mNaBAECBAgQCCrAoqlrK6McREgQIAAAQIEyldAjSmQK9/da+QECBAgQKALBBRLXYDsFgQIECBAgACBChNQYwrkKmzLmy4BAgQIEChMQLFUmJfWBAgQIECAAAEC7QuoMQVy7e8SLQgQIECAQAULKJYqePFNnQABAgQIECBQIgE1pkCuRFtLtwQIECBAIB8CiqV8rKNZECBAgAABAgSyJKDGFMhlaT8aCwECBAgQyJyAYilzS2JABAgQIECAAIGyF1BjCuTKfhObAAECBAgQKKWAYqmUuvomQIAAAQIECFSmgBpTIFeZO9+sCRAgQIBASgHFUkoozQgQIECAAAECBFILqDEFcqk3i4YECBAgQKASBRRLlbjq5kyAAAECBAgQKK2AGlMgV9odpncCBAgQIFDmAoqlMl9AwydAgAABAgQIZFBAjSmQy+C2NCQCBAgQIJAdAcVSdtbCSAgQIECAAAECeRFQYwrk8rKXzYMAAQIECJREQLFUEladEiBAgAABAgQqWkCNKZCr6D8AkydAgAABAu0JKJbaE/J7AgQIECBAgACBQgXUmAK5QveM9gQIECBAoKIEFEsVtdwmS4AAAQIECBDoEgE1pkCuSzaamxAgQIAAgXIVUCyV68oZNwECBAgQIEAguwJqTIFcdnenkREgQIAAgQwIKJYysAiGQIAAAQIECBDImYAaUyCXsy1tOgQIECBAoLgCiqXieuqNAAECBAgQIEAgQo0pkPN3QIAAAQIECLQhoFiyPQgQIECAAAECBIotoMYUyBV7T+mPAAECBAjkSkCxlKvlNBkCBAgQIECAQCYE1JgCuUxsRIMgQIAAAQJZFVAsZXVljIsAAQIECBAgUL4CakyBXPnuXiMnQIAAAQJdIKBY6gJktyBAgAABAgQIVJiAGlMgV2Fb3nQJECBAgEBhAoqlwry0JkCAAAECBAgQaF9AjSmQa3+XaEGAAAECBCpYQLFUwYtv6gQIECBAgACBEgmoMQVyJdpauiVAgAABAvkQUCzlYx3NggABAgQIECCQJQE1pkAuS/vRWAgQIECAQOYEFEuZWxIDIkCAAAECBAiUvYAaUyBX9pvYBAgQIECAQCkFFEul1NU3AQIECBAgQKAyBdSYArnK3PlmTYAAAQIEUgoollJCaUaAAAECBAgQIJBaQI0pkEu9WTQkQIAAAQKVKDBnzkPRrdsHYvvtB0Tfvr0rkcCcCRAgQIAAAQIEiiSwZMmyWLjwxViz5p8xbNheReo1f910W5P85G9aZkSAAAECBAikFVi+fGXce+8DseWWvWPfffdIe5l2BAgQIECAAAECBNYRuO++R+KNN5bFiBFDY4stNiO0HgGBnK1BgAABAgQIRE0oN2/eczF37nwaBAgQIECAAAECBDosMHjwjjFo0A7CuHYEBXId3mIuJECAAAECBAgQIECAAAECBAgQIFC4gECucDNXECBAgAABAgQIECBAgAABAgQIEOiwgECuw3QuJECAAAECBAgQIECAAAECBAgQIFC4gECucDNXECBAgAABAgQIECBAgAABAgQIEOiwgECuw3QuJECAAAECBAgQIECAAAECBAgQIFC4gECucDNXECBAgAABAgQIECBAgAABAgQIEOiwgECuw3QuJECAAAECBAgQIECAAAECBAgQIFC4gECucDNXECBAgAABAgQIECBAgAABAgQIEOiwgECuw3QuJECAAAECBAgQIECAAAECBAgQIFC4gECucDNXECBAgAABAgQIECBAgAABAgQIEOiwgECuw3QuJECAAAECBAgQIECAAAECBAgQIFC4gECucDNXECBAgAABAgQIECBAgAABAgQIEOiwgECuw3QuJECAAAECBAgQIECAAAECBAgQIFC4gECucDNXECBAgAABAgQIECBAgAABAgQIEOiwgECuw3QuJECAAAECBAgQIECAAAECBAgQIFC4gECucDNXECBAgAABAgQIECBAgAABAgQIEOiwgECuw3QuJECAAAECBAgQIECAAAECBAgQIFC4gECucDNXECBAgAABAgQIECBAgAABAgQIEOiwgECuw3QuJECAAAECBAgQIECAAAECBAgQIFC4gECucDNXECBAgAABAgQIECBAgAABAgQIEOiwgECuw3QuJECAAAECBAgQIECAAAECBAgQIFC4gECucDNXECBAgAABAgQIECBAgAABAgQIEOiwgECuw3QuJECAAAECeRSojlVP3BaTL7osbp09P15dsTrer51mVfTotVXsOHx0nHb2mXH4kE2je1vTr14cd31/XExdMzl+fd6nyhMqD3MoT3mjJkCAAAECBAjkXkAgl/slNkECBAgQIJBSIAmgbv36XjHmpsVrQ7j1XVcV/cfcFA9dOzr6r5PKrY55078Wh31rRjy/+v0YMHFuLLqk3AK5PMwh5ZprRoAAAQIECBAgsEEEBHIbhN1NCRAgQIBA1gSqY84J28Tw6UtSD2yTMXfG0htHNn9S7oaR0W3srIY+yjKQy8McUq+ihgQIECBAgAABAhtCQCC3IdTdkwABAgQIZE1g0QWxy3bnxdMFjWtATJy7KJo9AJeHMCsPcyhoHTUmQIAAAQIECBDoagGBXFeLux8BAgQIEMigwMppn4tep97fMLKq/qPip7dNi9FDPhab1ryWWr0qnv/D1Dhl9Plxz1t1X5Wr+VnnCbg8hFl5mEMG95ghESBAgAABAgQINAoI5OwGAgQIECBAIJ6ctG0MnvJig8RB16+JmUevC1M954TYZvj0aHix9aDrY01twxtiZLex0fiyastrG5+mu2Fkt2h4q3XAxHj01wPjkoNPjRnPJwdIVPWIjw0+Pq6858cxcrO1fSTftvvDtHNiwtQZ8fTL70R18s9VPXrFwH2Pj7OnnBdjBvVY7wpWL/5DTDtnQkyd8XS8/E7tlcnhFANj3+PPjinnjYnml6afwzrzbXCwmQgQIECAAAECBAi0LyCQa99ICwIECBAgkHuB6msOiI2O+23DPOuekJseR+/RO9YfdzVlSR9mNQvktt4n9qm+P+5v+um6T54fLzz13di2pvulM+KoTx8RNy1ufCqv2WJUbR57X3h3zD5zt3VOfV0646j49BE3xfov3TsuvHt2nLlb/ckU6ecgkMv9n4QJEiBAgAABAgRKKiCQKymvzgkQIECAQJkIrLwyhvc+Kea0yL1qn0Tb7cg48qSvxGEj9oyde68vnksfZjUL5FryJE/IfemqxTHruOTxuOrHYtIue8aUBesJ4xqu3SRG3fxSzPhq/SN1NZdOil32nBLtXzoqbn5pRtRdmn4OArky2deGSYAAAQIECBDIqIBALqMLY1gECBAgQKCrBZYm307bPnmX9O02bty9504x4sSz46IzD48htR+Xa/GT4vtr6wRyVQNj3J2/i6kH9m/2lNuiybvGwLOeiLo4rio2329K3HPr+OS+EauemBaHDj895tQPtu8p8cDr02Lv2raLYvKuA+OsJ9YGeclTdPtNuSduHT8kNo1V8cS0Q2P46XMa5tn3lAfi9Wl1V9b+pJiDQK6rd6f7ESBAgAABAgTyJSCQy9d6mg0BAgQIEOiEQHUsmDYyhk64J5qc29B6fzUh1+UPxMzxA5u/KpoizGoZyG08+vZYccuhLV45fTImbTs4Gj5rl3xrbu6iS+JTTUZTfc+x0X//a2NZ7b9tHGPu/GvcODL5n09Oim0HT4n6L+Ktc/BE8hW6e47tH/tfW3dlbDwm7vzrjVFzae1Pijl0AtmlBAgQIECAAAECBEIgZxMQIECAAAECzQVWz4ubzp8YF115bzxbexDC+n42iYOuX5gc/tCnsUGKMKtlINfqARJ/nhy7bn1WPLG2562/9Wi8fNluLQbS/BXT3uNmx9KrhsWfkyfrtk6erKv72Tq+9ejLse6lI6Nbw8kSvWPc7KWRXFr3k2IOtgwBAgQIECBAgACBzggI5Dqj51oCBAgQIJBzgdXLnomH7709/vtnN8fNjy2IFatbfM9t49Fx+4pb4tCGcxGaBl0R6z6dVpN3NTllNRpPX21GmZzm2ic5zXXtM2zplPe/Ot77zbHx4Al9Yvj0gq6M/a9+L35z7NpJCOTSeWtFgAABAgQIECDQYQGBXIfpXEiAAAECBCpNoDr5dtt18fUvnxx3NBxdWpUcqPC/yYEKay1ShFmpArkW/aSSXvta69PNAr9UVzYPDlPMIV2vWhEgQIAAAQIECBBoXUAgZ2cQIECAAIFKF2jxzbWqg66P1TOPbvFNt0ak6msOiI2O+23DPww8+5l47ns71f3/FGFWqkBu5lHx4YNvir8VsjZrA7lXj/pwHHxTQVcK5Apx1pYAAQIECBAgQKDTAgK5ThPqgAABAgQIlLtA8srpvxwZd9S/jZqcejrx4afikt1aOUU1ORDhsdN2jN1/VH9kQkSzQK7Fq6YdfmX12XNih50vigVraVv/hlzr7s+es0PsfFHDla1/Q66tJUsxh3JfceMnQIAAAQIECBDYsAICuQ3r7+4ECBAgQCADAtXJg209YuysJt+H6/7xOHzyz+M/xu4ZO/fukYwxeV31tSfi15O/ESdf8cd4u2HUTU43rfm3dk84TfkNuZgTJ/QZHg2fgmvllNX1wnU2UEsxhwwsmiEQIECAAAECBAiUsYBArowXz9AJECBAgECxBKqTEGub5BCFJYV22PeUeOD1abF3/XUtwqyN978qnrtzXPR6+/lY8S+fiP6bpQ3karK9bWPwlPon8api8/2mxKwbT4w9koCwetXz8ctTDoiT7/5QDD7yyDjpK0fGFz/7idi09qG+J2PStoOj8dLNY78ps+LGE/eI3j2SYPH5X8YpB5wcd39ocBx55EnxlSO/GJ/9xKaNr+immEMyixjZbWzMqp938prvmuQ1Xz8ECBAgQIAAAQIE0ggI5NIoaUOAAAECBHIvkLyKOmmX2HPKgmhxjmobM98kOdDhpeRAhyRlq/9ZOS0+1+vUuH+dq3rHuNlL46ph6QO5qJ4ZR/U5OG5qfBwv9Viqk2/Q9Um+QZfu0lFx80szomEaKeYgkMv9H4QJEiBAgAABAgRKKiCQKymvzgkQIECAQDkJLI17xo+IkVfMS15QbecneaX1a9f/PqaP7t/i8IeVceXw3nHSnHVjvYOuXxM1D5GlOtRh7e2rF0yLkUMnxD1vtRETVm0ee194d8w+c7cmY6mOBdNGxtAJ90Tbl+4dF949O85s9r289ucgkGtvg/g9AQIECBAgQIBAWwICOfuDAAECBAgQaCaw+qX/F1deen5cfdu8ePmtFbF6bRZW1aNXbL7NoDj8uPPijBM/Hx+v+bRcaz+r58X0r301vv0/z8Y7NcleVY/oNXC3OPWyWfEfB3y4oECutvvqxXHX9yfEudfOjvmv1o+ne/Tss10MPvy4OO+ME+Pz6xlM9eK74vsTzo1rZ8+PV1esrnv6r3vP6LPd4Lbn0c4cBHL+aAgQIECAAAECBDojIJDrjJ5rCRAgQIAAAQIECBAgQIAAAQIECBQoIJArEExzAgQIECBAgAABAgQIECBAgAABAp0REMh1Rs+1BAgQIECAAAECBAgQIECAAAECBAoUEMgVCKY5AQIECBAgQIAAAQIECBAgQIAAgc4ICOQ6o+daAgQIECBAgAABAgQIECBAgAABAgUKCOQKBNOcAAECBAgQIECAAAECBAgQIECAQGcEBHKd0XMtAQIECBAgQIAAAQIECBAgQIAAgQIFBHIFgmlOgAABAgQIECBAgAABAgQIECBAoDMCArnO6LmWACaE5EAAACAASURBVAECBAgQIECAAAECBAgQIECAQIECArkCwTQnQIAAAQIECBAgQIAAAQIECBAg0BkBgVxn9FxLgAABAgQIECBAgAABAgQIECBAoEABgVyBYJoTIECAAAECBAgQIECAAAECBAgQ6IyAQK4zeq4lQIAAAQIECBAgQIAAAQIECBAgUKCAQK5AMM0JECBAgAABAgQIECBAgAABAgQIdEZAINcZPdcSIECAAAECBAgQIECAAAECBAgQKFBAIFcgmOYECBAgQIAAAQIECBAgQIAAAQIEOiMgkOuMnmsJECBAgAABAgQIECBAgAABAgQIFCggkCsQTHMCBAgQIECAAAECBAgQIECAAAECnREQyHVGz7UECBAgQIAAAQIECBAgQIAAAQIEChQQyBUIpjkBAgQIECBAgAABAgQIECBAgACBzggI5Dqj51oCBAgQIECAAAECBAgQIECAAAECBQoI5AoE05wAAQIECBAgQIAAAQIECBAgQIBAZwQEcp3Rcy0BAgQIECBAgAABAgQIECBAgACBAgUEcgWCaU6AAAECBAgQIECAAAECBAgQIECgMwICuc7ouZYAAQIECOREYPnylTFv3nMxd+78nMzINAgQIECAAAECBDaEwODBO8agQTvEFltstiFuXzb3FMiVzVIZKAECBAgQKI1ATRh3770PxJZb9o59992jNDfRKwECBAgQIECAQEUI3HffI/HGG8tixIihQrk2VlwgVxF/DiZJgAABAgTWLzBnzkPRrdsHYvvtB0Tfvr1RESBAgAABAgQIEOiwwJIly2LhwhdjzZp/xrBhe3W4n7xfKJDL+wqbHwECBAgQaEfg8suviQkTjuVEgAABAgQIECBAoGgCasy2KQVyRdtqOiJAgAABAuUpoFgqz3UzagIECBAgQIBAlgXUmAK5LO9PYyNAgAABAhtcQLG0wZfAAAgQIECAAAECuRNQYwrkcrepTYgAAQIECBRTQLFUTE19ESBAgAABAgQI1AioMQVy/hIIECBAgACBNgQUS7YHAQIECBAgQIBAsQXUmAK5Yu8p/REgQIAAgVwJKJZytZwmQ4AAAQIECBDIhIAaUyCXiY1oEAQIECBAIKsCiqWsroxxESBAgAABAgTKV0CNKZAr391r5AQIECBAoAsEFEtdgOwWBAgQIECAAIEKE1BjCuQqbMubLgECBAgQKExAsVSYl9YECBAgQIAAAQLtC6gxBXLt7xItCBAgQIBABQsolip48U2dAAECBAgQIFAiATWmQK5EW0u3BAgQIEAgHwKKpXyso1kQIECAAAECBLIkoMYUyGVpPxoLAQIECBDInIBiKXNLYkAECBAgQIAAgbIXUGMK5Mp+E5sAAQIECBAopYBiqZS6+iZAgAABAgQIVKaAGlMgV5k736wJECBAgEBKAcVSSijNCBAgQIAAAQIEUguoMQVyqTeLhgQIECBAoBIFFEuVuOrmTIAAAQIECBAorYAaUyBX2h2mdwIECBAgUOYCiqUyX0DDJ0CAAAECBAhkUECNKZDL4LY0JAIECBAgkB0BxVJ21sJICBAgQIAAAQJ5EVBjCuTyspfNgwABAgQIlERAsVQSVp0SIECAAAECBCpaQI0pkKvoPwCTJ0CAAAEC7QkoltoT8nsCBAgQIECAAIFCBdSYArlC94z2BAgQIECgogQUSxW13CZLgAABAgQIEOgSATWmQK5LNpqbECBAgACBchVQLJXryhk3AQIECBAgQCC7AmpMgVx2d6eRESBAgACBDAgoljKwCIZAgAABAgQIEMiZgBpTIJezLW06BAgQIECguAKKpeJ66o0AAQIECBAgQCBCjSmQ83dAgAABAgQItCGgWLI9CBAgQIAAAQIEii2gxhTIFXtP6Y8AAQIECORKQLGUq+U0GQIECBAgQIBAJgTUmAK5TGxEgyBAgAABAlkVUCxldWWMiwABAgQIECBQvgJqTIFc+e5eIydAgAABAl0goFjqAmS3IECAAAECBAhUmIAaUyBXYVvedAkQIECAQGECiqXCvLQmQIAAAQIECBBoX0CNKZBrf5doQYAAAQIEKlhAsVTBi2/qBAgQIECAAIESCagxBXIl2lq6JUCAAAEC+RBQLOVjHc2CAAECBAgQIJAlATWmQC5L+9FYCBAgQIBA5gQUS5lbEgMiQIAAAQIECJS9gBpTIFf2m9gECBAgQIBAKQUUS6XU1TcBAgQIECBAoDIF1JgCucrc+WZNgAABAgRSCiiWUkJpRoAAAQIECBAgkFpAjSmQS71ZNCRAgAABApUooFiqxFU3ZwIECBAgQIBAaQXUmAK50u4wvRMgQIAAgTIXUCyV+QIaPgECBAgQIEAggwJqTIFcBrelIREgQIAAgewIKJaysxZGQoAAAQIECBDIi4AaUyCXl71sHgQIECBAoCQCiqWSsOqUAAECBAgQIFDRAmpMgVxF/wGYPAECBAgQaE9AsdSekN8TIECAAAECBAgUKqDGFMgVume0J0CAAAECFSWgWKqo5TZZAgQIECBAgECXCKgxBXJdstHchAABAgQIlKuAYqlcV864CRAgQIAAAQLZFVBjCuSyuzuNjAABAgQIZEBAsZSBRTAEAgQIECBAgEDOBNSYArmcbWnTIUCAAAECxRVQLBXXU28ECBAgQIAAAQIRakyBnL8DAgQIECBAoA0BxZLtQYAAAQIECBAgUGwBNaZArth7Sn8ECBAgQCBXAoqlXC2nyRAgQIAAAQIEMiGgxhTIZWIjGgQBAgQIEMiqwJw5D0W3bh+I7bcfEH379s7qMI2LAAECBAgQIECgDASWLFkWCxe+GGvW/DOGDdurDEa8YYbYbU3ys2Fu7a4ECBAgQIBAFgSWL18Z9977QGy5Ze/Yd989sjAkYyBAgAABAgQIEChTgfvueyTeeGNZjBgxNLbYYrMynUXphy2QK72xOxAgQIAAgcwL1IRy8+Y9F3Pnzs/8WA2QAAECBAgQIEAguwKDB+8YgwbtIIxrZ4kEctndw0ZGgAABAgQIECBAgAABAgQIECCQQwGBXA4X1ZQIECBAgAABAgQIECBAgAABAgSyKyCQy+7aGBkBAgQIECBAgAABAgQIECBAgEAOBQRyOVxUUyJAgAABAgQIECBAgAABAgQIEMiugEAuu2tjZAQIECBAgAABAgQIECBAgAABAjkUEMjlcFFNiQABAgQIECBAgAABAgQIECBAILsCArnsro2RESBAgAABAgQIECBAgAABAgQI5FBAIJfDRTUlAgQIECBAgAABAgQIECBAgACB7AoI5LK7NkZGgAABAgQIECBAgAABAgQIECCQQwGBXA4X1ZQIECBAgAABAgQIECBAgAABAgSyKyCQy+7aGBkBAgQIECBAgAABAgQIECBAgEAOBQRyOVxUUyJAgAABAgQIECBAgAABAgQIEMiugEAuu2tjZAQIECBAgAABAgQIECBAgAABAjkUEMjlcFFNiQABAgQIECBAgAABAgQIECBAILsCArnsro2RESBAgAABAgQIECBAgAABAgQI5FBAIJfDRTUlAgQIECBAgAABAgQIECBAgACB7AoI5LK7NkZGgAABAgQIECBAgAABAgQIECCQQwGBXA4X1ZQIECBAgAABAgQIECBAgAABAgSyKyCQy+7aGBkBAgQIECBAgAABAgQIECBAgEAOBQRyOVxUUyJAgAABAgQIECBAgAABAgQIEMiugEAuu2tjZAQIECBAgAABAgQIECBAgAABAjkUEMjlcFFNiQABAgQIECBAgAABAgQIECBAILsCArnsro2RESBAgACBDSdQvSqeuG1yXHTZrTF7/quxYvX7tWOp6tErttpxeIw+7T/ivDGDokerI7whRnYbG7PqfzdgYsxddEl8qmXb1fNi+slHxaMHPhn/96sbbqruTIAAAQIECBAgQKCrBQRyXS3ufgQIECBAIOMCqx+6IPY7+IJ48K26EG59P1X9R8X0390Sxw7s3qJJO4Fc9eK469yj49jL74s3qiMOun5NzDw64yiGR4AAAQIECBAgQKCIAgK5ImLqigABAgQIlLvA0hsOjZ2OuSPayeIap9l9UJz9wJ/ie7s1DeXaDuSenLRtDJ7yYkMfArly3zXGT4AAAQIECBAgUKiAQK5QMe0JECBAgEBOBaofmxS77DklFrT9YNw6s68aeHb86bnvrftK6nqcBHI53UCmRYAAAQIECBAgkFpAIJeaSkMCBAgQIJBngUUxedeBcdYTTdO4TWLnr02Jqy8aHUM+tml0j9Wx7JE74vzTvhFXPvhWNLbcOEbfviJuObTlq6utewnk8ryPzI0AAQIECBAgQCCNgEAujZI2BAgQIEAg7wIPjo9+Q6+IJQ3z3CT5ttvC5NtufVqZ+dK4YeT2MXbW2w2/qzro+lidfAiuLpJbzyurT06KbQdPicaXVVt2fVB895TH44Ir6kcxICbOXRSXrHMaRHJdi/H2PeWBeH3a3nUd3jAyuo1tOFLCN+ryvnfNjwABAgQIECBQhgICuTJcNEMmQIAAAQLFFphzQp8YPn1ZQ7cbj749Vtxy6NqArbVM7rL43Mcvi9X7HBKHnPzvceznhsTHNq1/Qq7jgdz1D2wTE5sEgwMmzo1FrSRyD47vF0PXF9wJ5Iq9PfRHgAABAgQIECBQZAGBXJFBdUeAAAECBMpP4M/J66pbJ6+r1o984xhz51/jxpEdnUknArk1F8XT2w6OhjMfBkyMuYsuafF9ugdjfL+h0ZDHffL8eOGp78a29cMVyHV04VxHgAABAgQIECDQRQICuS6CdhsCBAgQIJBdgcfitG12jx+9Uj/CIXHxK4/Hmf/a0RF37pTVRRfsEtud9/Tam7fy2mqLV1+HXPxKPN50sAK5ji6c6wgQIECAAAECBLpIQCDXRdBuQ4AAAQIEsivQIkCLg+L6NTPj6A4PuHOBXCy6IHbZ7rxoiORavLba7FCIqmHxs2Wz48TNOjxYFxIgQIAAAQIECBDocgGBXJeTuyEBAgQIEMiaQMYCuWjxCm2z11afjElNXmmtGvazWDb7xJDHZW1PGQ8BAgQIECBAgEBbAgI5+4MAAQIECFS8wMw46sMHx01/q4cYGGc/81x8b6eOwnTyCbnktiunfS56nXr/2gF8Ms5/4an4bs1H4pq9rlqVnKC6OjkJtv4wiY6O13UECBAgQIAAAQIEulZAINe13u5GgAABAgQyKPBsnLPDznHRgvqhVcWom/83Zny1raEmId4WR8XcnUfFyKO/Fv8+as/YuXePtRd0PpCLlVfG8N4nxZz367r85PkvxFNJItfsddWNR8ftK26JQ+VxGdxThkSAAAECBAgQINCWgEDO/iBAgAABAgRizgl9Yvj0ZQ0SG4++PVbccmisL+uqTtK6XofdGg0P1TV7rbQIgVysjCuH946TGhO55CTVQ2J6k9dVNx5zZ/y140fBWnUCBAgQIECAAAECG0xAILfB6N2YAAECBAhkSGDmUfHhg29qDNhik+R10IXJ66B91h3k6nvi2O32j2uXNP5qQLODF9oO5Jq/jhrJfdYk91n3NtXJaak9xs6KuofkktdWf3N43HZA/WEPvWPc7KVx1bAMGRoKAQIECBAgQIAAgZQCArmUUJoRIECAAIF8CzQ/LKFurpvEZ075afzkzC/FkI9tGt2rV8Xzd02OY477YTz41tp3SWuaVQ2Jixc8HmfWfOOt9qftQC6SoK1bErTV/6wvkIvqpJ8eY2PW2lv17ds3lixZmwL2PSUeeH1a7J3vRTE7AgQIECBAgACBnAoI5HK6sKZFgAABAgQKFah+bFLssueUWNAka0vTR99xs+Pl5FG1xtdbCwvkBox/MJ6e+umofv61qP7Ex6Pxmbzq5Dt2veKwWxtejG0YTvMn8lqMMm3gl2Zy2hAgQIAAAQIECBAogYBArgSouiRAgAABAuUqsDQJs7ZPnl57O+UEqgZOjIefuiR2a/axuXYCuTknRJ/h06Pxi3X1N9snpq74fYzfrPHm63yrrvZXTU5dbW2cArmUq6cZAQIECBAgQIDAhhIQyG0oefclQIAAAQIZFVh6z6Q49N9avJa6zlirYvO9L4y7Z5/ZIoyradhOIBcPxvh+Q+OKJt+gq+t+QEycuygu+VTTmyWnuX744Lip6UNyQy6OVx4/M/51fX4CuYzuLMMiQIAAAQIECBCoFxDI2QsECBAgQIDAugLJ9+KeuG1yXHTZrTF7/quxYnXde6zde/aJ7QYfHt+8/KI4ZkjyXblW7doL5CKqF98V5x79/8W0P7wWtV137xnbfPJLcfZ//lccv1PzTlueALvP1BXx+6aP0bUcg0DOjiZAgAABAgQIEMi4gEAu4wtkeAQIECBAoLIFWnxHrmpY/GzZ7DixyWutle1j9gQIECBAgAABAuUoIJArx1UzZgIECBAgkGOB6urq6N49efau5im9aYfG8NPnNHzTrmrYz2LZ7BNDHpfjDWBqBAgQIECAAIEKEBDIVcAimyIBAgQIECgngT9P3jW2PuuJVobcN8bNfjmuGtb6i7LlNEdjJUCAAAECBAgQqGwBgVxlr7/ZEyBAgACB7Am0+AZc3QCTQyQOvzGe/+VXPR2XvRUzIgIECBAgQIAAgQIFBHIFgmlOgAABAgQIlFjgNydH/8Omx2t1pz1Ez20+GYeeeV38dNyg6FHiW+ueAAECBAgQIECAQFcICOS6Qtk9CBAgQIAAAQIECBAgQIAAAQIECKwVEMjZCgQIECBAgAABAgQIECBAgAABAgS6UEAg14XYbkWAAAECBAgQIECAAAECBAgQIEBAIGcPECBAgAABAgQIECBAgAABAgQIEOhCAYFcF2K7FQECBAgQIECAAAECBAgQIECAAAGBnD1AgAABAgQIECBAgAABAgQIECBAoAsFBHJdiO1WBAgQIECAAAECBAgQIECAAAECBARy9gABAgQIECBAgAABAgQIECBAgACBLhQQyHUhtlsRIECAAAECBAgQIECAAAECBAgQEMjZAwQIECBAgAABAgQIECBAgAABAgS6UEAg14XYbkWAAAECBAgQIECAAAECBAgQIEBAIGcPECBAgAABAgQIECBAgAABAgQIEOhCAYFcF2K7FQECBAgQIECAAAECBAgQIECAAAGBnD1AgAABAgQIECBAgAABAgQIECBAoAsFBHJdiO1WBAgQIECAAAECBAgQIECAAAECBARy9gABAgQIECBAgAABAgQIECBAgACBLhQQyHUhtlsRIECAAAECBAgQIECAAAECBAgQEMjZAwQIECBAgAABAgQIECBAgAABAgS6UEAg14XYbkWAAAECBAgQIECAAAECBAgQIEBAIGcPECBAgAABArF8+cqYN++5mDt3Pg0CBAgQIECAAAECHRYYPHjHGDRoh9hii8063EclXCiQq4RVNkcCBAgQINCGQE0Yd++9D8SWW/aOfffdgxUBAgQIECBAgACBDgvcd98j8cYby2LEiKFCuTYUBXId3mIuJECAAAEC+RCYM+eh6NbtA7H99gOib9/e+ZiUWRAgQIAAAQIECGwQgSVLlsXChS/GmjX/jGHD9togYyiHmwrkymGVjJEAAQIECJRQ4PLLr4kJE44t4R10TYAAAQIECBAgUGkCasy2V1wgV2l/EeZLgAABAgRaCCiWbAkCBAgQIECAAIFiC6gxBXLF3lP6I0CAAAECuRJQLOVqOU2GAAECBAgQIJAJATWmQC4TG9EgCBAgQIBAVgUUS1ldGeMiQIAAAQIECJSvgBpTIFe+u9fICRAgQIBAFwgolroA2S0IECBAgAABAhUmoMYUyFXYljddAgQIECBQmIBiqTAvrQkQIECAAAECBNoXUGMK5NrfJVoQIECAAIEKFlAsVfDimzoBAgQIECBAoEQCakyBXIm2lm4JECBAgEA+BBRL+VhHsyBAgAABAgQIZElAjSmQy9J+NBYCBAgQIJA5AcVS5pbEgAgQIECAAAECZS+gxhTIlf0mNgECBAgQIFBKAcVSKXX1TYAAAQIECBCoTAE1pkCuMne+WRMgQIAAgZQCiqWUUJoRIECAAAECBAikFlBjCuRSbxYNCRAgQIBAJQoolipx1c2ZAAECBAgQIFBaATWmQK60O0zvBAgQIECgzAUUS2W+gIZPgAABAgQIEMiggBpTIJfBbWlIBAgQIEAgOwKKpeyshZEQIECAAAECBPIioMYUyOVlL5sHAQIECBAoiYBiqSSsOiVAgAABAgQIVLSAGlMgV9F/ACZPgAABAgTaE1AstSfk9wQIECBAgAABAoUKqDEFcoXuGe0JECBAgEBFCSiWKmq5TZYAAQIECBAg0CUCakyBXJdsNDchQIAAAQLlKqBYKteVM24CBAgQIECAQHYF1JgCuezuTiMjQIAAAQIZEFAsZWARDIEAAQIECBAgkDMBNaZALmdb2nQIECBAgEBxBRRLxfXUGwECBAgQIECAQIQaUyDn74AAAQIECBBoQ0CxZHsQIECAAAECBAgUW0CNKZAr9p7SHwECBAgQyJWAYilXy2kyBAgQIECAAIFMCKgxBXKZ2IgGQYAAAQIEsiqgWMrqyhgXAQIECBAgQKB8BdSYArny3b1GToAAAQIEukBAsdQFyG5BgAABAgQIEKgwATWmQK7CtrzpEiBAgACBwgQUS4V5aU2AAAECBAgQINC+gBpTINf+LtGCAAECBAhUsIBiqYIX39QJECBAgAABAiUSUGMK5Eq0tXRLgAABAgTyIaBYysc6mgUBAgQIECBAIEsCakyBXJb2o7EQIECAAIHMCSiWMrckBkSAAAECBAgQKHsBNaZAruw3sQkQIECAAIFSCiiWSqmrbwIECBAgQIBAZQqoMQVylbnzzZoAAQIECKQUUCylhNKMAAECBAgQIEAgtYAaUyCXerNoSIAAAQIEKlFAsVSJq27OBAgQIECAAIHSCqgxBXKl3WF6J0CAAAECZS6gWCrzBTR8AgQIECBAgEAGBdSYArkMbktDIkCAAAEC2RFQLGVnLYyEAAECBAgQIJAXATWmQC4ve9k8CBAgQIBASQQUSyVh1SkBAgQIECBAoKIF1JgCuYr+AzB5AgQIECDQnoBiqT0hvydAgAABAgQIEChUQI0pkCt0z2hPgAABAgQqSkCxVFHLbbIECBAgQIAAgS4RUGMK5Lpko7kJAQIECBAoVwHFUrmunHETIECAAAECBLIroMYUyGV3dxoZAQIECBDIgIBiKQOLYAgECBAgQIAAgZwJqDEFcjnb0qZDgAABAgSKK6BYKq6n3ggQIECAAAECBCLUmAI5fwcECBAgQIBAGwKKJduDAAECBAgQIECg2AJqTIFcsfeU/ggQIECAQK4EFEu5Wk6TIUCAAAECBAhkQkCNKZDLxEY0CAIECBAgkFUBxVJWV8a4CBAgQIAAAQLlK6DGFMiV7+41cgIECBAg0AUCiqUuQHYLAgQIECBAgECFCagxBXIVtuVNlwABAgQIFCagWCrMS2sCBAgQIECAAIH2BdSYArn2d4kWBAgQIECgggXmzHkounX7QGy//YDo27d3BUuYOgECBAgQIECAQGcFlixZFgsXvhhr1vwzhg3bq7Pd5fb6bmuSn9zOzsQIECBAgACBdgWWL18Z9977QGy5Ze/Yd9892m2vAQECBAgQIECAAIH1Cdx33yPxxhvLYsSIobHFFpuBWo+AQM7WIECAAAECBKImlJs377mYO3c+DQIECBAgQIAAAQIdFhg8eMcYNGgHYVw7ggK5Dm8xFxIgQIAAAQIECBAgQIAAAQIECBAoXEAgV7iZKwgQIECAAAECBAgQIECAAAECBAh0WEAg12E6FxIgQIAAAQIECBAgQIAAAQIECBAoXEAgV7iZKwgQIECAAAECBAgQIECAAAECBAh0WEAg12E6FxIgQIAAAQIECBAgQIAAAQIECBAoXEAgV7iZKwgQIECAAAECBAgQIECAAAECBAh0WEAg12E6FxIgQIAAAQIECBAgQIAAAQIECBAoXEAgV7iZKwgQIECAAAECBAgQIECAAAECBAh0WEAg12E6FxIgQIAAAQIECBAgQIAAAQIECBAoXEAgV7iZKwgQIECAAAECBAgQIECAAAECBAh0WEAg12E6FxIgQIAAAQIECBAgQIAAAQIECBAoXEAgV7iZKwgQIECAAAECBAgQIECAAAECBAh0WEAg12E6FxIgQIAAAQIECBAgQIAAAQIECBAoXEAgV7iZKwgQIECAAAECBAgQIECAAIGMC7z//vuxbNmKeOaZhfHqq6/HX/7yt3j//X9mfNTlN7yqqg/ERz6ycWy1Vb/Yeefto3fvXlFVVVV+E+niEQvkuhjc7QgQIECAAAECBAgQIECAAIHSCrz3XnU88cQzMX/+C7Uh0ZZb9o6NNtoounXrVtobV2Dva9asiffeey/eeGNZbfi5447bxZAhOyfe3StQI/2UBXLprbQkQIAAAQIECBAgQIAAAQIEMi5Q82Tco48+FW++ubw2GPrgBz+Y8RHnZ3h///vfa4PQj350i9h99108KdfG0grk8rPvzYQAAQIECBAgQIAAAQIECFS8QM2TWnfdNSdGjBgqjNsAu6EmlLv33gfiwAOH1T6Z6Kd1AYGcnUGAAAECBAgQIECAAAECBAjkRqAmDOrZ88Ox9dZb5WZO5TaRV155Nd5556+1oagfgZw9QIAAAQIECBAgQIAAAQIECORc4LrrflkbBG20kVdVN9RSv/de3VNyxxxzxIYaQubv6wm5zC+RARIgQIAAAQIECBAgQIAAAQJpBaZOvS5Gjz7YAQ5pwUrQruagh1tvvTNOPfWYEvSejy4FcvlYR7MgQIAAAQIECBAgQIAAAQIEEoHLL78mxowZxWIDC9x00x0xYcKxG3gU2b29QC67a2NkBAgQIECAAAECBAgQIECAQIECArkCwUrUXCDXNqxArkQbT7cECBAgQIAAAQIECBAgQIBAhgYGXwAAEo5JREFU1wsI5LrevLU7CuQEctnYiUZBgAABAgQIECBAgAABAgQIlFxAIFdy4lQ3EMgJ5FJtFI0IECBAgAABAgQIECBAgACB8hcQyGVjDQVyArls7ESjIECAAAECBAgQIECAAAECBEouIJArOXGqGwjkBHKpNopGBAgQIECAAAECBAgQIECAQPkLCOSysYYCOYFcNnaiURAgQIAAAQIECBAgQIAAAQIlF+hUIPePt+PpOy+Py6+8I/6w8LVY9e77teOt+tBm0W/7z8YhJ06KMw7bMT5U8lmU4Abvzo/rT/rP6Hnd5DikBN237FIgJ5Drgm3mFgQIECBAgAABAgQIECBAgEAWBDoWyFXH67/6Vhwy/ub4c3Xbs+j+r0fGtF/9KA7p1z0L0003hj9+N3b/yhXJ3PaPK978rzg83VWdaiWQE8h1agO5mAABAgQIECBAgAABAgQIECgfgcIDuep4cvLnY+Tl86Mmi6va7DPxtXPOimMO3C0Gbl7zLFx1vP3iI/Ffl38nfnjLc/FODUXPJNh6KAm2tigTl9v+LT56ym+TwQrksrJi3dYkP1kZjHEQIECAAAECBAgQIECAAAECBDojUGggtzwJq/ZKwqqaoK3n0EvirluOj+3+T+sjaNq26pPnxoO/mxDbdGawXXWtQK6rpFPfRyCXmkpDAgQIECBAgAABAgQIECBAIOsCBQVy//hNnLTTmLg9SeOqtvtG3DXnvPjUesK4unlXx4NnDI5Dr38z+d894pBrF8X0L5XBq6sCucxtW4Fc5pbEgAgQIECAAAECBAgQIECAAIGOChQSyK36xSGx08Q/xPuFhGsv/yC+MOyqeG/w/nH4xIvjm3tvWjvUZy78dHx+2ssR+10Zi6f8nzj9qxNixsK/RHX3j8T2+0yIS346IdY2TVq/G89df158Z/rtMXfRyqg9OyJpt9WOB8U3f3JpjN1h/cdGvPvcbXHpBZfFzX98KZb/Ze0H76o+FJtuOyQOHTclzhvb9NCJX8bRHz0x7mkFc+vx98Ufzx3U5DcdH1Nra+Ubcm3vYIFcR//CXUeAAAECBAgQIECAAAECBAhkTiB9ILcqrj5k2zjr4WQKPQ6PG166KvbrxGwaArlhh8dhj99W+9Rdw8+O34lH5ny77vXWdx+NC7/45Zj23PpOj+geO4z/n7j73N1bnOa6PO47c1QcfU3dt+7W99MzCQQfuuGIqPu8XcpArsNjWv84BHJtbyaBXCf+2FxKgAABAgQIECBAgAABAgQIZEsgfSA3I47pd3zcVfN02rCfxOJbjoo231ZtZ5oNgVxNu6p+cdjUmXHZV7aOeOtP8dTibWOPT9U8SfdS/PgLe8TFTyc3reoV+55xTXz/uD1iwCbd492k3W2nHxOT7no9eWKvKva8+Nn41XGNp0asSl47HZJ862518rt+B/4grv7h6Ni19tCJd+Otx2+N04/7dtz1es1kesRhN7waP2uaLrb5ymrHx9QWiUBOIJet/zIYDQECBAgQIECAAAECBAgQIFAygdSB3GuXxxd2vTCeTkbS/4R7408XDO7UmJoGch899q54avJn1umv8RXZnrHfFY/GDesc09rkG3U9RsW1C6+OL9WmhC/FD4ftFlPmJznenpfEU786fu0TcE1usfyn8aWdz40/Jf+0zuuobQRyHR9T21wCOYFcp/6gXEyAAAECBAgQIECAAAECBAiUj0DqQO6Z8+Mzn/9JvNJagNWB6TYGclvE2BkL4tK9W3ayOHk67lPJ03HJvyeh2oIkVKv7+lyLn1U/j0MGToqHkyfh9rticRLa1RwacWecuvMZ8du/vRO7X/rK2n9reeG8uPAz+8a0mgklr62+mby22vCz3kCuM2NqG0kg17aPV1Y78EfmEgIECBAgQIAAAQIECBAgQCCbAhs+kBseP1p8W4xZ5/3Xxu+5rXugQlPLxmBt87H/E89eOjQldEcCudKNSSAnkEu5cTUjQIAAAQIECBAgQIAAAQIEyl0gdSDX8CRaRGHBV+tCjU/I7R9XvPlfcXjLZk2eyEtt3PJJt6YX/uPtWPLmklj02KPxx4eTQyB+92jMfzU51bWmTdon5Io9pibjE8gJ5FLvcw0JECBAgAABAgQIECBAgACB8hZIHcjFA3HGTl+O699K5tvWK6QpOboikHv3uV/E+d+5KmbMfSFWvVtzgMN6fgRyKVdtwzXzyuqGs3dnAgQIECBAgAABAgQIECBAoMgC6QO56rjt6P5xyj1JsNXj8Ljhpaui6cGk6x/Wqrj6sEEx9a97xRdHfiu+8Y29o1/SuJBAbr8r3kq+A1fIxKvjycmfj5GXz697Aq7mp/tHYouem8XHPrlL7PqZQ2LkQVvEr8ceGlcX8g25Jk/IFT6mtsfvCbm2fQRyhex/bQkQIECAAAECBAgQIECAAIFMC6QP5CIaTxjtEYdcuyimf6nmAIV2fpqcZlqVPIn2SnJ4Qs3n4toN5P5xY3y1/zdiTtK27W/ItXL/JsFZzyHfiKnTJ8YX//VDLRp24BtynRlTO0wCOYFce39Kfk+AAAECBAgQIECAAAECBAjkRKCQQC7+8Zs4aacxcfs7NSnZSfHbB74Xn1rnMIamMNXx4BmD49Dr30z+sWccdsOC+Nl+dSFeu4FcNDnRdMfvxCNzvh3bpDRfOHmP2OfyF5LWe8XFC2bGca0dz/qP5ICGrU+Mmgf+Un9DrhNjam/oAjmBXHt7xO8JECBAgAABAgQIECBAgACBnAgUFMglc15+27/FXqf8NmoyuZ77/STuu/ao6NdqKFcdL1x9RBx41h9q21Yl35176lfHxxZr3doP5CJe/vHw2Pvip+L9qIo9z58bt53Yr/bpuqY//3jy/Bh24BXx2kc2i+2Pvy1+++1PNgn71hfIJa+0XrhPHDjthaTvVgK5X42NfuN+nfxulzjr8dnxzY813rGjY2pvuwjkBHLt7RG/J0CAAAECBAgQIECAAAECBHIiUGggl0Ry8euThsfxt79eG2ZVbbZzHD7hojjliN1i4ObJa6E1p5k+fU/85Ltnxi8eXVEXePVMTlJ9KDlJtT6NS/4pTSAX/5gbFw7bP6a9UNNLzxhy7A/iB9/5cnxyk+Qpu3eXx+N3/SDOmvTzeKI28UvCt6eSp+Fq7nHPCfHxo2+L1TVX1byy+tMJMWLAJkmY92689fisuLTp2FoL5Bpeee0Rwy59JG4Y2yQI7OiY2tkvAjmBXE7+k2IaBAgQIECAAAECBAgQIECAQHsChQdyNT2+G4/98LA4+od/jJVtHF5a07L7DsfHDf99SezbJIyr+fdUgVxNw+Wz4hsHHh+3/LnheIZ1p9R9xxg/4544d7f678QtTw6g2D05gKImqWvtpyo22/3bcfYuN8cZV78c0T95/fZPyeu39U2bvpq79t82H/s/8eylQ+v+X4fG1PZKCOTa9nGoQ3t/yX5PgAABAgQIECBAgAABAgQIlI1AxwK5uun94+2n4s6fXBZX/uqhePHN5fGXtZlZ949sEdsMOiSOOnNCHLfHuq+Z1lybOpCru1E8ffNFce7022PuopXxbm0I2D0+stWOse8hJ8e3zzg8dmh5ZkPyJN+frjwvzvz5rJj/6l9qT1ut+tBm0W/7A+L4C8+uG1fDk3Q7xcRH7o/Tt2lctn88OT2+duIFMefFd+ue8hv2k1h8y1GNr8x2aEzr3xYCubb/ZARyZfOfFAMlQIAAAQIECBAgQIAAAQIE2hPoTCDXXt9+n15AICeQS79btCRAgAABAgQIECBAgAABAgTKWkAgl43lE8gJ5LKxE42CAAECBAgQIECAAAECBAgQKLmAQK7kxKluIJATyKXaKBoRIECAAAECBAgQIECAAAEC5S8gkMvGGgrkBHLZ2IlGQYAAAQIECBAgQIAAAQIECJRcQCBXcuJUNxDICeRSbRSNCBAgQIAAAQIECBAgQIAAgfIXEMhlYw0FcgK5bOxEoyBAgAABAgQIECBAgAABAgRKLiCQKzlxqhsI5ARyqTaKRgQIECBAgAABAgQIECBAgED5CwjksrGGAjmBXDZ2olEQIECAAAECBAgQIECAAAECJReYOvW6GD364OjWrVvJ7+UGrQusWbMmbr31zjj11GMQrUegW4K0hg4BAgQIECBAgAABAgQIECBAIA8C1133yxgxYmhstNEH8zCdspzDe+/9Pe6994E45pgjynL8XTFogVxXKLsHAQIECBAgQIAAAQIECBAg0CUCNUFQz54fjq233qpL7ucm6wq88sqr8c47f60NRv20LiCQszMIECBAgAABAgQIECBAgACB3Ai88cayuOuuObVh0Ac/6Cm5rl7Yv/+97um4Aw8cFltu2burb1829xPIlc1SGSgBAgQIECBAgAABAgQIECDQnsD7778fjz76VLz55vIYMmRnoVx7YEX8fU0Y98QTz8RHP7pF7L77LlFVVVXE3vPVlUAuX+tpNgQIECBAgAABAgQIECBAoOIF3nuvujYYmj//hdh55+1rn9TaaKONHPRQgp1RczTBe++9FzVPJj7zzMLYccftaoPQjTbqXoK75adLgVx+1tJMCBAgQIAAAQIECBAgQIAAgbUCNU/KLVu2ojYkevXV1+Mvf/lbvP/+P/kUWaCq6gPxkY9sHFtt1a82/Ozdu5cn41IYC+RSIGlCgAABAgQIECBAgAABAgQIECBAoFgCArliSeqHAAECBAgQIECAAAECBAgQIECAQAoBgVwKJE0IECBAgAABAgQIECBAgAABAgQIFEtAIFcsSf0QIECAAAECBAgQIECAAAECBAgQSCEgkEuBpAkBAgQIECBAgAABAgQIECBAgACBYgkI5IolqR8CBAgQIECAAAECBAgQIECAAAECKQQEcimQNCFAgAABAgQIECBAgAABAgQIECBQLAGBXLEk9UOAAAECBAgQIECAAAECBAgQIEAghYBALgWSJgQIECBAgAABAgQIECBAgAABAgSKJSCQK5akfggQIECAAAECBAgQIECAAAECBAikEBDIpUDShAABAgQIECBAgAABAgQIECBAgECxBARyxZLUDwECBAgQIECAAAECBAgQIECAAIEUAgK5FEiaECBAgAABAgQIECBAgAABAgQIECiWgECuWJL6IUCAAAECBAgQIECAAAECBAgQIJBCQCCXAkkTAgQIECBAgAABAgQIECBAgAABAsUSEMgVS1I/BAgQIECAAAECBAgQIECAAAECBFIICORSIGlCgAABAgQIECBAgAABAgQIECBAoFgCArliSeqHAAECBAgQIECAAAECBAgQIECAQAoBgVwKJE0IECBAgAABAgQIECBAgAABAgQIFEtAIFcsSf0QIECAAAECBAgQIECAAAECBAgQSCEgkEuBpAkBAgQIECBAgAABAgQIECBAgACBYgkI5IolqR8CBAgQIECAAAECBAgQIECAAAECKQQEcimQNCFAgAABAgQIECBAgAABAgQIECBQLAGBXLEk9UOAAAECBAgQIECAAAECBAgQIEAghYBALgWSJgQIECBAgAABAgQIECBAgAABAgSKJSCQK5akfggQIECAAAECBAgQIECAAAECBAikEBDIpUDShAABAgQIECBAgAABAgQIECBAgECxBARyxZLUDwECBAgQIECAAAECBAgQIECAAIEUAgK5FEiaECBAgAABAgQIECBAgAABAgQIECiWgECuWJL6IUCAAAECBAgQIECAAAECBAgQIJBCQCCXAkkTAgQIECBAgAABAgQIECBAgAABAsUSEMgVS1I/BAgQIECAAAECBAgQIECAAAECBFIICORSIGlCgAABAgQIECBAgAABAgQIECBAoFgCArliSeqHAAECBAgQIECAAAECBAgQIECAQAoBgVwKJE0IECBAgAABAgQIECBAgAABAgQIFEtAIFcsSf0QIECAAAECBAgQIECAAAECBAgQSCEgkEuBpAkBAgQIECBAgAABAgQIECBAgACBYgkI5IolqR8CBAgQIECAAAECBAgQIECAAAECKQQEcimQNCFAgAABAgQIECBAgAABAgQIECBQLAGBXLEk9UOAAAECBAgQIECAAAECBAgQIEAghYBALgWSJgQIECBAgAABAgQIECBAgAABAgSKJSCQK5akfggQIECAAAECBAgQIECAAAECBAikEBDIpUDShAABAgQIECBAgAABAgQIECBAgECxBARyxZLUDwECBAgQIECAAAECBAgQIECAAIEUAgK5FEiaECBAgAABAgQIECBAgAABAgQIECiWgECuWJL6IUCAAAECBAgQIECAAAECBAgQIJBCQCCXAkkTAgQIECBAgAABAgQIECBAgAABAsUS+P8BF+rkkovgEPkAAAAASUVORK5CYII=;" parent="WIyWlLk6GJQsqaUBKTNV-1" vertex="1">
          <mxGeometry x="1180" y="20" width="422" height="216.73" as="geometry" />
        </mxCell>
        <mxCell id="9QC4V0BDtNtjRqaUdD-V-0" style="edgeStyle=orthogonalEdgeStyle;rounded=0;orthogonalLoop=1;jettySize=auto;html=1;exitX=0;exitY=0.5;exitDx=0;exitDy=0;entryX=0;entryY=0.5;entryDx=0;entryDy=0;" parent="WIyWlLk6GJQsqaUBKTNV-1" source="9QC4V0BDtNtjRqaUdD-V-3" target="9QC4V0BDtNtjRqaUdD-V-4" edge="1">
          <mxGeometry relative="1" as="geometry" />
        </mxCell>
        <mxCell id="9QC4V0BDtNtjRqaUdD-V-1" style="edgeStyle=orthogonalEdgeStyle;rounded=0;orthogonalLoop=1;jettySize=auto;html=1;exitX=0;exitY=0.5;exitDx=0;exitDy=0;entryX=0;entryY=0.5;entryDx=0;entryDy=0;" parent="WIyWlLk6GJQsqaUBKTNV-1" source="9QC4V0BDtNtjRqaUdD-V-3" target="9QC4V0BDtNtjRqaUdD-V-5" edge="1">
          <mxGeometry relative="1" as="geometry" />
        </mxCell>
        <mxCell id="9QC4V0BDtNtjRqaUdD-V-2" style="edgeStyle=orthogonalEdgeStyle;rounded=0;orthogonalLoop=1;jettySize=auto;html=1;exitX=0;exitY=0.5;exitDx=0;exitDy=0;entryX=-0.014;entryY=0.456;entryDx=0;entryDy=0;entryPerimeter=0;" parent="WIyWlLk6GJQsqaUBKTNV-1" source="9QC4V0BDtNtjRqaUdD-V-3" target="9QC4V0BDtNtjRqaUdD-V-7" edge="1">
          <mxGeometry relative="1" as="geometry">
            <Array as="points">
              <mxPoint x="120" y="750" />
              <mxPoint x="120" y="894" />
            </Array>
          </mxGeometry>
        </mxCell>
        <mxCell id="9QC4V0BDtNtjRqaUdD-V-10" style="edgeStyle=orthogonalEdgeStyle;rounded=0;orthogonalLoop=1;jettySize=auto;html=1;exitX=1;exitY=0.5;exitDx=0;exitDy=0;" parent="WIyWlLk6GJQsqaUBKTNV-1" source="9QC4V0BDtNtjRqaUdD-V-3" target="9QC4V0BDtNtjRqaUdD-V-9" edge="1">
          <mxGeometry relative="1" as="geometry">
            <Array as="points">
              <mxPoint x="500" y="750" />
              <mxPoint x="500" y="930" />
              <mxPoint x="420" y="930" />
            </Array>
          </mxGeometry>
        </mxCell>
        <mxCell id="9QC4V0BDtNtjRqaUdD-V-11" style="edgeStyle=orthogonalEdgeStyle;rounded=0;orthogonalLoop=1;jettySize=auto;html=1;exitX=1;exitY=0.5;exitDx=0;exitDy=0;" parent="WIyWlLk6GJQsqaUBKTNV-1" source="9QC4V0BDtNtjRqaUdD-V-3" target="9QC4V0BDtNtjRqaUdD-V-8" edge="1">
          <mxGeometry relative="1" as="geometry">
            <Array as="points">
              <mxPoint x="500" y="750" />
              <mxPoint x="500" y="930" />
              <mxPoint x="240" y="930" />
            </Array>
          </mxGeometry>
        </mxCell>
        <mxCell id="9QC4V0BDtNtjRqaUdD-V-3" value="User will also have info about the following" style="rounded=0;whiteSpace=wrap;html=1;" parent="WIyWlLk6GJQsqaUBKTNV-1" vertex="1">
          <mxGeometry x="140" y="730" width="340" height="40" as="geometry" />
        </mxCell>
        <mxCell id="9QC4V0BDtNtjRqaUdD-V-4" value="Email" style="rounded=0;whiteSpace=wrap;html=1;fillColor=#FFFFFF;strokeColor=#666666;glass=0;shadow=0;fontColor=#333333;align=left;verticalAlign=middle;labelPosition=center;verticalLabelPosition=middle;" parent="WIyWlLk6GJQsqaUBKTNV-1" vertex="1">
          <mxGeometry x="190" y="790" width="280" height="30" as="geometry" />
        </mxCell>
        <mxCell id="9QC4V0BDtNtjRqaUdD-V-5" value="Linkedin" style="rounded=0;whiteSpace=wrap;html=1;fillColor=#FFFFFF;strokeColor=#666666;glass=0;shadow=0;fontColor=#333333;align=left;verticalAlign=middle;labelPosition=center;verticalLabelPosition=middle;" parent="WIyWlLk6GJQsqaUBKTNV-1" vertex="1">
          <mxGeometry x="190" y="840" width="280" height="30" as="geometry" />
        </mxCell>
        <mxCell id="9QC4V0BDtNtjRqaUdD-V-6" value="Ext 1" style="whiteSpace=wrap;html=1;fillColor=#FFFFFF;" parent="WIyWlLk6GJQsqaUBKTNV-1" vertex="1">
          <mxGeometry x="110" y="670" width="390" height="40" as="geometry" />
        </mxCell>
        <mxCell id="9QC4V0BDtNtjRqaUdD-V-7" value="Twitter" style="rounded=0;whiteSpace=wrap;html=1;fillColor=#FFFFFF;strokeColor=#666666;glass=0;shadow=0;fontColor=#333333;align=left;verticalAlign=middle;labelPosition=center;verticalLabelPosition=middle;" parent="WIyWlLk6GJQsqaUBKTNV-1" vertex="1">
          <mxGeometry x="190" y="880" width="280" height="30" as="geometry" />
        </mxCell>
        <mxCell id="9QC4V0BDtNtjRqaUdD-V-8" value="EXISTING USERS???" style="rounded=0;whiteSpace=wrap;html=1;" parent="WIyWlLk6GJQsqaUBKTNV-1" vertex="1">
          <mxGeometry x="195" y="960" width="90" height="40" as="geometry" />
        </mxCell>
        <mxCell id="9QC4V0BDtNtjRqaUdD-V-9" value="NEW USERS" style="rounded=0;whiteSpace=wrap;html=1;" parent="WIyWlLk6GJQsqaUBKTNV-1" vertex="1">
          <mxGeometry x="370" y="960" width="100" height="40" as="geometry" />
        </mxCell>
        <mxCell id="9QC4V0BDtNtjRqaUdD-V-12" value="After clicking view on more info" style="rounded=0;whiteSpace=wrap;html=1;" parent="WIyWlLk6GJQsqaUBKTNV-1" vertex="1">
          <mxGeometry x="190" y="1020" width="100" height="30" as="geometry" />
        </mxCell>
        <mxCell id="9QC4V0BDtNtjRqaUdD-V-13" value="Adding input fields for each on form" style="rounded=0;whiteSpace=wrap;html=1;fontStyle=0" parent="WIyWlLk6GJQsqaUBKTNV-1" vertex="1">
          <mxGeometry x="350" y="1020" width="160" height="30" as="geometry" />
        </mxCell>
        <mxCell id="9QC4V0BDtNtjRqaUdD-V-14" value="Making them controlled elements" style="rounded=0;whiteSpace=wrap;html=1;fontStyle=0" parent="WIyWlLk6GJQsqaUBKTNV-1" vertex="1">
          <mxGeometry x="350" y="1060" width="160" height="30" as="geometry" />
        </mxCell>
        <mxCell id="9QC4V0BDtNtjRqaUdD-V-15" value="adding new items to post request" style="rounded=0;whiteSpace=wrap;html=1;fontStyle=0" parent="WIyWlLk6GJQsqaUBKTNV-1" vertex="1">
          <mxGeometry x="350" y="1100" width="160" height="30" as="geometry" />
        </mxCell>
        <mxCell id="9QC4V0BDtNtjRqaUdD-V-17" value="Check if new element in json has the new input fields" style="rounded=0;whiteSpace=wrap;html=1;" parent="WIyWlLk6GJQsqaUBKTNV-1" vertex="1">
          <mxGeometry x="350" y="1139" width="160" height="30" as="geometry" />
        </mxCell>
      </root>
    </mxGraphModel>
  </diagram>
</mxfile>
